Grenze-Light.ufo
<glyph name="exclam" format="2">
  <advance width="221.0"/>
  <unicode hex="0021"/>
  <outline>
    <contour>
      <point x="105.0" y="113.0" type="curve" smooth="yes"/>
      <point x="107.0" y="113.0"/>
      <point x="113.0" y="114.0"/>
      <point x="118.0" y="115.0" type="curve"/>
      <point x="124.0" y="593.0" type="line" smooth="yes"/>
      <point x="124.0" y="594.0"/>
      <point x="118.0" y="600.0"/>
      <point x="117.0" y="600.0" type="curve" smooth="yes"/>
      <point x="114.0" y="600.0"/>
      <point x="104.0" y="598.0"/>
      <point x="95.0" y="596.0" type="curve"/>
      <point x="100.0" y="118.0" type="line" smooth="yes"/>
      <point x="100.0" y="117.0"/>
      <point x="104.0" y="113.0"/>
    </contour>
    <contour>
      <point x="101.0" y="-11.0" type="curve" smooth="yes"/>
      <point x="111.0" y="-11.0"/>
      <point x="120.0" y="-9.0"/>
      <point x="129.0" y="-7.0" type="curve"/>
      <point x="123.0" y="64.0" type="line"/>
      <point x="98.0" y="64.0" type="line"/>
      <point x="92.0" y="0.0" type="line" smooth="yes"/>
      <point x="92.0" y="-2.0"/>
      <point x="98.0" y="-11.0"/>
    </contour>
  </outline>
</glyph>
<glyph name="quotedbl" format="2">
  <advance width="242.0"/>
  <unicode hex="0022"/>
  <outline>
    <contour>
      <point x="54.0" y="495.0" type="line"/>
      <point x="76.0" y="495.0" type="line"/>
      <point x="80.0" y="552.0"/>
      <point x="84.0" y="613.0"/>
      <point x="87.0" y="666.0" type="curve" smooth="yes"/>
      <point x="87.0" y="669.0"/>
      <point x="79.0" y="679.0"/>
      <point x="76.0" y="679.0" type="curve" smooth="yes"/>
      <point x="66.0" y="679.0"/>
      <point x="57.0" y="677.0"/>
      <point x="45.0" y="674.0" type="curve"/>
    </contour>
    <contour>
      <point x="164.0" y="495.0" type="line"/>
      <point x="186.0" y="495.0" type="line"/>
      <point x="190.0" y="552.0"/>
      <point x="197.0" y="613.0"/>
      <point x="197.0" y="666.0" type="curve" smooth="yes"/>
      <point x="197.0" y="669.0"/>
      <point x="189.0" y="679.0"/>
      <point x="186.0" y="679.0" type="curve" smooth="yes"/>
      <point x="176.0" y="679.0"/>
      <point x="167.0" y="677.0"/>
      <point x="155.0" y="674.0" type="curve"/>
    </contour>
  </outline>
</glyph>
<glyph name="numbersign" format="2">
  <advance width="548.0"/>
  <unicode hex="0023"/>
  <outline>
    <contour>
      <point x="303.0" y="-17.0" type="line"/>
      <point x="324.0" y="-17.0" type="line"/>
      <point x="391.0" y="486.0" type="line"/>
      <point x="368.0" y="486.0" type="line"/>
    </contour>
    <contour>
      <point x="44.0" y="137.0" type="line"/>
      <point x="469.0" y="137.0" type="line"/>
      <point x="471.0" y="159.0" type="line"/>
      <point x="46.0" y="159.0" type="line"/>
    </contour>
    <contour>
      <point x="146.0" y="-17.0" type="line"/>
      <point x="168.0" y="-17.0" type="line"/>
      <point x="234.0" y="486.0" type="line"/>
      <point x="211.0" y="486.0" type="line"/>
    </contour>
    <contour>
      <point x="73.0" y="322.0" type="line"/>
      <point x="497.0" y="322.0" type="line"/>
      <point x="499.0" y="344.0" type="line"/>
      <point x="75.0" y="344.0" type="line"/>
    </contour>
  </outline>
</glyph>
<glyph name="dollar" format="2">
  <advance width="447.0"/>
  <unicode hex="0024"/>
  <outline>
    <contour>
      <point x="257.0" y="-10.0" type="curve" smooth="yes"/>
      <point x="304.0" y="-10.0"/>
      <point x="360.0" y="52.0"/>
      <point x="378.0" y="106.0" type="curve"/>
      <point x="382.0" y="121.0"/>
      <point x="382.0" y="138.0"/>
      <point x="382.0" y="151.0" type="curve" smooth="yes"/>
      <point x="382.0" y="214.0"/>
      <point x="298.0" y="249.0"/>
      <point x="224.0" y="291.0" type="curve" smooth="yes"/>
      <point x="162.0" y="326.0"/>
      <point x="106.0" y="353.0"/>
      <point x="106.0" y="413.0" type="curve" smooth="yes"/>
      <point x="106.0" y="472.0"/>
      <point x="182.0" y="526.0"/>
      <point x="202.0" y="526.0" type="curve" smooth="yes"/>
      <point x="220.0" y="526.0"/>
      <point x="295.0" y="517.0"/>
      <point x="325.0" y="510.0" type="curve"/>
      <point x="332.0" y="412.0" type="line"/>
      <point x="351.0" y="412.0" type="line"/>
      <point x="357.0" y="534.0" type="line"/>
      <point x="325.0" y="540.0"/>
      <point x="233.0" y="552.0"/>
      <point x="206.0" y="552.0" type="curve" smooth="yes"/>
      <point x="172.0" y="552.0"/>
      <point x="106.0" y="499.0"/>
      <point x="82.0" y="450.0" type="curve"/>
      <point x="78.0" y="434.0"/>
      <point x="76.0" y="420.0"/>
      <point x="76.0" y="404.0" type="curve" smooth="yes"/>
      <point x="76.0" y="338.0"/>
      <point x="142.0" y="304.0"/>
      <point x="210.0" y="266.0" type="curve" smooth="yes"/>
      <point x="280.0" y="227.0"/>
      <point x="352.0" y="197.0"/>
      <point x="352.0" y="138.0" type="curve" smooth="yes"/>
      <point x="352.0" y="76.0"/>
      <point x="291.0" y="17.0"/>
      <point x="261.0" y="17.0" type="curve" smooth="yes"/>
      <point x="230.0" y="17.0"/>
      <point x="144.0" y="24.0"/>
      <point x="106.0" y="30.0" type="curve"/>
      <point x="95.0" y="128.0" type="line"/>
      <point x="76.0" y="128.0" type="line"/>
      <point x="75.0" y="6.0" type="line"/>
      <point x="120.0" y="-1.0"/>
      <point x="230.0" y="-10.0"/>
    </contour>
    <contour>
      <point x="211.0" y="-102.0" type="line"/>
      <point x="233.0" y="-102.0" type="line"/>
      <point x="233.0" y="5.0" type="line"/>
      <point x="211.0" y="5.0" type="line"/>
    </contour>
    <contour>
      <point x="211.0" y="541.0" type="line"/>
      <point x="232.0" y="541.0" type="line"/>
      <point x="232.0" y="647.0" type="line"/>
      <point x="211.0" y="647.0" type="line"/>
    </contour>
  </outline>
</glyph>
<glyph name="ampersand" format="2">
  <advance width="580.0"/>
  <unicode hex="0026"/>
  <outline>
    <contour>
      <point x="485.0" y="0.0" type="curve"/>
      <point x="555.0" y="0.0" type="line"/>
      <point x="555.0" y="17.0" type="line"/>
      <point x="491.0" y="27.0" type="line"/>
      <point x="383.0" y="140.0"/>
      <point x="245.0" y="297.0"/>
      <point x="173.0" y="393.0" type="curve" smooth="yes"/>
      <point x="147.0" y="428.0"/>
      <point x="135.0" y="457.0"/>
      <point x="135.0" y="488.0" type="curve" smooth="yes"/>
      <point x="135.0" y="524.0"/>
      <point x="162.0" y="553.0"/>
      <point x="210.0" y="581.0" type="curve" smooth="yes"/>
      <point x="234.0" y="595.0"/>
      <point x="309.0" y="585.0"/>
      <point x="311.0" y="533.0" type="curve" smooth="yes"/>
      <point x="315.0" y="442.0" type="line"/>
      <point x="331.0" y="442.0" type="line"/>
      <point x="334.0" y="474.0"/>
      <point x="337.0" y="523.0"/>
      <point x="337.0" y="541.0" type="curve" smooth="yes"/>
      <point x="337.0" y="589.0"/>
      <point x="291.0" y="611.0"/>
      <point x="219.0" y="611.0" type="curve" smooth="yes"/>
      <point x="204.0" y="611.0"/>
      <point x="132.0" y="557.0"/>
      <point x="114.0" y="523.0" type="curve"/>
      <point x="110.0" y="513.0"/>
      <point x="108.0" y="498.0"/>
      <point x="108.0" y="484.0" type="curve" smooth="yes"/>
      <point x="108.0" y="443.0"/>
      <point x="127.0" y="411.0"/>
      <point x="151.0" y="380.0" type="curve" smooth="yes"/>
      <point x="195.0" y="323.0"/>
      <point x="425.0" y="52.0"/>
    </contour>
    <contour>
      <point x="201.0" y="-9.0" type="curve" smooth="yes"/>
      <point x="223.0" y="-9.0"/>
      <point x="289.0" y="8.0"/>
      <point x="305.0" y="31.0" type="curve" smooth="yes"/>
      <point x="360.0" y="110.0"/>
      <point x="453.0" y="273.0"/>
      <point x="501.0" y="353.0" type="curve"/>
      <point x="472.0" y="353.0" type="line"/>
      <point x="429.0" y="272.0"/>
      <point x="300.0" y="42.0"/>
      <point x="269.0" y="28.0" type="curve" smooth="yes"/>
      <point x="247.0" y="18.0"/>
      <point x="220.0" y="13.0"/>
      <point x="196.0" y="13.0" type="curve" smooth="yes"/>
      <point x="117.0" y="13.0"/>
      <point x="66.0" y="68.0"/>
      <point x="66.0" y="158.0" type="curve" smooth="yes"/>
      <point x="66.0" y="237.0"/>
      <point x="111.0" y="294.0"/>
      <point x="193.0" y="343.0" type="curve"/>
      <point x="180.0" y="360.0" type="line"/>
      <point x="91.0" y="308.0"/>
      <point x="40.0" y="240.0"/>
      <point x="40.0" y="155.0" type="curve" smooth="yes"/>
      <point x="40.0" y="53.0"/>
      <point x="100.0" y="-9.0"/>
    </contour>
    <contour>
      <point x="466.0" y="325.0" type="line"/>
      <point x="537.0" y="336.0" type="line"/>
      <point x="537.0" y="353.0" type="line"/>
      <point x="371.0" y="353.0" type="line"/>
      <point x="372.0" y="336.0" type="line"/>
    </contour>
  </outline>
</glyph>
<glyph name="quotesingle" format="2">
  <advance width="132.0"/>
  <unicode hex="0027"/>
  <outline>
    <contour>
      <point x="54.0" y="495.0" type="line"/>
      <point x="76.0" y="495.0" type="line"/>
      <point x="80.0" y="552.0"/>
      <point x="84.0" y="613.0"/>
      <point x="87.0" y="666.0" type="curve" smooth="yes"/>
      <point x="87.0" y="669.0"/>
      <point x="79.0" y="679.0"/>
      <point x="76.0" y="679.0" type="curve" smooth="yes"/>
      <point x="66.0" y="679.0"/>
      <point x="57.0" y="677.0"/>
      <point x="45.0" y="674.0" type="curve"/>
    </contour>
  </outline>
</glyph>
<glyph name="parenleft" format="2">
  <advance width="217.0"/>
  <unicode hex="0028"/>
  <outline>
    <contour>
      <point x="165.0" y="-112.0" type="curve"/>
      <point x="177.0" y="-103.0" type="line"/>
      <point x="107.0" y="4.0"/>
      <point x="70.0" y="147.0"/>
      <point x="70.0" y="284.0" type="curve" smooth="yes"/>
      <point x="70.0" y="421.0"/>
      <point x="107.0" y="564.0"/>
      <point x="177.0" y="670.0" type="curve"/>
      <point x="165.0" y="680.0" type="line"/>
      <point x="89.0" y="580.0"/>
      <point x="46.0" y="430.0"/>
      <point x="46.0" y="284.0" type="curve" smooth="yes"/>
      <point x="46.0" y="138.0"/>
      <point x="89.0" y="-12.0"/>
    </contour>
  </outline>
</glyph>
<glyph name="parenright" format="2">
  <advance width="217.0"/>
  <unicode hex="0029"/>
  <outline>
    <contour>
      <point x="52.0" y="-112.0" type="line"/>
      <point x="128.0" y="-12.0"/>
      <point x="171.0" y="138.0"/>
      <point x="171.0" y="284.0" type="curve" smooth="yes"/>
      <point x="171.0" y="430.0"/>
      <point x="128.0" y="580.0"/>
      <point x="52.0" y="680.0" type="curve"/>
      <point x="40.0" y="671.0" type="line"/>
      <point x="110.0" y="564.0"/>
      <point x="147.0" y="421.0"/>
      <point x="147.0" y="284.0" type="curve" smooth="yes"/>
      <point x="147.0" y="147.0"/>
      <point x="110.0" y="4.0"/>
      <point x="40.0" y="-102.0" type="curve"/>
    </contour>
  </outline>
</glyph>
<glyph name="asterisk" format="2">
  <advance width="303.0"/>
  <unicode hex="002A"/>
  <outline>
    <contour>
      <point x="155.0" y="400.0" type="line"/>
      <point x="175.0" y="403.0" type="line"/>
      <point x="169.0" y="521.0" type="line"/>
      <point x="260.0" y="459.0" type="line"/>
      <point x="271.0" y="461.0" type="line"/>
      <point x="278.0" y="479.0" type="line"/>
      <point x="176.0" y="533.0" type="line"/>
      <point x="279.0" y="584.0" type="line"/>
      <point x="270.0" y="603.0" type="line"/>
      <point x="258.0" y="605.0" type="line"/>
      <point x="169.0" y="545.0" type="line"/>
      <point x="176.0" y="659.0" type="line"/>
      <point x="168.0" y="667.0" type="line"/>
      <point x="148.0" y="665.0" type="line"/>
      <point x="155.0" y="545.0" type="line"/>
      <point x="65.0" y="605.0" type="line"/>
      <point x="51.0" y="603.0" type="line"/>
      <point x="45.0" y="584.0" type="line"/>
      <point x="148.0" y="533.0" type="line"/>
      <point x="44.0" y="479.0" type="line"/>
      <point x="51.0" y="461.0" type="line"/>
      <point x="64.0" y="459.0" type="line"/>
      <point x="155.0" y="521.0" type="line"/>
      <point x="148.0" y="410.0" type="line"/>
    </contour>
  </outline>
</glyph>
<glyph name="plus" format="2">
  <advance width="632.0"/>
  <unicode hex="002B"/>
  <outline>
    <contour>
      <point x="299.0" y="33.0" type="line"/>
      <point x="325.0" y="33.0" type="line"/>
      <point x="325.0" y="474.0" type="line"/>
      <point x="299.0" y="474.0" type="line"/>
    </contour>
    <contour>
      <point x="110.0" y="242.0" type="line"/>
      <point x="522.0" y="242.0" type="line"/>
      <point x="522.0" y="266.0" type="line"/>
      <point x="110.0" y="266.0" type="line"/>
    </contour>
  </outline>
</glyph>
<glyph name="comma" format="2">
  <advance width="185.0"/>
  <unicode hex="002C"/>
  <outline>
    <contour>
      <point x="77.0" y="-103.0" type="line"/>
      <point x="103.0" y="-60.0"/>
      <point x="125.0" y="-9.0"/>
      <point x="125.0" y="24.0" type="curve" smooth="yes"/>
      <point x="125.0" y="71.0" type="line"/>
      <point x="125.0" y="76.0"/>
      <point x="114.0" y="85.0"/>
      <point x="110.0" y="85.0" type="curve" smooth="yes"/>
      <point x="105.0" y="85.0"/>
      <point x="93.0" y="82.0"/>
      <point x="85.0" y="79.0" type="curve"/>
      <point x="84.0" y="10.0" type="line" smooth="yes"/>
      <point x="84.0" y="5.0"/>
      <point x="92.0" y="0.0"/>
      <point x="97.0" y="-4.0" type="curve"/>
      <point x="90.0" y="-29.0"/>
      <point x="74.0" y="-70.0"/>
      <point x="63.0" y="-94.0" type="curve"/>
    </contour>
  </outline>
</glyph>
<glyph name="period" format="2">
  <advance width="153.0"/>
  <unicode hex="002E"/>
  <outline>
    <contour>
      <point x="72.0" y="-9.0" type="curve" smooth="yes"/>
      <point x="75.0" y="-9.0"/>
      <point x="84.0" y="-6.0"/>
      <point x="93.0" y="-4.0" type="curve"/>
      <point x="97.0" y="64.0" type="line" smooth="yes"/>
      <point x="97.0" y="68.0"/>
      <point x="86.0" y="78.0"/>
      <point x="82.0" y="78.0" type="curve" smooth="yes"/>
      <point x="77.0" y="78.0"/>
      <point x="66.0" y="76.0"/>
      <point x="56.0" y="73.0" type="curve"/>
      <point x="57.0" y="5.0" type="line"/>
      <point x="58.0" y="0.0"/>
      <point x="68.0" y="-9.0"/>
    </contour>
  </outline>
</glyph>
<glyph name="slash" format="2">
  <advance width="343.0"/>
  <unicode hex="002F"/>
  <outline>
    <contour>
      <point x="55.0" y="-118.0" type="line"/>
      <point x="79.0" y="-118.0" type="line"/>
      <point x="288.0" y="687.0" type="line"/>
      <point x="264.0" y="687.0" type="line"/>
    </contour>
  </outline>
</glyph>
<glyph name="zero" format="2">
  <advance width="458.0"/>
  <unicode hex="0030"/>
  <outline>
    <contour>
      <point x="230.0" y="-9.0" type="curve" smooth="yes"/>
      <point x="360.0" y="-9.0"/>
      <point x="403.0" y="121.0"/>
      <point x="403.0" y="230.0" type="curve" smooth="yes"/>
      <point x="403.0" y="381.0"/>
      <point x="346.0" y="468.0"/>
      <point x="228.0" y="468.0" type="curve" smooth="yes"/>
      <point x="98.0" y="468.0"/>
      <point x="55.0" y="339.0"/>
      <point x="55.0" y="230.0" type="curve" smooth="yes"/>
      <point x="55.0" y="80.0"/>
      <point x="110.0" y="-9.0"/>
    </contour>
    <contour>
      <point x="229.0" y="15.0" type="curve" smooth="yes"/>
      <point x="146.0" y="15.0"/>
      <point x="84.0" y="76.0"/>
      <point x="84.0" y="233.0" type="curve" smooth="yes"/>
      <point x="84.0" y="328.0"/>
      <point x="111.0" y="390.0"/>
      <point x="158.0" y="427.0" type="curve" smooth="yes"/>
      <point x="164.0" y="432.0"/>
      <point x="201.0" y="444.0"/>
      <point x="229.0" y="444.0" type="curve" smooth="yes"/>
      <point x="312.0" y="444.0"/>
      <point x="374.0" y="384.0"/>
      <point x="374.0" y="233.0" type="curve" smooth="yes"/>
      <point x="374.0" y="134.0"/>
      <point x="347.0" y="71.0"/>
      <point x="300.0" y="32.0" type="curve" smooth="yes"/>
      <point x="294.0" y="27.0"/>
      <point x="257.0" y="15.0"/>
    </contour>
  </outline>
</glyph>
<glyph name="one" format="2">
  <advance width="261.0"/>
  <unicode hex="0031"/>
  <outline>
    <contour>
      <point x="52.0" y="0.0" type="line"/>
      <point x="231.0" y="0.0" type="line"/>
      <point x="231.0" y="20.0" type="line"/>
      <point x="159.0" y="25.0" type="line"/>
      <point x="159.0" y="463.0" type="line"/>
      <point x="142.0" y="468.0" type="line"/>
      <point x="47.0" y="443.0" type="line"/>
      <point x="47.0" y="422.0" type="line"/>
      <point x="130.0" y="435.0" type="line"/>
      <point x="130.0" y="25.0" type="line"/>
      <point x="52.0" y="20.0" type="line"/>
    </contour>
  </outline>
</glyph>
<glyph name="three" format="2">
  <advance width="355.0"/>
  <unicode hex="0033"/>
  <outline>
    <contour>
      <point x="61.0" y="-80.0" type="line"/>
      <point x="191.0" y="-54.0"/>
      <point x="305.0" y="33.0"/>
      <point x="305.0" y="130.0" type="curve" smooth="yes"/>
      <point x="305.0" y="195.0"/>
      <point x="268.0" y="234.0"/>
      <point x="184.0" y="238.0" type="curve"/>
      <point x="184.0" y="241.0" type="line"/>
      <point x="233.0" y="265.0"/>
      <point x="279.0" y="306.0"/>
      <point x="279.0" y="379.0" type="curve" smooth="yes"/>
      <point x="279.0" y="434.0"/>
      <point x="246.0" y="468.0"/>
      <point x="184.0" y="468.0" type="curve" smooth="yes"/>
      <point x="157.0" y="468.0"/>
      <point x="75.0" y="455.0"/>
      <point x="45.0" y="449.0" type="curve"/>
      <point x="47.0" y="352.0" type="line"/>
      <point x="65.0" y="352.0" type="line"/>
      <point x="72.0" y="426.0" type="line"/>
      <point x="101.0" y="434.0"/>
      <point x="177.0" y="444.0"/>
      <point x="194.0" y="444.0" type="curve" smooth="yes"/>
      <point x="199.0" y="444.0"/>
      <point x="250.0" y="445.0"/>
      <point x="250.0" y="374.0" type="curve" smooth="yes"/>
      <point x="250.0" y="302.0"/>
      <point x="210.0" y="262.0"/>
      <point x="111.0" y="235.0" type="curve"/>
      <point x="111.0" y="215.0" type="line"/>
      <point x="174.0" y="215.0" type="line" smooth="yes"/>
      <point x="236.0" y="215.0"/>
      <point x="276.0" y="188.0"/>
      <point x="276.0" y="130.0" type="curve" smooth="yes"/>
      <point x="276.0" y="27.0"/>
      <point x="156.0" y="-33.0"/>
      <point x="61.0" y="-59.0" type="curve"/>
    </contour>
  </outline>
</glyph>
<glyph name="four" format="2">
  <advance width="427.0"/>
  <unicode hex="0034"/>
  <outline>
    <contour>
      <point x="282.0" y="-79.0" type="line"/>
      <point x="311.0" y="-79.0" type="line"/>
      <point x="311.0" y="65.0" type="line"/>
      <point x="397.0" y="65.0" type="line"/>
      <point x="397.0" y="91.0" type="line"/>
      <point x="311.0" y="91.0" type="line"/>
      <point x="311.0" y="262.0" type="line"/>
      <point x="303.0" y="265.0" type="line"/>
      <point x="282.0" y="259.0" type="line"/>
      <point x="282.0" y="91.0" type="line"/>
      <point x="69.0" y="91.0" type="line"/>
      <point x="68.0" y="95.0" type="line"/>
      <point x="114.0" y="186.0"/>
      <point x="199.0" y="361.0"/>
      <point x="238.0" y="450.0" type="curve"/>
      <point x="238.0" y="459.0" type="line"/>
      <point x="214.0" y="469.0" type="line"/>
      <point x="183.0" y="387.0"/>
      <point x="98.0" y="212.0"/>
      <point x="35.0" y="82.0" type="curve"/>
      <point x="37.0" y="65.0" type="line"/>
      <point x="282.0" y="65.0" type="line"/>
    </contour>
  </outline>
</glyph>
<glyph name="five" format="2">
  <advance width="351.0"/>
  <unicode hex="0035"/>
  <outline>
    <contour>
      <point x="58.0" y="-80.0" type="line"/>
      <point x="189.0" y="-56.0"/>
      <point x="301.0" y="17.0"/>
      <point x="301.0" y="144.0" type="curve" smooth="yes"/>
      <point x="301.0" y="211.0"/>
      <point x="266.0" y="273.0"/>
      <point x="181.0" y="273.0" type="curve" smooth="yes"/>
      <point x="169.0" y="273.0"/>
      <point x="96.0" y="246.0"/>
      <point x="81.0" y="241.0" type="curve"/>
      <point x="97.0" y="427.0" type="line"/>
      <point x="278.0" y="427.0" type="line"/>
      <point x="275.0" y="503.0" type="line"/>
      <point x="258.0" y="503.0" type="line"/>
      <point x="254.0" y="455.0" type="line"/>
      <point x="75.0" y="455.0" type="line"/>
      <point x="55.0" y="228.0" type="line"/>
      <point x="66.0" y="214.0" type="line"/>
      <point x="106.0" y="227.0"/>
      <point x="169.0" y="248.0"/>
      <point x="182.0" y="248.0" type="curve" smooth="yes"/>
      <point x="225.0" y="248.0"/>
      <point x="272.0" y="223.0"/>
      <point x="272.0" y="140.0" type="curve" smooth="yes"/>
      <point x="272.0" y="18.0"/>
      <point x="154.0" y="-35.0"/>
      <point x="58.0" y="-59.0" type="curve"/>
    </contour>
  </outline>
</glyph>
<glyph name="seven" format="2">
  <advance width="357.0"/>
  <unicode hex="0037"/>
  <outline>
    <contour>
      <point x="86.0" y="-81.0" type="curve" smooth="yes"/>
      <point x="89.0" y="-81.0"/>
      <point x="94.0" y="-78.0"/>
      <point x="96.0" y="-76.0" type="curve"/>
      <point x="332.0" y="439.0" type="line"/>
      <point x="328.0" y="455.0" type="line"/>
      <point x="30.0" y="454.0" type="line"/>
      <point x="32.0" y="342.0" type="line"/>
      <point x="50.0" y="342.0" type="line"/>
      <point x="58.0" y="427.0" type="line"/>
      <point x="297.0" y="427.0" type="line"/>
      <point x="298.0" y="421.0" type="line"/>
      <point x="64.0" y="-71.0" type="line"/>
      <point x="69.0" y="-74.0"/>
      <point x="83.0" y="-81.0"/>
    </contour>
  </outline>
</glyph>
<glyph name="eight" format="2">
  <advance width="409.0"/>
  <unicode hex="0038"/>
  <outline>
    <contour>
      <point x="207.0" y="-9.0" type="curve" smooth="yes"/>
      <point x="240.0" y="-9.0"/>
      <point x="321.0" y="43.0"/>
      <point x="334.0" y="78.0" type="curve" smooth="yes"/>
      <point x="340.0" y="95.0"/>
      <point x="347.0" y="116.0"/>
      <point x="347.0" y="137.0" type="curve" smooth="yes"/>
      <point x="347.0" y="210.0"/>
      <point x="297.0" y="245.0"/>
      <point x="242.0" y="277.0" type="curve"/>
      <point x="242.0" y="278.0" type="line"/>
      <point x="296.0" y="314.0"/>
      <point x="327.0" y="366.0"/>
      <point x="327.0" y="420.0" type="curve" smooth="yes"/>
      <point x="327.0" y="486.0"/>
      <point x="284.0" y="543.0"/>
      <point x="204.0" y="543.0" type="curve" smooth="yes"/>
      <point x="180.0" y="543.0"/>
      <point x="113.0" y="501.0"/>
      <point x="90.0" y="459.0" type="curve"/>
      <point x="85.0" y="447.0"/>
      <point x="83.0" y="435.0"/>
      <point x="83.0" y="422.0" type="curve" smooth="yes"/>
      <point x="83.0" y="359.0"/>
      <point x="119.0" y="325.0"/>
      <point x="162.0" y="297.0" type="curve"/>
      <point x="162.0" y="296.0" type="line"/>
      <point x="95.0" y="256.0"/>
      <point x="56.0" y="199.0"/>
      <point x="56.0" y="133.0" type="curve" smooth="yes"/>
      <point x="56.0" y="53.0"/>
      <point x="113.0" y="-9.0"/>
    </contour>
    <contour>
      <point x="201.0" y="13.0" type="curve" smooth="yes"/>
      <point x="135.0" y="13.0"/>
      <point x="83.0" y="60.0"/>
      <point x="83.0" y="134.0" type="curve" smooth="yes"/>
      <point x="83.0" y="198.406"/>
      <point x="118.883" y="248.459"/>
      <point x="183.003" y="285.007" type="curve"/>
      <point x="248.108" y="248.205"/>
      <point x="321.0" y="218.779"/>
      <point x="321.0" y="133.0" type="curve" smooth="yes"/>
      <point x="321.0" y="52.0"/>
      <point x="234.0" y="13.0"/>
    </contour>
    <contour>
      <point x="220.838" y="288.396" type="curve"/>
      <point x="162.533" y="320.78"/>
      <point x="106.0" y="352.0"/>
      <point x="106.0" y="428.0" type="curve" smooth="yes"/>
      <point x="106.0" y="483.0"/>
      <point x="189.0" y="522.0"/>
      <point x="206.0" y="522.0" type="curve" smooth="yes"/>
      <point x="271.0" y="522.0"/>
      <point x="301.0" y="477.0"/>
      <point x="301.0" y="420.0" type="curve" smooth="yes"/>
      <point x="301.0" y="357.994"/>
      <point x="260.638" y="313.823"/>
    </contour>
  </outline>
</glyph>
<glyph name="nine" format="2">
  <advance width="409.0"/>
  <unicode hex="0039"/>
  <outline>
    <contour>
      <point x="106.0" y="-80.0" type="line"/>
      <point x="278.0" y="-47.0"/>
      <point x="351.0" y="86.0"/>
      <point x="351.0" y="253.0" type="curve" smooth="yes"/>
      <point x="351.0" y="421.0"/>
      <point x="262.0" y="468.0"/>
      <point x="197.0" y="468.0" type="curve" smooth="yes"/>
      <point x="167.0" y="468.0"/>
      <point x="120.0" y="444.0"/>
      <point x="94.0" y="415.0" type="curve"/>
      <point x="73.0" y="385.0"/>
      <point x="60.0" y="339.0"/>
      <point x="60.0" y="294.0" type="curve" smooth="yes"/>
      <point x="60.0" y="202.0"/>
      <point x="105.0" y="150.0"/>
      <point x="206.0" y="150.0" type="curve" smooth="yes"/>
      <point x="217.0" y="150.0"/>
      <point x="288.0" y="176.0"/>
      <point x="317.0" y="187.0" type="curve"/>
      <point x="319.0" y="186.0" type="line"/>
      <point x="302.0" y="62.0"/>
      <point x="238.0" y="-21.0"/>
      <point x="106.0" y="-59.0" type="curve"/>
    </contour>
    <contour>
      <point x="209.0" y="174.0" type="curve" smooth="yes"/>
      <point x="128.0" y="174.0"/>
      <point x="89.0" y="207.0"/>
      <point x="89.0" y="302.0" type="curve" smooth="yes"/>
      <point x="89.0" y="422.0"/>
      <point x="159.0" y="445.0"/>
      <point x="195.0" y="445.0" type="curve" smooth="yes"/>
      <point x="299.0" y="440.0"/>
      <point x="336.0" y="326.0"/>
      <point x="320.0" y="211.0" type="curve"/>
      <point x="297.0" y="202.0"/>
      <point x="219.0" y="174.0"/>
    </contour>
  </outline>
</glyph>
<glyph name="less" format="2">
  <advance width="581.0"/>
  <unicode hex="003C"/>
  <outline>
    <contour>
      <point x="486.0" y="36.0" type="line"/>
      <point x="486.0" y="66.0" type="line"/>
      <point x="122.0" y="237.0" type="line"/>
      <point x="486.0" y="408.0" type="line"/>
      <point x="486.0" y="438.0" type="line"/>
      <point x="95.0" y="252.0" type="line"/>
      <point x="95.0" y="222.0" type="line"/>
    </contour>
  </outline>
</glyph>
<glyph name="equal" format="2">
  <advance width="612.0"/>
  <unicode hex="003D"/>
  <outline>
    <contour>
      <point x="110.0" y="312.0" type="line"/>
      <point x="502.0" y="312.0" type="line"/>
      <point x="502.0" y="336.0" type="line"/>
      <point x="110.0" y="336.0" type="line"/>
    </contour>
    <contour>
      <point x="110.0" y="172.0" type="line"/>
      <point x="502.0" y="172.0" type="line"/>
      <point x="502.0" y="196.0" type="line"/>
      <point x="110.0" y="196.0" type="line"/>
    </contour>
  </outline>
</glyph>
<glyph name="question" format="2">
  <advance width="389.0"/>
  <unicode hex="003F"/>
  <outline>
    <contour>
      <point x="156.0" y="144.0" type="curve" smooth="yes"/>
      <point x="158.0" y="144.0"/>
      <point x="164.0" y="145.0"/>
      <point x="169.0" y="146.0" type="curve"/>
      <point x="175.0" y="247.0"/>
      <point x="185.0" y="261.0"/>
      <point x="239.0" y="313.0" type="curve" smooth="yes"/>
      <point x="287.0" y="359.0"/>
      <point x="338.0" y="415.0"/>
      <point x="338.0" y="487.0" type="curve" smooth="yes"/>
      <point x="338.0" y="571.0"/>
      <point x="300.0" y="599.0"/>
      <point x="215.0" y="599.0" type="curve" smooth="yes"/>
      <point x="177.0" y="599.0"/>
      <point x="129.0" y="594.0"/>
      <point x="73.0" y="588.0" type="curve"/>
      <point x="96.0" y="562.0" type="line"/>
      <point x="144.0" y="567.0"/>
      <point x="205.0" y="574.0"/>
      <point x="232.0" y="574.0" type="curve" smooth="yes"/>
      <point x="286.0" y="574.0"/>
      <point x="307.0" y="534.0"/>
      <point x="307.0" y="489.0" type="curve" smooth="yes"/>
      <point x="307.0" y="418.0"/>
      <point x="260.0" y="373.0"/>
      <point x="214.0" y="327.0" type="curve" smooth="yes"/>
      <point x="177.0" y="290.0"/>
      <point x="146.0" y="256.0"/>
      <point x="148.0" y="214.0" type="curve" smooth="yes"/>
      <point x="151.0" y="149.0" type="line" smooth="yes"/>
      <point x="151.0" y="148.0"/>
      <point x="155.0" y="144.0"/>
    </contour>
    <contour>
      <point x="149.0" y="-9.0" type="curve" smooth="yes"/>
      <point x="157.0" y="-9.0"/>
      <point x="166.0" y="-8.0"/>
      <point x="176.0" y="-5.0" type="curve"/>
      <point x="171.0" y="68.0" type="line"/>
      <point x="149.0" y="68.0" type="line"/>
      <point x="139.0" y="2.0" type="line" smooth="yes"/>
      <point x="139.0" y="0.0"/>
      <point x="147.0" y="-9.0"/>
    </contour>
    <contour>
      <point x="87.0" y="437.0" type="line"/>
      <point x="104.0" y="437.0" type="line"/>
      <point x="105.0" y="588.0" type="line"/>
      <point x="74.0" y="588.0" type="line"/>
    </contour>
  </outline>
</glyph>
<glyph name="at" format="2">
  <advance width="742.0"/>
  <unicode hex="0040"/>
  <outline>
    <contour>
      <point x="352.0" y="-162.0" type="curve" smooth="yes"/>
      <point x="383.0" y="-162.0"/>
      <point x="415.0" y="-158.0"/>
      <point x="446.0" y="-150.0" type="curve"/>
      <point x="443.0" y="-131.0" type="line"/>
      <point x="420.0" y="-135.0"/>
      <point x="397.0" y="-137.0"/>
      <point x="373.0" y="-137.0" type="curve" smooth="yes"/>
      <point x="170.0" y="-137.0"/>
      <point x="75.0" y="5.0"/>
      <point x="75.0" y="210.0" type="curve" smooth="yes"/>
      <point x="75.0" y="355.0"/>
      <point x="120.0" y="462.0"/>
      <point x="172.0" y="514.0" type="curve"/>
      <point x="236.0" y="568.0"/>
      <point x="300.0" y="593.0"/>
      <point x="389.0" y="593.0" type="curve" smooth="yes"/>
      <point x="583.0" y="593.0"/>
      <point x="668.0" y="475.0"/>
      <point x="668.0" y="276.0" type="curve" smooth="yes"/>
      <point x="668.0" y="149.0"/>
      <point x="619.144" y="61.276"/>
      <point x="587.141" y="19.185" type="curve"/>
      <point x="492.0" y="22.0" type="line"/>
      <point x="492.0" y="432.0" type="line"/>
      <point x="447.0" y="439.0"/>
      <point x="378.0" y="450.0"/>
      <point x="357.0" y="450.0" type="curve" smooth="yes"/>
      <point x="338.0" y="450.0"/>
      <point x="275.0" y="419.0"/>
      <point x="236.0" y="359.0" type="curve"/>
      <point x="218.0" y="324.0"/>
      <point x="202.0" y="269.0"/>
      <point x="202.0" y="195.0" type="curve" smooth="yes"/>
      <point x="202.0" y="94.0"/>
      <point x="235.0" y="-10.0"/>
      <point x="364.0" y="-10.0" type="curve" smooth="yes"/>
      <point x="372.0" y="-10.0"/>
      <point x="427.0" y="38.0"/>
      <point x="465.0" y="69.0" type="curve"/>
      <point x="463.0" y="7.0" type="line" smooth="yes"/>
      <point x="463.0" y="3.0"/>
      <point x="480.0" y="-10.0"/>
      <point x="483.0" y="-10.0" type="curve" smooth="yes"/>
      <point x="490.0" y="-10.0"/>
      <point x="548.0" y="-7.0"/>
      <point x="604.0" y="2.0" type="curve"/>
      <point x="663.0" y="77.0"/>
      <point x="696.0" y="180.0"/>
      <point x="696.0" y="288.0" type="curve" smooth="yes"/>
      <point x="696.0" y="493.0"/>
      <point x="596.0" y="620.0"/>
      <point x="388.0" y="620.0" type="curve" smooth="yes"/>
      <point x="159.0" y="620.0"/>
      <point x="46.0" y="445.0"/>
      <point x="46.0" y="229.0" type="curve" smooth="yes"/>
      <point x="46.0" y="6.0"/>
      <point x="143.0" y="-162.0"/>
    </contour>
    <contour>
      <point x="357.0" y="17.0" type="curve" smooth="yes"/>
      <point x="287.0" y="17.0"/>
      <point x="231.0" y="58.0"/>
      <point x="231.0" y="207.0" type="curve" smooth="yes"/>
      <point x="231.0" y="398.0"/>
      <point x="344.0" y="425.0"/>
      <point x="363.0" y="425.0" type="curve" smooth="yes"/>
      <point x="383.0" y="425.0"/>
      <point x="427.0" y="416.0"/>
      <point x="463.0" y="409.0" type="curve"/>
      <point x="463.0" y="98.0" type="line"/>
      <point x="427.0" y="68.0"/>
      <point x="368.0" y="17.0"/>
    </contour>
  </outline>
</glyph>
<glyph name="A" format="2">
  <advance width="538.0"/>
  <unicode hex="0041"/>
  <anchor x="265.0" y="0.0" name="bottom"/>
  <anchor x="432.0" y="0.0" name="ogonek"/>
  <anchor x="267.0" y="591.0" name="top"/>
  <outline>
    <contour>
      <point x="22.0" y="0.0" type="line"/>
      <point x="170.0" y="0.0" type="line"/>
      <point x="170.0" y="18.0" type="line"/>
      <point x="109.0" y="27.0" type="line"/>
      <point x="161.0" y="212.0" type="line"/>
      <point x="372.0" y="212.0" type="line"/>
      <point x="425.0" y="27.0" type="line"/>
      <point x="365.0" y="18.0" type="line"/>
      <point x="365.0" y="0.0" type="line"/>
      <point x="513.0" y="0.0" type="line"/>
      <point x="513.0" y="17.0" type="line"/>
      <point x="456.0" y="25.0" type="line"/>
      <point x="293.0" y="593.0" type="line"/>
      <point x="293.0" y="593.0"/>
      <point x="282.0" y="601.0"/>
      <point x="279.0" y="601.0" type="curve" smooth="yes"/>
      <point x="274.0" y="601.0"/>
      <point x="243.0" y="596.0"/>
      <point x="243.0" y="596.0" type="curve"/>
      <point x="79.0" y="25.0" type="line"/>
      <point x="22.0" y="17.0" type="line"/>
    </contour>
    <contour>
      <point x="168.0" y="239.0" type="line"/>
      <point x="262.0" y="570.0" type="line"/>
      <point x="271.0" y="570.0" type="line"/>
      <point x="365.0" y="239.0" type="line"/>
    </contour>
  </outline>
</glyph>
<glyph name="B" format="2">
  <advance width="480.0"/>
  <unicode hex="0042"/>
  <outline>
    <contour>
      <point x="47.0" y="0.0" type="line"/>
      <point x="258.0" y="0.0" type="line" smooth="yes"/>
      <point x="351.0" y="0.0"/>
      <point x="435.0" y="26.0"/>
      <point x="435.0" y="164.0" type="curve" smooth="yes"/>
      <point x="435.0" y="240.0"/>
      <point x="393.0" y="290.0"/>
      <point x="315.0" y="304.0" type="curve"/>
      <point x="315.0" y="309.0" type="line"/>
      <point x="340.0" y="319.0"/>
      <point x="395.0" y="352.0"/>
      <point x="395.0" y="447.0" type="curve" smooth="yes"/>
      <point x="395.0" y="559.0"/>
      <point x="344.0" y="591.0"/>
      <point x="251.0" y="591.0" type="curve" smooth="yes"/>
      <point x="47.0" y="591.0" type="line"/>
      <point x="47.0" y="574.0" type="line"/>
      <point x="104.0" y="566.0" type="line"/>
      <point x="104.0" y="25.0" type="line"/>
      <point x="47.0" y="17.0" type="line"/>
    </contour>
    <contour>
      <point x="267.0" y="27.0" type="curve" smooth="yes"/>
      <point x="134.0" y="27.0" type="line"/>
      <point x="134.0" y="288.0" type="line"/>
      <point x="277.0" y="288.0" type="line" smooth="yes"/>
      <point x="307.0" y="288.0"/>
      <point x="405.0" y="274.0"/>
      <point x="405.0" y="165.0" type="curve" smooth="yes"/>
      <point x="405.0" y="63.0"/>
      <point x="362.0" y="27.0"/>
    </contour>
    <contour>
      <point x="134.0" y="315.0" type="line"/>
      <point x="134.0" y="564.0" type="line"/>
      <point x="259.0" y="564.0" type="line" smooth="yes"/>
      <point x="343.0" y="564.0"/>
      <point x="365.0" y="517.0"/>
      <point x="365.0" y="442.0" type="curve" smooth="yes"/>
      <point x="365.0" y="346.0"/>
      <point x="306.0" y="315.0"/>
      <point x="248.0" y="315.0" type="curve" smooth="yes"/>
    </contour>
  </outline>
</glyph>
<glyph name="C" format="2">
  <advance width="431.0"/>
  <unicode hex="0043"/>
  <anchor x="255.0" y="0.0" name="bottom"/>
  <anchor x="261.0" y="591.0" name="top"/>
  <outline>
    <contour>
      <point x="272.0" y="-10.0" type="curve" smooth="yes"/>
      <point x="324.0" y="-10.0"/>
      <point x="377.0" y="-4.0"/>
      <point x="378.0" y="-4.0" type="curve"/>
      <point x="379.0" y="132.0" type="line"/>
      <point x="361.0" y="132.0" type="line"/>
      <point x="350.0" y="15.0" type="line"/>
      <point x="279.0" y="15.0" type="line" smooth="yes"/>
      <point x="156.0" y="15.0"/>
      <point x="85.0" y="96.0"/>
      <point x="85.0" y="301.0" type="curve" smooth="yes"/>
      <point x="85.0" y="424.0"/>
      <point x="121.0" y="482.0"/>
      <point x="160.0" y="517.0" type="curve" smooth="yes"/>
      <point x="202.0" y="555.0"/>
      <point x="236.0" y="572.0"/>
      <point x="254.0" y="572.0" type="curve" smooth="yes"/>
      <point x="279.0" y="572.0"/>
      <point x="333.0" y="567.0"/>
      <point x="346.0" y="564.0" type="curve"/>
      <point x="353.0" y="461.0" type="line"/>
      <point x="372.0" y="461.0" type="line"/>
      <point x="378.0" y="587.0" type="line"/>
      <point x="350.0" y="592.0"/>
      <point x="279.0" y="601.0"/>
      <point x="250.0" y="601.0" type="curve" smooth="yes"/>
      <point x="221.0" y="601.0"/>
      <point x="136.0" y="549.0"/>
      <point x="90.0" y="475.0" type="curve"/>
      <point x="66.0" y="426.0"/>
      <point x="55.0" y="358.0"/>
      <point x="55.0" y="280.0" type="curve" smooth="yes"/>
      <point x="55.0" y="106.0"/>
      <point x="125.0" y="-10.0"/>
    </contour>
  </outline>
</glyph>
<glyph name="D" format="2">
  <advance width="512.0"/>
  <unicode hex="0044"/>
  <anchor x="256.0" y="0.0" name="bottom"/>
  <anchor x="144.0" y="308.0" name="center"/>
  <anchor x="254.0" y="591.0" name="top"/>
  <outline>
    <contour>
      <point x="47.0" y="0.0" type="line"/>
      <point x="256.0" y="0.0" type="line" smooth="yes"/>
      <point x="381.0" y="0.0"/>
      <point x="457.0" y="94.0"/>
      <point x="457.0" y="310.0" type="curve" smooth="yes"/>
      <point x="457.0" y="525.0"/>
      <point x="352.0" y="591.0"/>
      <point x="256.0" y="591.0" type="curve" smooth="yes"/>
      <point x="47.0" y="591.0" type="line"/>
      <point x="47.0" y="574.0" type="line"/>
      <point x="104.0" y="566.0" type="line"/>
      <point x="104.0" y="25.0" type="line"/>
      <point x="47.0" y="17.0" type="line"/>
    </contour>
    <contour>
      <point x="262.0" y="27.0" type="curve" smooth="yes"/>
      <point x="134.0" y="27.0" type="line"/>
      <point x="134.0" y="564.0" type="line"/>
      <point x="262.0" y="564.0" type="line" smooth="yes"/>
      <point x="348.0" y="564.0"/>
      <point x="427.0" y="488.0"/>
      <point x="427.0" y="308.0" type="curve" smooth="yes"/>
      <point x="427.0" y="87.0"/>
      <point x="349.0" y="27.0"/>
    </contour>
  </outline>
</glyph>
<glyph name="E" format="2">
  <advance width="437.0"/>
  <unicode hex="0045"/>
  <anchor x="248.0" y="0.0" name="bottom"/>
  <anchor x="371.0" y="0.0" name="ogonek"/>
  <anchor x="232.0" y="591.0" name="top"/>
  <outline>
    <contour>
      <point x="47.0" y="0.0" type="line"/>
      <point x="392.0" y="0.0" type="line"/>
      <point x="389.0" y="122.0" type="line"/>
      <point x="370.0" y="122.0" type="line"/>
      <point x="360.0" y="27.0" type="line"/>
      <point x="134.0" y="27.0" type="line"/>
      <point x="134.0" y="300.0" type="line"/>
      <point x="297.0" y="302.0" type="line"/>
      <point x="297.0" y="325.0" type="line"/>
      <point x="134.0" y="327.0" type="line"/>
      <point x="134.0" y="564.0" type="line"/>
      <point x="352.0" y="564.0" type="line"/>
      <point x="359.0" y="469.0" type="line"/>
      <point x="378.0" y="469.0" type="line"/>
      <point x="384.0" y="591.0" type="line"/>
      <point x="47.0" y="591.0" type="line"/>
      <point x="47.0" y="574.0" type="line"/>
      <point x="104.0" y="566.0" type="line"/>
      <point x="104.0" y="25.0" type="line"/>
      <point x="47.0" y="17.0" type="line"/>
    </contour>
  </outline>
</glyph>
<glyph name="F" format="2">
  <advance width="406.0"/>
  <unicode hex="0046"/>
  <outline>
    <contour>
      <point x="47.0" y="0.0" type="line"/>
      <point x="209.0" y="0.0" type="line"/>
      <point x="209.0" y="18.0" type="line"/>
      <point x="134.0" y="27.0" type="line"/>
      <point x="134.0" y="284.0" type="line"/>
      <point x="283.0" y="286.0" type="line"/>
      <point x="283.0" y="309.0" type="line"/>
      <point x="134.0" y="311.0" type="line"/>
      <point x="134.0" y="564.0" type="line"/>
      <point x="344.0" y="564.0" type="line"/>
      <point x="351.0" y="461.0" type="line"/>
      <point x="370.0" y="461.0" type="line"/>
      <point x="376.0" y="591.0" type="line"/>
      <point x="47.0" y="591.0" type="line"/>
      <point x="47.0" y="574.0" type="line"/>
      <point x="104.0" y="566.0" type="line"/>
      <point x="104.0" y="25.0" type="line"/>
      <point x="47.0" y="17.0" type="line"/>
    </contour>
  </outline>
</glyph>
<glyph name="G" format="2">
  <advance width="479.0"/>
  <unicode hex="0047"/>
  <anchor x="261.0" y="0.0" name="bottom"/>
  <anchor x="264.0" y="591.0" name="top"/>
  <outline>
    <contour>
      <point x="267.0" y="-10.0" type="curve" smooth="yes"/>
      <point x="290.0" y="-9.0"/>
      <point x="386.0" y="9.0"/>
      <point x="402.0" y="15.0" type="curve"/>
      <point x="402.0" y="262.0" type="line"/>
      <point x="459.0" y="267.0" type="line"/>
      <point x="459.0" y="287.0" type="line"/>
      <point x="281.0" y="287.0" type="line"/>
      <point x="281.0" y="266.0" type="line"/>
      <point x="372.0" y="259.0" type="line"/>
      <point x="372.0" y="31.0" type="line"/>
      <point x="270.0" y="16.0" type="line"/>
      <point x="167.0" y="15.0"/>
      <point x="85.0" y="70.0"/>
      <point x="85.0" y="301.0" type="curve" smooth="yes"/>
      <point x="85.0" y="424.0"/>
      <point x="121.0" y="482.0"/>
      <point x="160.0" y="517.0" type="curve" smooth="yes"/>
      <point x="202.0" y="555.0"/>
      <point x="236.0" y="572.0"/>
      <point x="254.0" y="572.0" type="curve" smooth="yes"/>
      <point x="288.0" y="572.0"/>
      <point x="349.0" y="564.0"/>
      <point x="369.0" y="560.0" type="curve"/>
      <point x="376.0" y="461.0" type="line"/>
      <point x="395.0" y="461.0" type="line"/>
      <point x="401.0" y="583.0" type="line"/>
      <point x="372.0" y="589.0"/>
      <point x="283.0" y="601.0"/>
      <point x="250.0" y="601.0" type="curve" smooth="yes"/>
      <point x="221.0" y="601.0"/>
      <point x="136.0" y="549.0"/>
      <point x="90.0" y="475.0" type="curve"/>
      <point x="66.0" y="426.0"/>
      <point x="55.0" y="358.0"/>
      <point x="55.0" y="280.0" type="curve" smooth="yes"/>
      <point x="55.0" y="95.0"/>
      <point x="127.0" y="-15.0"/>
    </contour>
  </outline>
</glyph>
<glyph name="H" format="2">
  <advance width="545.0"/>
  <unicode hex="0048"/>
  <anchor x="274.0" y="0.0" name="bottom"/>
  <anchor x="270.0" y="441.0" name="center"/>
  <anchor x="271.0" y="591.0" name="top"/>
  <outline>
    <contour>
      <point x="47.0" y="0.0" type="line"/>
      <point x="195.0" y="0.0" type="line"/>
      <point x="195.0" y="18.0" type="line"/>
      <point x="134.0" y="27.0" type="line"/>
      <point x="134.0" y="292.0" type="line"/>
      <point x="411.0" y="292.0" type="line"/>
      <point x="411.0" y="27.0" type="line"/>
      <point x="350.0" y="18.0" type="line"/>
      <point x="350.0" y="0.0" type="line"/>
      <point x="498.0" y="0.0" type="line"/>
      <point x="498.0" y="17.0" type="line"/>
      <point x="441.0" y="25.0" type="line"/>
      <point x="441.0" y="566.0" type="line"/>
      <point x="498.0" y="574.0" type="line"/>
      <point x="498.0" y="591.0" type="line"/>
      <point x="350.0" y="591.0" type="line"/>
      <point x="350.0" y="573.0" type="line"/>
      <point x="411.0" y="564.0" type="line"/>
      <point x="411.0" y="319.0" type="line"/>
      <point x="134.0" y="319.0" type="line"/>
      <point x="134.0" y="564.0" type="line"/>
      <point x="195.0" y="573.0" type="line"/>
      <point x="195.0" y="591.0" type="line"/>
      <point x="47.0" y="591.0" type="line"/>
      <point x="47.0" y="574.0" type="line"/>
      <point x="104.0" y="566.0" type="line"/>
      <point x="104.0" y="25.0" type="line"/>
      <point x="47.0" y="17.0" type="line"/>
    </contour>
  </outline>
</glyph>
<glyph name="I" format="2">
  <advance width="242.0"/>
  <unicode hex="0049"/>
  <anchor x="118.0" y="0.0" name="bottom"/>
  <anchor x="170.0" y="0.0" name="ogonek"/>
  <anchor x="120.0" y="591.0" name="top"/>
  <outline>
    <contour>
      <point x="47.0" y="0.0" type="line"/>
      <point x="195.0" y="0.0" type="line"/>
      <point x="195.0" y="18.0" type="line"/>
      <point x="134.0" y="27.0" type="line"/>
      <point x="134.0" y="564.0" type="line"/>
      <point x="195.0" y="573.0" type="line"/>
      <point x="195.0" y="591.0" type="line"/>
      <point x="47.0" y="591.0" type="line"/>
      <point x="47.0" y="574.0" type="line"/>
      <point x="104.0" y="566.0" type="line"/>
      <point x="104.0" y="25.0" type="line"/>
      <point x="47.0" y="17.0" type="line"/>
    </contour>
  </outline>
</glyph>
<glyph name="J" format="2">
  <advance width="232.0"/>
  <unicode hex="004A"/>
  <anchor x="120.0" y="591.0" name="top"/>
  <outline>
    <contour>
      <point x="51.0" y="-115.0" type="curve" smooth="yes"/>
      <point x="82.0" y="-115.0"/>
      <point x="135.0" y="-53.0"/>
      <point x="135.0" y="19.0" type="curve" smooth="yes"/>
      <point x="135.0" y="564.0" type="line"/>
      <point x="196.0" y="573.0" type="line"/>
      <point x="196.0" y="591.0" type="line"/>
      <point x="48.0" y="591.0" type="line"/>
      <point x="48.0" y="574.0" type="line"/>
      <point x="105.0" y="566.0" type="line"/>
      <point x="105.0" y="17.0" type="line" smooth="yes"/>
      <point x="105.0" y="-53.0"/>
      <point x="56.0" y="-87.0"/>
      <point x="51.0" y="-87.0" type="curve" smooth="yes"/>
      <point x="41.0" y="-87.0"/>
      <point x="-1.0" y="-87.0"/>
      <point x="-15.0" y="-87.0" type="curve"/>
      <point x="-15.0" y="-106.0" type="line"/>
      <point x="3.0" y="-109.0"/>
      <point x="40.0" y="-115.0"/>
    </contour>
  </outline>
</glyph>
<glyph name="K" format="2">
  <advance width="512.0"/>
  <unicode hex="004B"/>
  <anchor x="254.0" y="0.0" name="bottom"/>
  <outline>
    <contour>
      <point x="407.0" y="0.0" type="curve"/>
      <point x="482.0" y="0.0" type="line"/>
      <point x="482.0" y="20.0" type="line"/>
      <point x="426.0" y="25.0" type="line"/>
      <point x="384.0" y="86.0"/>
      <point x="279.0" y="233.0"/>
      <point x="225.0" y="311.0" type="curve"/>
      <point x="407.0" y="566.0" type="line"/>
      <point x="463.0" y="574.0" type="line"/>
      <point x="463.0" y="591.0" type="line"/>
      <point x="315.0" y="591.0" type="line"/>
      <point x="315.0" y="573.0" type="line"/>
      <point x="371.0" y="564.0" type="line"/>
      <point x="195.0" y="317.0" type="line"/>
      <point x="195.0" y="302.0" type="line"/>
      <point x="264.0" y="203.0"/>
      <point x="370.0" y="54.0"/>
    </contour>
    <contour>
      <point x="47.0" y="0.0" type="line"/>
      <point x="195.0" y="0.0" type="line"/>
      <point x="195.0" y="18.0" type="line"/>
      <point x="134.0" y="27.0" type="line"/>
      <point x="134.0" y="564.0" type="line"/>
      <point x="195.0" y="573.0" type="line"/>
      <point x="195.0" y="591.0" type="line"/>
      <point x="47.0" y="591.0" type="line"/>
      <point x="47.0" y="574.0" type="line"/>
      <point x="104.0" y="566.0" type="line"/>
      <point x="104.0" y="25.0" type="line"/>
      <point x="47.0" y="17.0" type="line"/>
    </contour>
  </outline>
</glyph>
<glyph name="L" format="2">
  <advance width="402.0"/>
  <unicode hex="004C"/>
  <anchor x="230.0" y="0.0" name="bottom"/>
  <anchor x="161.0" y="305.0" name="center"/>
  <anchor x="120.0" y="591.0" name="top"/>
  <anchor x="312.0" y="448.0" name="topright"/>
  <outline>
    <contour>
      <point x="47.0" y="0.0" type="line"/>
      <point x="372.0" y="0.0" type="line"/>
      <point x="369.0" y="142.0" type="line"/>
      <point x="350.0" y="142.0" type="line"/>
      <point x="340.0" y="27.0" type="line"/>
      <point x="134.0" y="27.0" type="line"/>
      <point x="134.0" y="564.0" type="line"/>
      <point x="205.0" y="573.0" type="line"/>
      <point x="205.0" y="591.0" type="line"/>
      <point x="47.0" y="591.0" type="line"/>
      <point x="47.0" y="574.0" type="line"/>
      <point x="104.0" y="566.0" type="line"/>
      <point x="104.0" y="25.0" type="line"/>
      <point x="47.0" y="17.0" type="line"/>
    </contour>
  </outline>
</glyph>
<glyph name="M" format="2">
  <advance width="657.0"/>
  <unicode hex="004D"/>
  <outline>
    <contour>
      <point x="44.0" y="0.0" type="line"/>
      <point x="192.0" y="0.0" type="line"/>
      <point x="192.0" y="18.0" type="line"/>
      <point x="131.0" y="27.0" type="line"/>
      <point x="148.0" y="542.0" type="line"/>
      <point x="154.0" y="542.0" type="line"/>
      <point x="154.0" y="542.0"/>
      <point x="205.0" y="373.0"/>
      <point x="227.0" y="304.0" type="curve" smooth="yes"/>
      <point x="309.0" y="49.0" type="line"/>
      <point x="309.0" y="49.0"/>
      <point x="319.0" y="41.0"/>
      <point x="323.0" y="41.0" type="curve" smooth="yes"/>
      <point x="329.0" y="41.0"/>
      <point x="355.0" y="46.0"/>
      <point x="355.0" y="46.0" type="curve"/>
      <point x="438.0" y="304.0" type="line" smooth="yes"/>
      <point x="462.0" y="379.0"/>
      <point x="510.0" y="542.0"/>
      <point x="510.0" y="542.0" type="curve"/>
      <point x="516.0" y="542.0" type="line"/>
      <point x="534.0" y="27.0" type="line"/>
      <point x="473.0" y="18.0" type="line"/>
      <point x="473.0" y="0.0" type="line"/>
      <point x="621.0" y="0.0" type="line"/>
      <point x="621.0" y="17.0" type="line"/>
      <point x="564.0" y="25.0" type="line"/>
      <point x="545.0" y="566.0" type="line"/>
      <point x="602.0" y="574.0" type="line"/>
      <point x="602.0" y="591.0" type="line"/>
      <point x="497.0" y="591.0" type="line"/>
      <point x="337.0" y="68.0" type="line"/>
      <point x="331.0" y="68.0" type="line"/>
      <point x="167.0" y="591.0" type="line"/>
      <point x="64.0" y="591.0" type="line"/>
      <point x="64.0" y="574.0" type="line"/>
      <point x="121.0" y="566.0" type="line"/>
      <point x="101.0" y="25.0" type="line"/>
      <point x="44.0" y="17.0" type="line"/>
    </contour>
  </outline>
</glyph>
<glyph name="N" format="2">
  <advance width="532.0"/>
  <unicode hex="004E"/>
  <anchor x="271.0" y="0.0" name="bottom"/>
  <anchor x="267.0" y="591.0" name="top"/>
  <outline>
    <contour>
      <point x="399.0" y="-10.0" type="curve" smooth="yes"/>
      <point x="404.0" y="-10.0"/>
      <point x="435.0" y="-5.0"/>
      <point x="435.0" y="-5.0" type="curve"/>
      <point x="435.0" y="566.0" type="line"/>
      <point x="492.0" y="574.0" type="line"/>
      <point x="492.0" y="591.0" type="line"/>
      <point x="344.0" y="591.0" type="line"/>
      <point x="344.0" y="573.0" type="line"/>
      <point x="405.0" y="564.0" type="line"/>
      <point x="405.0" y="544.0" type="line"/>
      <point x="408.0" y="18.0" type="line"/>
      <point x="402.0" y="18.0" type="line"/>
      <point x="402.0" y="18.0"/>
      <point x="378.0" y="85.0"/>
      <point x="360.0" y="123.0" type="curve" smooth="yes"/>
      <point x="143.0" y="591.0" type="line"/>
      <point x="47.0" y="591.0" type="line"/>
      <point x="47.0" y="574.0" type="line"/>
      <point x="104.0" y="566.0" type="line"/>
      <point x="104.0" y="25.0" type="line"/>
      <point x="47.0" y="17.0" type="line"/>
      <point x="47.0" y="0.0" type="line"/>
      <point x="195.0" y="0.0" type="line"/>
      <point x="195.0" y="18.0" type="line"/>
      <point x="134.0" y="27.0" type="line"/>
      <point x="134.0" y="46.0" type="line"/>
      <point x="131.0" y="542.0" type="line"/>
      <point x="137.0" y="542.0" type="line"/>
      <point x="137.0" y="542.0"/>
      <point x="161.0" y="481.0"/>
      <point x="176.0" y="448.0" type="curve" smooth="yes"/>
      <point x="385.0" y="-2.0" type="line"/>
      <point x="385.0" y="-2.0"/>
      <point x="396.0" y="-10.0"/>
    </contour>
  </outline>
</glyph>
<glyph name="O" format="2">
  <advance width="530.0"/>
  <unicode hex="004F"/>
  <anchor x="266.0" y="0.0" name="bottom"/>
  <anchor x="255.0" y="307.0" name="center"/>
  <anchor x="291.0" y="0.0" name="ogonek"/>
  <anchor x="270.0" y="591.0" name="top"/>
  <anchor x="321.0" y="591.0" name="topright"/>
  <outline>
    <contour>
      <point x="275.0" y="-10.0" type="curve" smooth="yes"/>
      <point x="314.0" y="-10.0"/>
      <point x="402.0" y="46.0"/>
      <point x="433.0" y="101.0" type="curve"/>
      <point x="457.0" y="149.0"/>
      <point x="475.0" y="225.0"/>
      <point x="475.0" y="305.0" type="curve" smooth="yes"/>
      <point x="475.0" y="488.0"/>
      <point x="412.0" y="601.0"/>
      <point x="250.0" y="601.0" type="curve" smooth="yes"/>
      <point x="221.0" y="601.0"/>
      <point x="136.0" y="549.0"/>
      <point x="90.0" y="475.0" type="curve"/>
      <point x="66.0" y="426.0"/>
      <point x="55.0" y="358.0"/>
      <point x="55.0" y="280.0" type="curve" smooth="yes"/>
      <point x="55.0" y="130.0"/>
      <point x="103.0" y="-10.0"/>
    </contour>
    <contour>
      <point x="273.0" y="20.0" type="curve" smooth="yes"/>
      <point x="178.0" y="20.0"/>
      <point x="85.0" y="60.0"/>
      <point x="85.0" y="301.0" type="curve" smooth="yes"/>
      <point x="85.0" y="424.0"/>
      <point x="121.0" y="482.0"/>
      <point x="160.0" y="517.0" type="curve" smooth="yes"/>
      <point x="202.0" y="555.0"/>
      <point x="236.0" y="572.0"/>
      <point x="254.0" y="572.0" type="curve" smooth="yes"/>
      <point x="401.0" y="572.0"/>
      <point x="445.0" y="458.0"/>
      <point x="445.0" y="295.0" type="curve" smooth="yes"/>
      <point x="445.0" y="228.0"/>
      <point x="424.0" y="132.0"/>
      <point x="408.0" y="110.0" type="curve"/>
      <point x="377.0" y="62.0"/>
      <point x="307.0" y="20.0"/>
    </contour>
  </outline>
</glyph>
<glyph name="P" format="2">
  <advance width="465.0"/>
  <unicode hex="0050"/>
  <outline>
    <contour>
      <point x="47.0" y="0.0" type="line"/>
      <point x="209.0" y="0.0" type="line"/>
      <point x="209.0" y="18.0" type="line"/>
      <point x="134.0" y="27.0" type="line"/>
      <point x="134.0" y="236.0" type="line"/>
      <point x="270.0" y="236.0" type="line" smooth="yes"/>
      <point x="374.0" y="236.0"/>
      <point x="425.0" y="325.0"/>
      <point x="425.0" y="423.0" type="curve" smooth="yes"/>
      <point x="425.0" y="564.0"/>
      <point x="354.0" y="591.0"/>
      <point x="273.0" y="591.0" type="curve" smooth="yes"/>
      <point x="47.0" y="591.0" type="line"/>
      <point x="47.0" y="574.0" type="line"/>
      <point x="104.0" y="566.0" type="line"/>
      <point x="104.0" y="25.0" type="line"/>
      <point x="47.0" y="17.0" type="line"/>
    </contour>
    <contour>
      <point x="134.0" y="263.0" type="line"/>
      <point x="134.0" y="564.0" type="line"/>
      <point x="282.0" y="564.0" type="line" smooth="yes"/>
      <point x="360.0" y="564.0"/>
      <point x="395.0" y="528.0"/>
      <point x="395.0" y="422.0" type="curve" smooth="yes"/>
      <point x="395.0" y="311.0"/>
      <point x="339.0" y="263.0"/>
      <point x="280.0" y="263.0" type="curve" smooth="yes"/>
    </contour>
  </outline>
</glyph>
<glyph name="R" format="2">
  <advance width="503.0"/>
  <unicode hex="0052"/>
  <anchor x="259.0" y="0.0" name="bottom"/>
  <anchor x="237.0" y="591.0" name="top"/>
  <outline>
    <contour>
      <point x="47.0" y="0.0" type="line"/>
      <point x="195.0" y="0.0" type="line"/>
      <point x="195.0" y="18.0" type="line"/>
      <point x="134.0" y="27.0" type="line"/>
      <point x="134.0" y="260.0" type="line"/>
      <point x="256.0" y="260.0" type="line"/>
      <point x="307.0" y="167.0"/>
      <point x="369.0" y="52.0"/>
      <point x="397.0" y="0.0" type="curve"/>
      <point x="473.0" y="0.0" type="line"/>
      <point x="473.0" y="20.0" type="line"/>
      <point x="418.0" y="25.0" type="line"/>
      <point x="396.0" y="62.0"/>
      <point x="326.0" y="189.0"/>
      <point x="288.0" y="262.0" type="curve"/>
      <point x="288.0" y="265.0" type="line"/>
      <point x="373.0" y="279.0"/>
      <point x="415.0" y="351.0"/>
      <point x="415.0" y="429.0" type="curve" smooth="yes"/>
      <point x="415.0" y="565.0"/>
      <point x="344.0" y="591.0"/>
      <point x="263.0" y="591.0" type="curve" smooth="yes"/>
      <point x="47.0" y="591.0" type="line"/>
      <point x="47.0" y="574.0" type="line"/>
      <point x="104.0" y="566.0" type="line"/>
      <point x="104.0" y="25.0" type="line"/>
      <point x="47.0" y="17.0" type="line"/>
    </contour>
    <contour>
      <point x="134.0" y="287.0" type="line"/>
      <point x="134.0" y="564.0" type="line"/>
      <point x="272.0" y="564.0" type="line" smooth="yes"/>
      <point x="349.0" y="564.0"/>
      <point x="385.0" y="529.0"/>
      <point x="385.0" y="428.0" type="curve" smooth="yes"/>
      <point x="385.0" y="304.0"/>
      <point x="297.0" y="287.0"/>
      <point x="270.0" y="287.0" type="curve" smooth="yes"/>
    </contour>
  </outline>
</glyph>
<glyph name="S" format="2">
  <advance width="405.0"/>
  <unicode hex="0053"/>
  <anchor x="206.0" y="0.0" name="bottom"/>
  <anchor x="217.0" y="591.0" name="top"/>
  <outline>
    <contour>
      <point x="238.0" y="-10.0" type="curve" smooth="yes"/>
      <point x="285.0" y="-10.0"/>
      <point x="341.0" y="50.0"/>
      <point x="359.0" y="106.0" type="curve"/>
      <point x="363.0" y="121.0"/>
      <point x="363.0" y="138.0"/>
      <point x="363.0" y="151.0" type="curve" smooth="yes"/>
      <point x="363.0" y="238.0"/>
      <point x="277.0" y="273.0"/>
      <point x="203.0" y="317.0" type="curve" smooth="yes"/>
      <point x="113.0" y="370.0"/>
      <point x="87.0" y="394.0"/>
      <point x="87.0" y="467.0" type="curve" smooth="yes"/>
      <point x="87.0" y="521.0"/>
      <point x="165.0" y="574.0"/>
      <point x="183.0" y="574.0" type="curve" smooth="yes"/>
      <point x="201.0" y="574.0"/>
      <point x="276.0" y="566.0"/>
      <point x="306.0" y="559.0" type="curve"/>
      <point x="313.0" y="461.0" type="line"/>
      <point x="332.0" y="461.0" type="line"/>
      <point x="338.0" y="583.0" type="line"/>
      <point x="306.0" y="589.0"/>
      <point x="214.0" y="601.0"/>
      <point x="187.0" y="601.0" type="curve" smooth="yes"/>
      <point x="153.0" y="601.0"/>
      <point x="87.0" y="551.0"/>
      <point x="63.0" y="500.0" type="curve"/>
      <point x="59.0" y="484.0"/>
      <point x="57.0" y="470.0"/>
      <point x="57.0" y="454.0" type="curve" smooth="yes"/>
      <point x="57.0" y="370.0"/>
      <point x="122.0" y="332.0"/>
      <point x="196.0" y="288.0" type="curve" smooth="yes"/>
      <point x="280.0" y="238.0"/>
      <point x="333.0" y="221.0"/>
      <point x="333.0" y="133.0" type="curve" smooth="yes"/>
      <point x="333.0" y="79.0"/>
      <point x="272.0" y="18.0"/>
      <point x="242.0" y="18.0" type="curve" smooth="yes"/>
      <point x="211.0" y="18.0"/>
      <point x="125.0" y="24.0"/>
      <point x="87.0" y="30.0" type="curve"/>
      <point x="76.0" y="128.0" type="line"/>
      <point x="57.0" y="128.0" type="line"/>
      <point x="56.0" y="6.0" type="line"/>
      <point x="101.0" y="-1.0"/>
      <point x="211.0" y="-10.0"/>
    </contour>
  </outline>
</glyph>
<glyph name="T" format="2">
  <advance width="424.0"/>
  <unicode hex="0054"/>
  <anchor x="212.0" y="0.0" name="bottom"/>
  <anchor x="212.0" y="308.0" name="center"/>
  <anchor x="212.0" y="591.0" name="top"/>
  <outline>
    <contour>
      <point x="130.0" y="0.0" type="line"/>
      <point x="294.0" y="0.0" type="line"/>
      <point x="294.0" y="18.0" type="line"/>
      <point x="227.0" y="27.0" type="line"/>
      <point x="227.0" y="564.0" type="line"/>
      <point x="367.0" y="564.0" type="line"/>
      <point x="374.0" y="451.0" type="line"/>
      <point x="393.0" y="451.0" type="line"/>
      <point x="399.0" y="591.0" type="line"/>
      <point x="25.0" y="591.0" type="line"/>
      <point x="31.0" y="451.0" type="line"/>
      <point x="50.0" y="451.0" type="line"/>
      <point x="57.0" y="564.0" type="line"/>
      <point x="197.0" y="564.0" type="line"/>
      <point x="197.0" y="25.0" type="line"/>
      <point x="130.0" y="17.0" type="line"/>
    </contour>
  </outline>
</glyph>
<glyph name="V" format="2">
  <advance width="503.0"/>
  <unicode hex="0056"/>
  <outline>
    <contour>
      <point x="239.0" y="-10.0" type="curve" smooth="yes"/>
      <point x="244.0" y="-10.0"/>
      <point x="275.0" y="-5.0"/>
      <point x="275.0" y="-5.0" type="curve"/>
      <point x="325.0" y="185.0"/>
      <point x="374.0" y="376.0"/>
      <point x="424.0" y="566.0" type="curve"/>
      <point x="481.0" y="574.0" type="line"/>
      <point x="481.0" y="591.0" type="line"/>
      <point x="333.0" y="591.0" type="line"/>
      <point x="333.0" y="573.0" type="line"/>
      <point x="395.0" y="564.0" type="line"/>
      <point x="348.0" y="384.0"/>
      <point x="302.0" y="201.0"/>
      <point x="255.0" y="21.0" type="curve"/>
      <point x="247.0" y="21.0" type="line"/>
      <point x="247.0" y="21.0"/>
      <point x="217.0" y="141.0"/>
      <point x="200.0" y="208.0" type="curve"/>
      <point x="108.0" y="564.0" type="line"/>
      <point x="168.0" y="573.0" type="line"/>
      <point x="168.0" y="591.0" type="line"/>
      <point x="20.0" y="591.0" type="line"/>
      <point x="20.0" y="574.0" type="line"/>
      <point x="77.0" y="566.0" type="line"/>
      <point x="225.0" y="-2.0" type="line"/>
      <point x="225.0" y="-2.0"/>
      <point x="236.0" y="-10.0"/>
    </contour>
  </outline>
</glyph>
<glyph name="W" format="2">
  <advance width="740.0"/>
  <unicode hex="0057"/>
  <anchor x="369.0" y="591.0" name="top"/>
  <outline>
    <contour>
      <point x="234.0" y="-10.0" type="curve" smooth="yes"/>
      <point x="239.0" y="-10.0"/>
      <point x="270.0" y="-5.0"/>
      <point x="270.0" y="-5.0" type="curve"/>
      <point x="366.0" y="388.0" type="line"/>
      <point x="372.0" y="388.0" type="line"/>
      <point x="467.0" y="-2.0" type="line"/>
      <point x="467.0" y="-2.0"/>
      <point x="478.0" y="-10.0"/>
      <point x="481.0" y="-10.0" type="curve" smooth="yes"/>
      <point x="486.0" y="-10.0"/>
      <point x="517.0" y="-5.0"/>
      <point x="517.0" y="-5.0" type="curve"/>
      <point x="565.0" y="185.0"/>
      <point x="613.0" y="376.0"/>
      <point x="661.0" y="566.0" type="curve"/>
      <point x="718.0" y="573.0" type="line"/>
      <point x="718.0" y="591.0" type="line"/>
      <point x="563.0" y="591.0" type="line"/>
      <point x="563.0" y="574.0" type="line"/>
      <point x="632.0" y="564.0" type="line"/>
      <point x="587.0" y="384.0"/>
      <point x="542.0" y="201.0"/>
      <point x="497.0" y="21.0" type="curve"/>
      <point x="489.0" y="21.0" type="line"/>
      <point x="489.0" y="21.0"/>
      <point x="449.0" y="186.0"/>
      <point x="435.0" y="243.0" type="curve" smooth="yes"/>
      <point x="355.0" y="564.0" type="line"/>
      <point x="425.0" y="573.0" type="line"/>
      <point x="425.0" y="591.0" type="line"/>
      <point x="276.0" y="591.0" type="line"/>
      <point x="276.0" y="574.0" type="line"/>
      <point x="324.0" y="566.0" type="line"/>
      <point x="356.0" y="444.0" type="line"/>
      <point x="321.0" y="304.0"/>
      <point x="285.0" y="161.0"/>
      <point x="250.0" y="21.0" type="curve"/>
      <point x="242.0" y="21.0" type="line"/>
      <point x="242.0" y="21.0"/>
      <point x="202.0" y="188.0"/>
      <point x="188.0" y="243.0" type="curve" smooth="yes"/>
      <point x="108.0" y="564.0" type="line"/>
      <point x="163.0" y="573.0" type="line"/>
      <point x="163.0" y="591.0" type="line"/>
      <point x="20.0" y="591.0" type="line"/>
      <point x="20.0" y="574.0" type="line"/>
      <point x="77.0" y="566.0" type="line"/>
      <point x="220.0" y="-2.0" type="line"/>
      <point x="220.0" y="-2.0"/>
      <point x="231.0" y="-10.0"/>
    </contour>
  </outline>
</glyph>
<glyph name="X" format="2">
  <advance width="545.0"/>
  <unicode hex="0058"/>
  <outline>
    <contour>
      <point x="16.0" y="0.0" type="line"/>
      <point x="169.0" y="0.0" type="line"/>
      <point x="169.0" y="18.0" type="line"/>
      <point x="105.0" y="27.0" type="line"/>
      <point x="270.0" y="291.0" type="line"/>
      <point x="272.0" y="291.0" type="line"/>
      <point x="436.0" y="27.0" type="line"/>
      <point x="374.0" y="18.0" type="line"/>
      <point x="374.0" y="0.0" type="line"/>
      <point x="527.0" y="0.0" type="line"/>
      <point x="527.0" y="17.0" type="line"/>
      <point x="472.0" y="25.0" type="line"/>
      <point x="288.0" y="319.0" type="line"/>
      <point x="443.0" y="566.0" type="line"/>
      <point x="502.0" y="574.0" type="line"/>
      <point x="502.0" y="591.0" type="line"/>
      <point x="349.0" y="591.0" type="line"/>
      <point x="349.0" y="573.0" type="line"/>
      <point x="410.0" y="564.0" type="line"/>
      <point x="274.0" y="345.0" type="line"/>
      <point x="272.0" y="345.0" type="line"/>
      <point x="136.0" y="564.0" type="line"/>
      <point x="194.0" y="573.0" type="line"/>
      <point x="194.0" y="591.0" type="line"/>
      <point x="41.0" y="591.0" type="line"/>
      <point x="41.0" y="574.0" type="line"/>
      <point x="100.0" y="566.0" type="line"/>
      <point x="255.0" y="318.0" type="line"/>
      <point x="72.0" y="25.0" type="line"/>
      <point x="16.0" y="17.0" type="line"/>
    </contour>
  </outline>
</glyph>
<glyph name="Y" format="2">
  <advance width="503.0"/>
  <unicode hex="0059"/>
  <anchor x="251.0" y="0.0" name="bottom"/>
  <anchor x="255.0" y="591.0" name="top"/>
  <outline>
    <contour>
      <point x="179.0" y="0.0" type="line"/>
      <point x="327.0" y="0.0" type="line"/>
      <point x="327.0" y="18.0" type="line"/>
      <point x="266.0" y="27.0" type="line"/>
      <point x="266.0" y="239.0" type="line"/>
      <point x="319.0" y="348.0"/>
      <point x="373.0" y="457.0"/>
      <point x="426.0" y="566.0" type="curve"/>
      <point x="482.0" y="574.0" type="line"/>
      <point x="482.0" y="591.0" type="line"/>
      <point x="334.0" y="591.0" type="line"/>
      <point x="334.0" y="573.0" type="line"/>
      <point x="395.0" y="564.0" type="line"/>
      <point x="349.0" y="467.0"/>
      <point x="302.0" y="370.0"/>
      <point x="256.0" y="273.0" type="curve"/>
      <point x="249.0" y="273.0" type="line"/>
      <point x="203.0" y="370.0"/>
      <point x="156.0" y="467.0"/>
      <point x="110.0" y="564.0" type="curve"/>
      <point x="169.0" y="573.0" type="line"/>
      <point x="169.0" y="591.0" type="line"/>
      <point x="21.0" y="591.0" type="line"/>
      <point x="21.0" y="574.0" type="line"/>
      <point x="77.0" y="566.0" type="line"/>
      <point x="236.0" y="239.0" type="line"/>
      <point x="236.0" y="25.0" type="line"/>
      <point x="179.0" y="17.0" type="line"/>
    </contour>
  </outline>
</glyph>
<glyph name="Z" format="2">
  <advance width="445.0"/>
  <unicode hex="005A"/>
  <anchor x="223.0" y="0.0" name="bottom"/>
  <anchor x="223.0" y="591.0" name="top"/>
  <outline>
    <contour>
      <point x="50.0" y="0.0" type="line"/>
      <point x="395.0" y="0.0" type="line"/>
      <point x="392.0" y="122.0" type="line"/>
      <point x="373.0" y="122.0" type="line"/>
      <point x="363.0" y="27.0" type="line"/>
      <point x="87.0" y="27.0" type="line"/>
      <point x="384.0" y="571.0" type="line"/>
      <point x="384.0" y="591.0" type="line"/>
      <point x="64.0" y="591.0" type="line"/>
      <point x="70.0" y="469.0" type="line"/>
      <point x="89.0" y="469.0" type="line"/>
      <point x="96.0" y="564.0" type="line"/>
      <point x="345.0" y="564.0" type="line"/>
      <point x="50.0" y="20.0" type="line"/>
    </contour>
  </outline>
</glyph>
<glyph name="bracketleft" format="2">
  <advance width="213.0"/>
  <unicode hex="005B"/>
  <outline>
    <contour>
      <point x="168.0" y="-107.0" type="line"/>
      <point x="170.0" y="-92.0" type="line"/>
      <point x="96.0" y="-80.0" type="line"/>
      <point x="96.0" y="648.0" type="line"/>
      <point x="170.0" y="659.0" type="line"/>
      <point x="168.0" y="675.0" type="line"/>
      <point x="70.0" y="669.0" type="line"/>
      <point x="70.0" y="-101.0" type="line"/>
    </contour>
  </outline>
</glyph>
<glyph name="backslash" format="2">
  <advance width="285.0"/>
  <unicode hex="005C"/>
  <outline>
    <contour>
      <point x="235.0" y="-118.0" type="line"/>
      <point x="259.0" y="-118.0" type="line"/>
      <point x="50.0" y="687.0" type="line"/>
      <point x="26.0" y="687.0" type="line"/>
    </contour>
  </outline>
</glyph>
<glyph name="bracketright" format="2">
  <advance width="213.0"/>
  <unicode hex="005D"/>
  <outline>
    <contour>
      <point x="45.0" y="-107.0" type="line"/>
      <point x="143.0" y="-101.0" type="line"/>
      <point x="143.0" y="669.0" type="line"/>
      <point x="45.0" y="675.0" type="line"/>
      <point x="43.0" y="660.0" type="line"/>
      <point x="117.0" y="648.0" type="line"/>
      <point x="117.0" y="-80.0" type="line"/>
      <point x="43.0" y="-91.0" type="line"/>
    </contour>
  </outline>
</glyph>
<glyph name="asciicircum" format="2">
  <advance width="488.0"/>
  <unicode hex="005E"/>
  <outline>
    <contour>
      <point x="77.0" y="266.0" type="line"/>
      <point x="244.0" y="584.0" type="line"/>
      <point x="411.0" y="266.0" type="line"/>
      <point x="428.0" y="275.0" type="line"/>
      <point x="257.0" y="603.0" type="line"/>
      <point x="231.0" y="603.0" type="line"/>
      <point x="60.0" y="275.0" type="line"/>
    </contour>
  </outline>
</glyph>
<glyph name="underscore" format="2">
  <advance width="414.0"/>
  <unicode hex="005F"/>
  <outline>
    <contour>
      <point x="35.0" y="-90.0" type="line"/>
      <point x="379.0" y="-90.0" type="line"/>
      <point x="379.0" y="-72.0" type="line"/>
      <point x="35.0" y="-72.0" type="line"/>
    </contour>
  </outline>
</glyph>
<glyph name="grave" format="2">
  <advance width="137.0"/>
  <unicode hex="0060"/>
  <outline>
    <contour>
      <point x="127.0" y="537.0" type="line"/>
      <point x="137.0" y="549.0" type="line"/>
      <point x="17.0" y="648.0" type="line"/>
      <point x="1.0" y="634.0" type="line"/>
      <point x="0.0" y="620.0" type="line"/>
    </contour>
  </outline>
</glyph>
<glyph name="b" format="2">
  <advance width="435.0"/>
  <unicode hex="0062"/>
  <outline>
    <contour>
      <point x="225.0" y="-10.0" type="curve" smooth="yes"/>
      <point x="244.0" y="-10.0"/>
      <point x="307.0" y="21.0"/>
      <point x="347.0" y="80.0" type="curve"/>
      <point x="364.0" y="114.0"/>
      <point x="380.0" y="171.0"/>
      <point x="380.0" y="245.0" type="curve" smooth="yes"/>
      <point x="380.0" y="346.0"/>
      <point x="347.0" y="450.0"/>
      <point x="218.0" y="450.0" type="curve" smooth="yes"/>
      <point x="210.0" y="450.0"/>
      <point x="158.0" y="405.0"/>
      <point x="120.0" y="374.0" type="curve"/>
      <point x="118.0" y="375.0" type="line"/>
      <point x="119.0" y="619.0" type="line" smooth="yes"/>
      <point x="119.0" y="623.0"/>
      <point x="102.0" y="636.0"/>
      <point x="99.0" y="636.0" type="curve" smooth="yes"/>
      <point x="91.0" y="636.0"/>
      <point x="49.0" y="628.0"/>
      <point x="32.0" y="624.0" type="curve"/>
      <point x="32.0" y="607.0" type="line"/>
      <point x="90.0" y="607.0" type="line"/>
      <point x="90.0" y="8.0" type="line"/>
      <point x="133.0" y="1.0"/>
      <point x="204.0" y="-10.0"/>
    </contour>
    <contour>
      <point x="239.0" y="21.0" type="curve" smooth="yes"/>
      <point x="213.0" y="9.0"/>
      <point x="154.0" y="23.0"/>
      <point x="119.0" y="31.0" type="curve"/>
      <point x="119.0" y="342.0" type="line"/>
      <point x="155.0" y="372.0"/>
      <point x="214.0" y="423.0"/>
      <point x="225.0" y="423.0" type="curve" smooth="yes"/>
      <point x="294.0" y="423.0"/>
      <point x="351.0" y="381.0"/>
      <point x="351.0" y="238.0" type="curve" smooth="yes"/>
      <point x="351.0" y="134.0"/>
      <point x="325.0" y="61.0"/>
    </contour>
  </outline>
</glyph>
<glyph name="c" format="2">
  <advance width="322.0"/>
  <unicode hex="0063"/>
  <anchor x="188.0" y="0.0" name="bottom"/>
  <anchor x="189.0" y="440.0" name="top"/>
  <outline>
    <contour>
      <point x="213.0" y="-10.0" type="curve" smooth="yes"/>
      <point x="225.0" y="-10.0"/>
      <point x="280.0" y="-2.0"/>
      <point x="296.0" y="1.0" type="curve"/>
      <point x="296.0" y="18.0" type="line"/>
      <point x="221.0" y="15.0" type="line"/>
      <point x="138.0" y="15.0"/>
      <point x="83.0" y="59.0"/>
      <point x="83.0" y="202.0" type="curve" smooth="yes"/>
      <point x="83.0" y="323.0"/>
      <point x="114.0" y="363.0"/>
      <point x="149.0" y="392.0" type="curve" smooth="yes"/>
      <point x="173.0" y="412.0"/>
      <point x="198.0" y="425.0"/>
      <point x="213.0" y="425.0" type="curve" smooth="yes"/>
      <point x="226.0" y="425.0"/>
      <point x="247.0" y="422.0"/>
      <point x="266.0" y="418.0" type="curve"/>
      <point x="273.0" y="332.0" type="line"/>
      <point x="292.0" y="332.0" type="line"/>
      <point x="294.0" y="440.0" type="line"/>
      <point x="266.0" y="445.0"/>
      <point x="222.0" y="450.0"/>
      <point x="209.0" y="450.0" type="curve" smooth="yes"/>
      <point x="190.0" y="450.0"/>
      <point x="125.0" y="419.0"/>
      <point x="86.0" y="360.0" type="curve"/>
      <point x="67.0" y="325.0"/>
      <point x="54.0" y="269.0"/>
      <point x="54.0" y="195.0" type="curve" smooth="yes"/>
      <point x="54.0" y="65.0"/>
      <point x="109.0" y="-10.0"/>
    </contour>
  </outline>
</glyph>
<glyph name="d" format="2">
  <advance width="438.0"/>
  <unicode hex="0064"/>
  <anchor x="218.0" y="0.0" name="bottom"/>
  <anchor x="301.0" y="525.0" name="center"/>
  <anchor x="208.0" y="750.0" name="top"/>
  <anchor x="416.0" y="440.0" name="topright"/>
  <outline>
    <contour>
      <point x="216.0" y="-10.0" type="curve" smooth="yes"/>
      <point x="223.0" y="-10.0"/>
      <point x="277.0" y="36.0"/>
      <point x="315.0" y="67.0" type="curve"/>
      <point x="315.0" y="7.0" type="line" smooth="yes"/>
      <point x="315.0" y="3.0"/>
      <point x="332.0" y="-10.0"/>
      <point x="335.0" y="-10.0" type="curve" smooth="yes"/>
      <point x="343.0" y="-10.0"/>
      <point x="402.0" y="2.0"/>
      <point x="402.0" y="2.0" type="curve"/>
      <point x="402.0" y="19.0" type="line"/>
      <point x="344.0" y="19.0" type="line"/>
      <point x="344.0" y="430.0" type="line"/>
      <point x="347.0" y="620.0" type="line" smooth="yes"/>
      <point x="347.0" y="624.0"/>
      <point x="330.0" y="637.0"/>
      <point x="327.0" y="637.0" type="curve" smooth="yes"/>
      <point x="318.0" y="637.0"/>
      <point x="257.0" y="625.0"/>
      <point x="257.0" y="625.0" type="curve"/>
      <point x="257.0" y="608.0" type="line"/>
      <point x="315.0" y="608.0" type="line"/>
      <point x="315.0" y="437.0" type="line"/>
      <point x="277.0" y="442.0"/>
      <point x="227.0" y="450.0"/>
      <point x="209.0" y="450.0" type="curve" smooth="yes"/>
      <point x="190.0" y="450.0"/>
      <point x="127.0" y="419.0"/>
      <point x="87.0" y="360.0" type="curve"/>
      <point x="70.0" y="326.0"/>
      <point x="54.0" y="269.0"/>
      <point x="54.0" y="195.0" type="curve" smooth="yes"/>
      <point x="54.0" y="94.0"/>
      <point x="87.0" y="-10.0"/>
    </contour>
    <contour>
      <point x="209.0" y="17.0" type="curve" smooth="yes"/>
      <point x="140.0" y="17.0"/>
      <point x="83.0" y="59.0"/>
      <point x="83.0" y="202.0" type="curve" smooth="yes"/>
      <point x="83.0" y="306.0"/>
      <point x="109.0" y="380.0"/>
      <point x="195.0" y="419.0" type="curve" smooth="yes"/>
      <point x="221.0" y="431.0"/>
      <point x="273.0" y="419.0"/>
      <point x="315.0" y="408.0" type="curve"/>
      <point x="315.0" y="98.0" type="line"/>
      <point x="278.0" y="66.0"/>
      <point x="219.0" y="17.0"/>
    </contour>
  </outline>
</glyph>
<glyph name="e" format="2">
  <advance width="384.0"/>
  <unicode hex="0065"/>
  <anchor x="221.0" y="0.0" name="bottom"/>
  <anchor x="312.0" y="8.0" name="ogonek"/>
  <anchor x="206.0" y="440.0" name="top"/>
  <outline>
    <contour>
      <point x="213.0" y="-10.0" type="curve" smooth="yes"/>
      <point x="242.0" y="-10.0"/>
      <point x="296.0" y="1.0"/>
      <point x="333.0" y="8.0" type="curve"/>
      <point x="333.0" y="26.0" type="line"/>
      <point x="304.0" y="23.0"/>
      <point x="229.0" y="15.0"/>
      <point x="221.0" y="15.0" type="curve" smooth="yes"/>
      <point x="138.0" y="15.0"/>
      <point x="83.0" y="61.0"/>
      <point x="83.0" y="213.0" type="curve"/>
      <point x="350.0" y="238.0" type="line"/>
      <point x="348.0" y="394.0"/>
      <point x="300.0" y="450.0"/>
      <point x="209.0" y="450.0" type="curve" smooth="yes"/>
      <point x="190.0" y="450.0"/>
      <point x="125.0" y="419.0"/>
      <point x="86.0" y="360.0" type="curve"/>
      <point x="67.0" y="325.0"/>
      <point x="54.0" y="269.0"/>
      <point x="54.0" y="205.0" type="curve" smooth="yes"/>
      <point x="54.0" y="69.0"/>
      <point x="103.0" y="-10.0"/>
    </contour>
    <contour>
      <point x="84.0" y="238.0" type="line"/>
      <point x="88.0" y="323.0"/>
      <point x="113.0" y="362.0"/>
      <point x="148.0" y="391.0" type="curve" smooth="yes"/>
      <point x="172.0" y="411.0"/>
      <point x="198.0" y="425.0"/>
      <point x="213.0" y="425.0" type="curve" smooth="yes"/>
      <point x="289.0" y="425.0"/>
      <point x="317.0" y="358.0"/>
      <point x="320.0" y="260.0" type="curve"/>
    </contour>
  </outline>
</glyph>
<glyph name="f" format="2">
  <advance width="190.0"/>
  <unicode hex="0066"/>
  <anchor x="127.0" y="611.0" name="top"/>
  <outline>
    <contour>
      <point x="88.0" y="-10.0" type="curve" smooth="yes"/>
      <point x="97.0" y="-10.0"/>
      <point x="155.0" y="2.0"/>
      <point x="155.0" y="2.0" type="curve"/>
      <point x="155.0" y="19.0" type="line"/>
      <point x="97.0" y="19.0" type="line"/>
      <point x="97.0" y="415.0" type="line"/>
      <point x="192.0" y="415.0" type="line"/>
      <point x="192.0" y="440.0" type="line"/>
      <point x="97.0" y="440.0" type="line"/>
      <point x="97.0" y="515.0" type="line" smooth="yes"/>
      <point x="97.0" y="586.0"/>
      <point x="127.0" y="611.0"/>
      <point x="131.0" y="611.0" type="curve" smooth="yes"/>
      <point x="155.0" y="611.0"/>
      <point x="235.0" y="600.0"/>
      <point x="235.0" y="600.0" type="curve"/>
      <point x="235.0" y="600.0"/>
      <point x="245.0" y="616.0"/>
      <point x="245.0" y="619.0" type="curve" smooth="yes"/>
      <point x="245.0" y="623.0"/>
      <point x="235.0" y="631.0"/>
      <point x="235.0" y="631.0" type="curve"/>
      <point x="235.0" y="631.0"/>
      <point x="170.0" y="637.0"/>
      <point x="137.0" y="637.0" type="curve" smooth="yes"/>
      <point x="98.0" y="637.0"/>
      <point x="68.0" y="580.0"/>
      <point x="68.0" y="513.0" type="curve" smooth="yes"/>
      <point x="68.0" y="442.0" type="line"/>
      <point x="20.0" y="435.0" type="line"/>
      <point x="20.0" y="415.0" type="line"/>
      <point x="68.0" y="415.0" type="line"/>
      <point x="68.0" y="7.0" type="line" smooth="yes"/>
      <point x="68.0" y="3.0"/>
      <point x="85.0" y="-10.0"/>
    </contour>
  </outline>
</glyph>
<glyph name="g" format="2">
  <advance width="387.0"/>
  <unicode hex="0067"/>
  <anchor x="215.0" y="440.0" name="top"/>
  <outline>
    <contour>
      <point x="262.0" y="-175.0" type="curve" smooth="yes"/>
      <point x="304.0" y="-175.0"/>
      <point x="331.0" y="-110.0"/>
      <point x="331.0" y="-52.0" type="curve" smooth="yes"/>
      <point x="331.0" y="434.0" type="line"/>
      <point x="287.0" y="441.0"/>
      <point x="224.0" y="450.0"/>
      <point x="203.0" y="450.0" type="curve" smooth="yes"/>
      <point x="182.0" y="450.0"/>
      <point x="121.0" y="422.0"/>
      <point x="83.0" y="361.0" type="curve"/>
      <point x="67.0" y="326.0"/>
      <point x="54.0" y="285.0"/>
      <point x="54.0" y="212.0" type="curve" smooth="yes"/>
      <point x="54.0" y="120.0"/>
      <point x="86.0" y="33.0"/>
      <point x="191.0" y="26.0" type="curve"/>
      <point x="47.0" y="-110.0" type="line"/>
      <point x="44.0" y="-139.0" type="line"/>
      <point x="88.0" y="-152.0"/>
      <point x="181.0" y="-175.0"/>
    </contour>
    <contour>
      <point x="265.0" y="-151.0" type="curve" smooth="yes"/>
      <point x="189.0" y="-151.0"/>
      <point x="98.0" y="-129.0"/>
      <point x="74.0" y="-122.0" type="curve"/>
      <point x="74.0" y="-119.0" type="line"/>
      <point x="110.0" y="-83.0"/>
      <point x="247.0" y="46.0"/>
      <point x="300.0" y="95.0" type="curve"/>
      <point x="302.0" y="93.0" type="line"/>
      <point x="302.0" y="-46.0" type="line" smooth="yes"/>
      <point x="302.0" y="-124.0"/>
      <point x="267.0" y="-151.0"/>
    </contour>
    <contour>
      <point x="209.0" y="51.0" type="curve" smooth="yes"/>
      <point x="144.0" y="51.0"/>
      <point x="83.0" y="77.0"/>
      <point x="83.0" y="219.0" type="curve" smooth="yes"/>
      <point x="83.0" y="367.0"/>
      <point x="149.0" y="403.0"/>
      <point x="185.0" y="418.0" type="curve" smooth="yes"/>
      <point x="209.0" y="428.0"/>
      <point x="246.0" y="422.0"/>
      <point x="302.0" y="411.0" type="curve"/>
      <point x="302.0" y="130.0" type="line"/>
      <point x="302.0" y="130.0"/>
      <point x="218.0" y="51.0"/>
    </contour>
  </outline>
</glyph>
<glyph name="h" format="2">
  <advance width="454.0"/>
  <unicode hex="0068"/>
  <anchor x="248.0" y="0.0" name="bottom"/>
  <anchor x="130.0" y="525.0" name="center"/>
  <anchor x="93.0" y="601.0" name="top"/>
  <outline>
    <contour>
      <point x="109.0" y="-10.0" type="curve" smooth="yes"/>
      <point x="118.0" y="-10.0"/>
      <point x="176.0" y="2.0"/>
      <point x="176.0" y="2.0" type="curve"/>
      <point x="176.0" y="19.0" type="line"/>
      <point x="118.0" y="19.0" type="line"/>
      <point x="118.0" y="342.0" type="line"/>
      <point x="155.0" y="372.0"/>
      <point x="221.0" y="423.0"/>
      <point x="226.0" y="423.0" type="curve" smooth="yes"/>
      <point x="285.0" y="423.0"/>
      <point x="339.0" y="413.0"/>
      <point x="339.0" y="290.0" type="curve" smooth="yes"/>
      <point x="339.0" y="7.0" type="line" smooth="yes"/>
      <point x="339.0" y="3.0"/>
      <point x="354.0" y="-10.0"/>
      <point x="359.0" y="-10.0" type="curve" smooth="yes"/>
      <point x="368.0" y="-10.0"/>
      <point x="426.0" y="2.0"/>
      <point x="426.0" y="2.0" type="curve"/>
      <point x="426.0" y="19.0" type="line"/>
      <point x="368.0" y="19.0" type="line"/>
      <point x="368.0" y="276.0" type="line" smooth="yes"/>
      <point x="368.0" y="411.0"/>
      <point x="331.0" y="450.0"/>
      <point x="220.0" y="450.0" type="curve" smooth="yes"/>
      <point x="215.0" y="450.0"/>
      <point x="148.0" y="397.0"/>
      <point x="118.0" y="373.0" type="curve"/>
      <point x="116.0" y="374.0" type="line"/>
      <point x="118.0" y="620.0" type="line" smooth="yes"/>
      <point x="118.0" y="624.0"/>
      <point x="101.0" y="637.0"/>
      <point x="98.0" y="637.0" type="curve" smooth="yes"/>
      <point x="89.0" y="637.0"/>
      <point x="31.0" y="625.0"/>
      <point x="31.0" y="625.0" type="curve"/>
      <point x="31.0" y="608.0" type="line"/>
      <point x="89.0" y="608.0" type="line"/>
      <point x="89.0" y="7.0" type="line" smooth="yes"/>
      <point x="89.0" y="3.0"/>
      <point x="106.0" y="-10.0"/>
    </contour>
  </outline>
</glyph>
<glyph name="j" format="2">
  <advance width="165.0"/>
  <unicode hex="006A"/>
  <outline>
    <contour>
      <point x="39.0" y="-175.0" type="curve" smooth="yes"/>
      <point x="73.0" y="-175.0"/>
      <point x="108.0" y="-118.0"/>
      <point x="108.0" y="-51.0" type="curve" smooth="yes"/>
      <point x="108.0" y="433.0" type="line" smooth="yes"/>
      <point x="108.0" y="437.0"/>
      <point x="91.0" y="450.0"/>
      <point x="88.0" y="450.0" type="curve" smooth="yes"/>
      <point x="79.0" y="450.0"/>
      <point x="21.0" y="438.0"/>
      <point x="21.0" y="438.0" type="curve"/>
      <point x="21.0" y="421.0" type="line"/>
      <point x="79.0" y="421.0" type="line"/>
      <point x="79.0" y="-53.0" type="line" smooth="yes"/>
      <point x="79.0" y="-116.0"/>
      <point x="48.0" y="-149.0"/>
      <point x="41.0" y="-149.0" type="curve" smooth="yes"/>
      <point x="32.0" y="-149.0"/>
      <point x="-14.0" y="-149.0"/>
      <point x="-27.0" y="-149.0" type="curve"/>
      <point x="-27.0" y="-166.0" type="line"/>
      <point x="-9.0" y="-169.0"/>
      <point x="28.0" y="-175.0"/>
    </contour>
    <contour>
      <point x="81.0" y="551.0" type="line"/>
      <point x="105.0" y="551.0" type="line"/>
      <point x="111.0" y="607.0" type="line"/>
      <point x="103.0" y="617.0" type="line"/>
      <point x="75.0" y="614.0" type="line"/>
    </contour>
  </outline>
</glyph>
<glyph name="k" format="2">
  <advance width="440.0"/>
  <unicode hex="006B"/>
  <anchor x="227.0" y="0.0" name="bottom"/>
  <outline>
    <contour>
      <point x="358.0" y="-10.0" type="curve" smooth="yes"/>
      <point x="365.0" y="-10.0"/>
      <point x="416.0" y="2.0"/>
      <point x="416.0" y="2.0" type="curve"/>
      <point x="416.0" y="19.0" type="line"/>
      <point x="356.0" y="19.0" type="line"/>
      <point x="190.0" y="239.0" type="line"/>
      <point x="388.0" y="427.0" type="line"/>
      <point x="388.0" y="430.0"/>
      <point x="380.0" y="450.0"/>
      <point x="376.0" y="450.0" type="curve" smooth="yes"/>
      <point x="367.0" y="450.0"/>
      <point x="276.0" y="442.0"/>
      <point x="276.0" y="442.0" type="curve"/>
      <point x="276.0" y="422.0" type="line"/>
      <point x="346.0" y="422.0" type="line"/>
      <point x="157.0" y="243.0" type="line"/>
      <point x="157.0" y="236.0" type="line"/>
      <point x="329.0" y="7.0" type="line" smooth="yes"/>
      <point x="335.0" y="-1.0"/>
      <point x="352.0" y="-10.0"/>
    </contour>
    <contour>
      <point x="109.0" y="-10.0" type="curve" smooth="yes"/>
      <point x="118.0" y="-10.0"/>
      <point x="176.0" y="2.0"/>
      <point x="176.0" y="2.0" type="curve"/>
      <point x="176.0" y="19.0" type="line"/>
      <point x="118.0" y="19.0" type="line"/>
      <point x="118.0" y="620.0" type="line" smooth="yes"/>
      <point x="118.0" y="624.0"/>
      <point x="101.0" y="637.0"/>
      <point x="98.0" y="637.0" type="curve" smooth="yes"/>
      <point x="89.0" y="637.0"/>
      <point x="31.0" y="625.0"/>
      <point x="31.0" y="625.0" type="curve"/>
      <point x="31.0" y="608.0" type="line"/>
      <point x="89.0" y="608.0" type="line"/>
      <point x="89.0" y="7.0" type="line" smooth="yes"/>
      <point x="89.0" y="3.0"/>
      <point x="106.0" y="-10.0"/>
    </contour>
  </outline>
</glyph>
<glyph name="l" format="2">
  <advance width="212.0"/>
  <unicode hex="006C"/>
  <anchor x="109.0" y="0.0" name="bottom"/>
  <anchor x="103.0" y="338.0" name="center"/>
  <anchor x="104.0" y="591.0" name="top"/>
  <anchor x="190.0" y="440.0" name="topright"/>
  <outline>
    <contour>
      <point x="109.0" y="-10.0" type="curve" smooth="yes"/>
      <point x="118.0" y="-10.0"/>
      <point x="176.0" y="2.0"/>
      <point x="176.0" y="2.0" type="curve"/>
      <point x="176.0" y="19.0" type="line"/>
      <point x="118.0" y="19.0" type="line"/>
      <point x="118.0" y="620.0" type="line" smooth="yes"/>
      <point x="118.0" y="624.0"/>
      <point x="101.0" y="637.0"/>
      <point x="98.0" y="637.0" type="curve" smooth="yes"/>
      <point x="89.0" y="637.0"/>
      <point x="31.0" y="625.0"/>
      <point x="31.0" y="625.0" type="curve"/>
      <point x="31.0" y="608.0" type="line"/>
      <point x="89.0" y="608.0" type="line"/>
      <point x="89.0" y="7.0" type="line" smooth="yes"/>
      <point x="89.0" y="3.0"/>
      <point x="106.0" y="-10.0"/>
    </contour>
  </outline>
</glyph>
<glyph name="m" format="2">
  <advance width="680.0"/>
  <unicode hex="006D"/>
  <outline>
    <contour>
      <point x="109.0" y="-11.0" type="curve" smooth="yes"/>
      <point x="118.0" y="-11.0"/>
      <point x="176.0" y="1.0"/>
      <point x="176.0" y="1.0" type="curve"/>
      <point x="176.0" y="18.0" type="line"/>
      <point x="118.0" y="18.0" type="line"/>
      <point x="118.0" y="342.0" type="line"/>
      <point x="118.0" y="342.0"/>
      <point x="213.0" y="423.0"/>
      <point x="224.0" y="423.0" type="curve" smooth="yes"/>
      <point x="279.0" y="423.0"/>
      <point x="327.0" y="415.0"/>
      <point x="327.0" y="310.0" type="curve" smooth="yes"/>
      <point x="327.0" y="6.0" type="line" smooth="yes"/>
      <point x="327.0" y="2.0"/>
      <point x="341.0" y="-11.0"/>
      <point x="347.0" y="-11.0" type="curve" smooth="yes"/>
      <point x="356.0" y="-11.0"/>
      <point x="414.0" y="1.0"/>
      <point x="414.0" y="1.0" type="curve"/>
      <point x="414.0" y="18.0" type="line"/>
      <point x="356.0" y="18.0" type="line"/>
      <point x="356.0" y="342.0" type="line"/>
      <point x="356.0" y="342.0"/>
      <point x="451.0" y="423.0"/>
      <point x="462.0" y="423.0" type="curve" smooth="yes"/>
      <point x="516.0" y="423.0"/>
      <point x="565.0" y="413.0"/>
      <point x="565.0" y="290.0" type="curve" smooth="yes"/>
      <point x="565.0" y="6.0" type="line" smooth="yes"/>
      <point x="565.0" y="2.0"/>
      <point x="579.0" y="-11.0"/>
      <point x="585.0" y="-11.0" type="curve" smooth="yes"/>
      <point x="594.0" y="-11.0"/>
      <point x="652.0" y="1.0"/>
      <point x="652.0" y="1.0" type="curve"/>
      <point x="652.0" y="18.0" type="line"/>
      <point x="594.0" y="18.0" type="line"/>
      <point x="594.0" y="276.0" type="line" smooth="yes"/>
      <point x="594.0" y="411.0"/>
      <point x="558.0" y="450.0"/>
      <point x="452.0" y="450.0" type="curve" smooth="yes"/>
      <point x="447.0" y="450.0"/>
      <point x="376.0" y="392.0"/>
      <point x="352.0" y="371.0" type="curve"/>
      <point x="336.0" y="425.0"/>
      <point x="294.0" y="450.0"/>
      <point x="218.0" y="450.0" type="curve" smooth="yes"/>
      <point x="213.0" y="450.0"/>
      <point x="141.0" y="394.0"/>
      <point x="116.0" y="371.0" type="curve"/>
      <point x="118.0" y="433.0" type="line" smooth="yes"/>
      <point x="118.0" y="437.0"/>
      <point x="101.0" y="450.0"/>
      <point x="98.0" y="450.0" type="curve" smooth="yes"/>
      <point x="89.0" y="450.0"/>
      <point x="31.0" y="438.0"/>
      <point x="31.0" y="438.0" type="curve"/>
      <point x="31.0" y="421.0" type="line"/>
      <point x="89.0" y="421.0" type="line"/>
      <point x="89.0" y="6.0" type="line" smooth="yes"/>
      <point x="89.0" y="2.0"/>
      <point x="106.0" y="-11.0"/>
    </contour>
  </outline>
</glyph>
<glyph name="n" format="2">
  <advance width="454.0"/>
  <unicode hex="006E"/>
  <anchor x="245.0" y="0.0" name="bottom"/>
  <anchor x="225.0" y="440.0" name="top"/>
  <anchor x="-19.0" y="448.0" name="topleft"/>
  <outline>
    <contour>
      <point x="109.0" y="-10.0" type="curve" smooth="yes"/>
      <point x="118.0" y="-10.0"/>
      <point x="176.0" y="2.0"/>
      <point x="176.0" y="2.0" type="curve"/>
      <point x="176.0" y="19.0" type="line"/>
      <point x="118.0" y="19.0" type="line"/>
      <point x="118.0" y="342.0" type="line"/>
      <point x="158.0" y="376.0"/>
      <point x="218.0" y="423.0"/>
      <point x="226.0" y="423.0" type="curve" smooth="yes"/>
      <point x="285.0" y="423.0"/>
      <point x="339.0" y="413.0"/>
      <point x="339.0" y="290.0" type="curve" smooth="yes"/>
      <point x="339.0" y="7.0" type="line" smooth="yes"/>
      <point x="339.0" y="3.0"/>
      <point x="354.0" y="-10.0"/>
      <point x="359.0" y="-10.0" type="curve" smooth="yes"/>
      <point x="368.0" y="-10.0"/>
      <point x="426.0" y="2.0"/>
      <point x="426.0" y="2.0" type="curve"/>
      <point x="426.0" y="19.0" type="line"/>
      <point x="368.0" y="19.0" type="line"/>
      <point x="368.0" y="276.0" type="line" smooth="yes"/>
      <point x="368.0" y="411.0"/>
      <point x="331.0" y="450.0"/>
      <point x="220.0" y="450.0" type="curve" smooth="yes"/>
      <point x="213.0" y="450.0"/>
      <point x="145.0" y="394.0"/>
      <point x="116.0" y="371.0" type="curve"/>
      <point x="118.0" y="433.0" type="line" smooth="yes"/>
      <point x="118.0" y="437.0"/>
      <point x="101.0" y="450.0"/>
      <point x="98.0" y="450.0" type="curve" smooth="yes"/>
      <point x="89.0" y="450.0"/>
      <point x="31.0" y="438.0"/>
      <point x="31.0" y="438.0" type="curve"/>
      <point x="31.0" y="421.0" type="line"/>
      <point x="89.0" y="421.0" type="line"/>
      <point x="89.0" y="7.0" type="line" smooth="yes"/>
      <point x="89.0" y="3.0"/>
      <point x="106.0" y="-10.0"/>
    </contour>
  </outline>
</glyph>
<glyph name="p" format="2">
  <advance width="433.0"/>
  <unicode hex="0070"/>
  <outline>
    <contour>
      <point x="106.0" y="-176.0" type="curve" smooth="yes"/>
      <point x="114.0" y="-176.0"/>
      <point x="162.0" y="-168.0"/>
      <point x="176.0" y="-164.0" type="curve"/>
      <point x="176.0" y="-147.0" type="line"/>
      <point x="118.0" y="-147.0" type="line"/>
      <point x="118.0" y="3.0" type="line"/>
      <point x="159.0" y="-3.0"/>
      <point x="207.0" y="-10.0"/>
      <point x="224.0" y="-10.0" type="curve" smooth="yes"/>
      <point x="243.0" y="-10.0"/>
      <point x="306.0" y="21.0"/>
      <point x="346.0" y="80.0" type="curve"/>
      <point x="363.0" y="114.0"/>
      <point x="379.0" y="171.0"/>
      <point x="379.0" y="245.0" type="curve" smooth="yes"/>
      <point x="379.0" y="346.0"/>
      <point x="346.0" y="450.0"/>
      <point x="217.0" y="450.0" type="curve" smooth="yes"/>
      <point x="209.0" y="450.0"/>
      <point x="154.0" y="402.0"/>
      <point x="116.0" y="370.0" type="curve"/>
      <point x="118.0" y="433.0" type="line" smooth="yes"/>
      <point x="118.0" y="437.0"/>
      <point x="101.0" y="450.0"/>
      <point x="98.0" y="450.0" type="curve" smooth="yes"/>
      <point x="91.0" y="450.0"/>
      <point x="46.0" y="442.0"/>
      <point x="31.0" y="438.0" type="curve"/>
      <point x="31.0" y="421.0" type="line"/>
      <point x="89.0" y="421.0" type="line"/>
      <point x="89.0" y="11.0" type="line"/>
      <point x="86.0" y="-159.0" type="line" smooth="yes"/>
      <point x="86.0" y="-163.0"/>
      <point x="103.0" y="-176.0"/>
    </contour>
    <contour>
      <point x="238.0" y="21.0" type="curve" smooth="yes"/>
      <point x="212.0" y="9.0"/>
      <point x="153.0" y="23.0"/>
      <point x="118.0" y="31.0" type="curve"/>
      <point x="116.0" y="340.0" type="line"/>
      <point x="153.0" y="370.0"/>
      <point x="213.0" y="423.0"/>
      <point x="224.0" y="423.0" type="curve" smooth="yes"/>
      <point x="293.0" y="423.0"/>
      <point x="350.0" y="381.0"/>
      <point x="350.0" y="238.0" type="curve" smooth="yes"/>
      <point x="350.0" y="134.0"/>
      <point x="324.0" y="61.0"/>
    </contour>
  </outline>
</glyph>
<glyph name="q" format="2">
  <advance width="414.0"/>
  <unicode hex="0071"/>
  <outline>
    <contour>
      <point x="335.0" y="-175.0" type="curve" smooth="yes"/>
      <point x="344.0" y="-175.0"/>
      <point x="402.0" y="-163.0"/>
      <point x="402.0" y="-163.0" type="curve"/>
      <point x="402.0" y="-146.0" type="line"/>
      <point x="344.0" y="-146.0" type="line"/>
      <point x="344.0" y="432.0" type="line"/>
      <point x="299.0" y="439.0"/>
      <point x="230.0" y="450.0"/>
      <point x="209.0" y="450.0" type="curve" smooth="yes"/>
      <point x="190.0" y="450.0"/>
      <point x="127.0" y="419.0"/>
      <point x="87.0" y="360.0" type="curve"/>
      <point x="70.0" y="326.0"/>
      <point x="54.0" y="269.0"/>
      <point x="54.0" y="195.0" type="curve" smooth="yes"/>
      <point x="54.0" y="94.0"/>
      <point x="87.0" y="-10.0"/>
      <point x="216.0" y="-10.0" type="curve" smooth="yes"/>
      <point x="224.0" y="-10.0"/>
      <point x="277.0" y="36.0"/>
      <point x="315.0" y="67.0" type="curve"/>
      <point x="317.0" y="66.0" type="line"/>
      <point x="315.0" y="-158.0" type="line" smooth="yes"/>
      <point x="315.0" y="-162.0"/>
      <point x="332.0" y="-175.0"/>
    </contour>
    <contour>
      <point x="209.0" y="17.0" type="curve" smooth="yes"/>
      <point x="140.0" y="17.0"/>
      <point x="83.0" y="59.0"/>
      <point x="83.0" y="202.0" type="curve" smooth="yes"/>
      <point x="83.0" y="306.0"/>
      <point x="109.0" y="380.0"/>
      <point x="195.0" y="419.0" type="curve" smooth="yes"/>
      <point x="221.0" y="431.0"/>
      <point x="273.0" y="419.0"/>
      <point x="315.0" y="409.0" type="curve"/>
      <point x="317.0" y="100.0" type="line"/>
      <point x="281.0" y="70.0"/>
      <point x="220.0" y="17.0"/>
    </contour>
  </outline>
</glyph>
<glyph name="r" format="2">
  <advance width="284.0"/>
  <unicode hex="0072"/>
  <anchor x="187.0" y="0.0" name="bottom"/>
  <anchor x="154.0" y="440.0" name="top"/>
  <outline>
    <contour>
      <point x="109.0" y="-10.0" type="curve" smooth="yes"/>
      <point x="119.0" y="-10.0"/>
      <point x="186.0" y="2.0"/>
      <point x="186.0" y="2.0" type="curve"/>
      <point x="186.0" y="19.0" type="line"/>
      <point x="118.0" y="19.0" type="line"/>
      <point x="118.0" y="342.0" type="line"/>
      <point x="118.0" y="342.0"/>
      <point x="203.0" y="426.0"/>
      <point x="213.0" y="426.0" type="curve" smooth="yes"/>
      <point x="230.0" y="426.0"/>
      <point x="247.0" y="421.0"/>
      <point x="260.0" y="417.0" type="curve"/>
      <point x="264.0" y="421.0"/>
      <point x="270.0" y="430.0"/>
      <point x="270.0" y="433.0" type="curve" smooth="yes"/>
      <point x="270.0" y="437.0"/>
      <point x="267.0" y="443.0"/>
      <point x="266.0" y="445.0" type="curve"/>
      <point x="258.0" y="449.0"/>
      <point x="227.0" y="454.0"/>
      <point x="205.0" y="454.0" type="curve" smooth="yes"/>
      <point x="200.0" y="454.0"/>
      <point x="135.0" y="391.0"/>
      <point x="116.0" y="371.0" type="curve"/>
      <point x="118.0" y="433.0" type="line"/>
      <point x="118.0" y="437.0"/>
      <point x="101.0" y="450.0"/>
      <point x="98.0" y="450.0" type="curve" smooth="yes"/>
      <point x="89.0" y="450.0"/>
      <point x="31.0" y="438.0"/>
      <point x="31.0" y="438.0" type="curve"/>
      <point x="31.0" y="421.0" type="line"/>
      <point x="89.0" y="421.0" type="line"/>
      <point x="89.0" y="7.0" type="line" smooth="yes"/>
      <point x="89.0" y="3.0"/>
      <point x="106.0" y="-10.0"/>
    </contour>
  </outline>
</glyph>
<glyph name="s" format="2">
  <advance width="338.0"/>
  <unicode hex="0073"/>
  <anchor x="177.0" y="0.0" name="bottom"/>
  <anchor x="180.0" y="440.0" name="top"/>
  <outline>
    <contour>
      <point x="206.0" y="-10.0" type="curve" smooth="yes"/>
      <point x="239.0" y="-10.0"/>
      <point x="287.0" y="39.0"/>
      <point x="299.0" y="77.0" type="curve"/>
      <point x="302.0" y="88.0"/>
      <point x="303.0" y="99.0"/>
      <point x="303.0" y="108.0" type="curve" smooth="yes"/>
      <point x="303.0" y="177.0"/>
      <point x="242.0" y="208.0"/>
      <point x="183.0" y="245.0" type="curve" smooth="yes"/>
      <point x="126.0" y="281.0"/>
      <point x="85.0" y="299.0"/>
      <point x="85.0" y="357.0" type="curve" smooth="yes"/>
      <point x="85.0" y="395.0"/>
      <point x="134.0" y="425.0"/>
      <point x="146.0" y="425.0" type="curve" smooth="yes"/>
      <point x="163.0" y="425.0"/>
      <point x="234.0" y="420.0"/>
      <point x="262.0" y="416.0" type="curve"/>
      <point x="269.0" y="342.0" type="line"/>
      <point x="287.0" y="342.0" type="line"/>
      <point x="289.0" y="439.0" type="line"/>
      <point x="261.0" y="443.0"/>
      <point x="171.0" y="450.0"/>
      <point x="146.0" y="450.0" type="curve" smooth="yes"/>
      <point x="125.0" y="450.0"/>
      <point x="76.0" y="412.0"/>
      <point x="63.0" y="383.0" type="curve"/>
      <point x="58.0" y="371.0"/>
      <point x="57.0" y="359.0"/>
      <point x="57.0" y="349.0" type="curve" smooth="yes"/>
      <point x="57.0" y="285.0"/>
      <point x="109.0" y="257.0"/>
      <point x="169.0" y="220.0" type="curve" smooth="yes"/>
      <point x="222.0" y="187.0"/>
      <point x="274.0" y="165.0"/>
      <point x="274.0" y="104.0" type="curve" smooth="yes"/>
      <point x="274.0" y="65.0"/>
      <point x="230.0" y="16.0"/>
      <point x="205.0" y="16.0" type="curve" smooth="yes"/>
      <point x="177.0" y="16.0"/>
      <point x="112.0" y="23.0"/>
      <point x="78.0" y="25.0" type="curve"/>
      <point x="68.0" y="106.0" type="line"/>
      <point x="51.0" y="106.0" type="line"/>
      <point x="50.0" y="2.0" type="line"/>
      <point x="89.0" y="-3.0"/>
      <point x="183.0" y="-10.0"/>
    </contour>
  </outline>
</glyph>
<glyph name="t" format="2">
  <advance width="264.0"/>
  <unicode hex="0074"/>
  <anchor x="169.0" y="0.0" name="bottom"/>
  <anchor x="130.0" y="238.0" name="center"/>
  <anchor x="171.0" y="440.0" name="topright"/>
  <outline>
    <contour>
      <point x="132.0" y="-10.0" type="curve" smooth="yes"/>
      <point x="143.0" y="-10.0"/>
      <point x="208.0" y="-4.0"/>
      <point x="231.0" y="-1.0" type="curve"/>
      <point x="231.0" y="16.0" type="line"/>
      <point x="146.0" y="18.0" type="line" smooth="yes"/>
      <point x="130.0" y="18.0"/>
      <point x="124.0" y="24.0"/>
      <point x="124.0" y="46.0" type="curve" smooth="yes"/>
      <point x="124.0" y="415.0" type="line"/>
      <point x="227.0" y="415.0" type="line"/>
      <point x="227.0" y="440.0" type="line"/>
      <point x="124.0" y="440.0" type="line"/>
      <point x="124.0" y="510.0" type="line"/>
      <point x="119.0" y="514.0"/>
      <point x="114.0" y="517.0"/>
      <point x="108.0" y="517.0" type="curve"/>
      <point x="93.0" y="443.0" type="line"/>
      <point x="29.0" y="434.0" type="line"/>
      <point x="29.0" y="415.0" type="line"/>
      <point x="95.0" y="415.0" type="line"/>
      <point x="95.0" y="31.0" type="line" smooth="yes"/>
      <point x="95.0" y="20.0"/>
      <point x="121.0" y="-10.0"/>
    </contour>
  </outline>
</glyph>
<glyph name="u" format="2">
  <advance width="453.0"/>
  <unicode hex="0075"/>
  <anchor x="224.0" y="0.0" name="bottom"/>
  <anchor x="403.0" y="2.0" name="ogonek"/>
  <anchor x="216.0" y="440.0" name="top"/>
  <anchor x="303.0" y="440.0" name="topright"/>
  <outline>
    <contour>
      <point x="237.0" y="-10.0" type="curve" smooth="yes"/>
      <point x="242.0" y="-10.0"/>
      <point x="314.0" y="46.0"/>
      <point x="339.0" y="69.0" type="curve"/>
      <point x="337.0" y="7.0" type="line" smooth="yes"/>
      <point x="337.0" y="3.0"/>
      <point x="354.0" y="-10.0"/>
      <point x="357.0" y="-10.0" type="curve" smooth="yes"/>
      <point x="366.0" y="-10.0"/>
      <point x="424.0" y="2.0"/>
      <point x="424.0" y="2.0" type="curve"/>
      <point x="424.0" y="19.0" type="line"/>
      <point x="366.0" y="19.0" type="line"/>
      <point x="366.0" y="433.0" type="line" smooth="yes"/>
      <point x="366.0" y="437.0"/>
      <point x="349.0" y="450.0"/>
      <point x="346.0" y="450.0" type="curve" smooth="yes"/>
      <point x="337.0" y="450.0"/>
      <point x="279.0" y="438.0"/>
      <point x="279.0" y="438.0" type="curve"/>
      <point x="279.0" y="421.0" type="line"/>
      <point x="337.0" y="421.0" type="line"/>
      <point x="337.0" y="98.0" type="line"/>
      <point x="337.0" y="98.0"/>
      <point x="242.0" y="17.0"/>
      <point x="231.0" y="17.0" type="curve" smooth="yes"/>
      <point x="172.0" y="17.0"/>
      <point x="118.0" y="27.0"/>
      <point x="118.0" y="150.0" type="curve" smooth="yes"/>
      <point x="118.0" y="433.0" type="line" smooth="yes"/>
      <point x="118.0" y="437.0"/>
      <point x="103.0" y="450.0"/>
      <point x="98.0" y="450.0" type="curve" smooth="yes"/>
      <point x="89.0" y="450.0"/>
      <point x="31.0" y="438.0"/>
      <point x="31.0" y="438.0" type="curve"/>
      <point x="31.0" y="421.0" type="line"/>
      <point x="89.0" y="421.0" type="line"/>
      <point x="89.0" y="164.0" type="line" smooth="yes"/>
      <point x="89.0" y="29.0"/>
      <point x="126.0" y="-10.0"/>
    </contour>
  </outline>
</glyph>
<glyph name="v" format="2">
  <advance width="398.0"/>
  <unicode hex="0076"/>
  <outline>
    <contour>
      <point x="199.0" y="-11.0" type="curve" smooth="yes"/>
      <point x="201.0" y="-11.0"/>
      <point x="224.0" y="-6.0"/>
      <point x="224.0" y="-6.0" type="curve"/>
      <point x="366.0" y="430.0" type="line"/>
      <point x="366.0" y="433.0"/>
      <point x="356.0" y="450.0"/>
      <point x="352.0" y="450.0" type="curve" smooth="yes"/>
      <point x="343.0" y="450.0"/>
      <point x="254.0" y="441.0"/>
      <point x="254.0" y="441.0" type="curve"/>
      <point x="254.0" y="421.0" type="line"/>
      <point x="334.0" y="421.0" type="line"/>
      <point x="210.0" y="28.0" type="line"/>
      <point x="208.0" y="28.0" type="line"/>
      <point x="185.0" y="118.0" type="line"/>
      <point x="94.0" y="433.0" type="line" smooth="yes"/>
      <point x="93.0" y="437.0"/>
      <point x="80.0" y="450.0"/>
      <point x="75.0" y="450.0" type="curve" smooth="yes"/>
      <point x="66.0" y="450.0"/>
      <point x="9.0" y="438.0"/>
      <point x="9.0" y="438.0" type="curve"/>
      <point x="9.0" y="421.0" type="line"/>
      <point x="68.0" y="421.0" type="line"/>
      <point x="192.0" y="-4.0" type="line"/>
      <point x="192.0" y="-4.0"/>
      <point x="196.0" y="-11.0"/>
    </contour>
  </outline>
</glyph>
<glyph name="w" format="2">
  <advance width="585.0"/>
  <unicode hex="0077"/>
  <anchor x="294.0" y="440.0" name="top"/>
  <outline>
    <contour>
      <point x="194.0" y="-11.0" type="curve" smooth="yes"/>
      <point x="196.0" y="-11.0"/>
      <point x="219.0" y="-6.0"/>
      <point x="219.0" y="-6.0" type="curve"/>
      <point x="309.0" y="278.0" type="line"/>
      <point x="312.0" y="278.0" type="line"/>
      <point x="387.0" y="-4.0" type="line"/>
      <point x="387.0" y="-4.0"/>
      <point x="391.0" y="-11.0"/>
      <point x="394.0" y="-11.0" type="curve" smooth="yes"/>
      <point x="396.0" y="-11.0"/>
      <point x="419.0" y="-6.0"/>
      <point x="419.0" y="-6.0" type="curve"/>
      <point x="553.0" y="430.0" type="line"/>
      <point x="553.0" y="433.0"/>
      <point x="543.0" y="450.0"/>
      <point x="539.0" y="450.0" type="curve" smooth="yes"/>
      <point x="530.0" y="450.0"/>
      <point x="438.0" y="441.0"/>
      <point x="438.0" y="441.0" type="curve"/>
      <point x="438.0" y="421.0" type="line"/>
      <point x="521.0" y="421.0" type="line"/>
      <point x="405.0" y="28.0" type="line"/>
      <point x="403.0" y="28.0" type="line"/>
      <point x="383.0" y="118.0" type="line"/>
      <point x="299.0" y="433.0" type="line" smooth="yes"/>
      <point x="298.0" y="437.0"/>
      <point x="285.0" y="450.0"/>
      <point x="280.0" y="450.0" type="curve" smooth="yes"/>
      <point x="272.0" y="450.0"/>
      <point x="219.0" y="438.0"/>
      <point x="219.0" y="438.0" type="curve"/>
      <point x="219.0" y="421.0" type="line"/>
      <point x="273.0" y="421.0" type="line"/>
      <point x="299.0" y="324.0" type="line"/>
      <point x="205.0" y="28.0" type="line"/>
      <point x="203.0" y="28.0" type="line"/>
      <point x="182.0" y="118.0" type="line"/>
      <point x="94.0" y="433.0" type="line" smooth="yes"/>
      <point x="93.0" y="437.0"/>
      <point x="80.0" y="450.0"/>
      <point x="75.0" y="450.0" type="curve" smooth="yes"/>
      <point x="66.0" y="450.0"/>
      <point x="9.0" y="438.0"/>
      <point x="9.0" y="438.0" type="curve"/>
      <point x="9.0" y="421.0" type="line"/>
      <point x="68.0" y="421.0" type="line"/>
      <point x="187.0" y="-4.0" type="line"/>
      <point x="187.0" y="-4.0"/>
      <point x="191.0" y="-11.0"/>
    </contour>
  </outline>
</glyph>
<glyph name="x" format="2">
  <advance width="391.0"/>
  <unicode hex="0078"/>
  <outline>
    <contour>
      <point x="28.0" y="-10.0" type="curve" smooth="yes"/>
      <point x="37.0" y="-10.0"/>
      <point x="122.0" y="-1.0"/>
      <point x="122.0" y="-1.0" type="curve"/>
      <point x="122.0" y="19.0" type="line"/>
      <point x="48.0" y="19.0" type="line"/>
      <point x="196.0" y="208.0" type="line"/>
      <point x="324.0" y="7.0" type="line" smooth="yes"/>
      <point x="326.0" y="3.0"/>
      <point x="338.0" y="-10.0"/>
      <point x="344.0" y="-10.0" type="curve" smooth="yes"/>
      <point x="350.0" y="-10.0"/>
      <point x="392.0" y="2.0"/>
      <point x="392.0" y="2.0" type="curve"/>
      <point x="392.0" y="19.0" type="line"/>
      <point x="350.0" y="19.0" type="line"/>
      <point x="215.0" y="229.0" type="line"/>
      <point x="369.0" y="426.0" type="line"/>
      <point x="369.0" y="429.0"/>
      <point x="359.0" y="451.0"/>
      <point x="355.0" y="451.0" type="curve" smooth="yes"/>
      <point x="346.0" y="451.0"/>
      <point x="261.0" y="442.0"/>
      <point x="261.0" y="442.0" type="curve"/>
      <point x="261.0" y="422.0" type="line"/>
      <point x="333.0" y="422.0" type="line"/>
      <point x="201.0" y="252.0" type="line"/>
      <point x="84.0" y="434.0" type="line" smooth="yes"/>
      <point x="82.0" y="438.0"/>
      <point x="70.0" y="451.0"/>
      <point x="66.0" y="451.0" type="curve" smooth="yes"/>
      <point x="60.0" y="451.0"/>
      <point x="15.0" y="439.0"/>
      <point x="15.0" y="439.0" type="curve"/>
      <point x="15.0" y="422.0" type="line"/>
      <point x="57.0" y="422.0" type="line"/>
      <point x="181.0" y="230.0" type="line"/>
      <point x="14.0" y="18.0" type="line"/>
      <point x="14.0" y="15.0"/>
      <point x="24.0" y="-10.0"/>
    </contour>
  </outline>
</glyph>
<glyph name="y" format="2">
  <advance width="397.0"/>
  <unicode hex="0079"/>
  <anchor x="338.0" y="0.0" name="bottom"/>
  <anchor x="203.0" y="440.0" name="top"/>
  <outline>
    <contour>
      <point x="171.0" y="-176.0" type="curve" smooth="yes"/>
      <point x="180.0" y="-176.0"/>
      <point x="238.0" y="-164.0"/>
      <point x="238.0" y="-164.0" type="curve"/>
      <point x="239.0" y="-147.0" type="line"/>
      <point x="181.0" y="-147.0" type="line"/>
      <point x="225.0" y="-6.0" type="line"/>
      <point x="367.0" y="430.0" type="line"/>
      <point x="367.0" y="433.0"/>
      <point x="356.0" y="450.0"/>
      <point x="352.0" y="450.0" type="curve" smooth="yes"/>
      <point x="343.0" y="450.0"/>
      <point x="254.0" y="441.0"/>
      <point x="254.0" y="441.0" type="curve"/>
      <point x="254.0" y="421.0" type="line"/>
      <point x="334.0" y="421.0" type="line"/>
      <point x="210.0" y="25.0" type="line"/>
      <point x="205.0" y="25.0" type="line"/>
      <point x="183.0" y="110.0" type="line"/>
      <point x="95.0" y="433.0" type="line" smooth="yes"/>
      <point x="94.0" y="437.0"/>
      <point x="80.0" y="450.0"/>
      <point x="75.0" y="450.0" type="curve" smooth="yes"/>
      <point x="66.0" y="450.0"/>
      <point x="9.0" y="438.0"/>
      <point x="9.0" y="438.0" type="curve"/>
      <point x="9.0" y="421.0" type="line"/>
      <point x="68.0" y="421.0" type="line"/>
      <point x="186.0" y="-8.0" type="line"/>
      <point x="186.0" y="-8.0"/>
      <point x="189.0" y="-11.0"/>
      <point x="190.0" y="-11.0" type="curve" smooth="yes"/>
      <point x="190.0" y="-11.0"/>
      <point x="197.0" y="-10.0"/>
      <point x="197.0" y="-10.0" type="curve"/>
      <point x="151.0" y="-151.0" type="line" smooth="yes"/>
      <point x="150.0" y="-155.0"/>
      <point x="168.0" y="-176.0"/>
    </contour>
  </outline>
</glyph>
<glyph name="z" format="2">
  <advance width="359.0"/>
  <unicode hex="007A"/>
  <anchor x="190.0" y="0.0" name="bottom"/>
  <anchor x="178.0" y="440.0" name="top"/>
  <outline>
    <contour>
      <point x="55.0" y="0.0" type="curve"/>
      <point x="319.0" y="0.0" type="line"/>
      <point x="316.0" y="107.0" type="line"/>
      <point x="299.0" y="107.0" type="line"/>
      <point x="290.0" y="26.0" type="line"/>
      <point x="77.0" y="26.0" type="line"/>
      <point x="77.0" y="30.0" type="line"/>
      <point x="149.0" y="153.0"/>
      <point x="236.0" y="291.0"/>
      <point x="306.0" y="416.0" type="curve"/>
      <point x="302.0" y="425.0"/>
      <point x="295.0" y="435.0"/>
      <point x="292.0" y="440.0" type="curve"/>
      <point x="49.0" y="440.0" type="line"/>
      <point x="55.0" y="342.0" type="line"/>
      <point x="72.0" y="342.0" type="line"/>
      <point x="78.0" y="414.0" type="line"/>
      <point x="271.0" y="414.0" type="line"/>
      <point x="273.0" y="412.0" type="line"/>
      <point x="190.0" y="275.0"/>
      <point x="118.0" y="150.0"/>
      <point x="42.0" y="25.0" type="curve"/>
      <point x="42.0" y="20.0"/>
      <point x="51.0" y="6.0"/>
    </contour>
  </outline>
</glyph>
<glyph name="braceleft" format="2">
  <advance width="260.0"/>
  <unicode hex="007B"/>
  <outline>
    <contour>
      <point x="214.0" y="-107.0" type="line"/>
      <point x="216.0" y="-92.0" type="line"/>
      <point x="142.0" y="-80.0" type="line"/>
      <point x="142.0" y="225.0" type="line"/>
      <point x="68.0" y="284.0" type="line"/>
      <point x="142.0" y="343.0" type="line"/>
      <point x="142.0" y="648.0" type="line"/>
      <point x="216.0" y="659.0" type="line"/>
      <point x="214.0" y="675.0" type="line"/>
      <point x="116.0" y="669.0" type="line"/>
      <point x="116.0" y="352.0" type="line"/>
      <point x="43.0" y="292.0" type="line"/>
      <point x="43.0" y="276.0" type="line"/>
      <point x="116.0" y="216.0" type="line"/>
      <point x="116.0" y="-101.0" type="line"/>
    </contour>
  </outline>
</glyph>
<glyph name="bar" format="2">
  <advance width="180.0"/>
  <unicode hex="007C"/>
  <outline>
    <contour>
      <point x="80.0" y="-191.0" type="line"/>
      <point x="100.0" y="-191.0" type="line"/>
      <point x="100.0" y="668.0" type="line"/>
      <point x="80.0" y="668.0" type="line"/>
    </contour>
  </outline>
</glyph>
<glyph name="braceright" format="2">
  <advance width="260.0"/>
  <unicode hex="007D"/>
  <outline>
    <contour>
      <point x="46.0" y="-107.0" type="line"/>
      <point x="144.0" y="-101.0" type="line"/>
      <point x="144.0" y="216.0" type="line"/>
      <point x="217.0" y="276.0" type="line"/>
      <point x="217.0" y="292.0" type="line"/>
      <point x="144.0" y="352.0" type="line"/>
      <point x="144.0" y="669.0" type="line"/>
      <point x="46.0" y="675.0" type="line"/>
      <point x="44.0" y="660.0" type="line"/>
      <point x="118.0" y="648.0" type="line"/>
      <point x="118.0" y="343.0" type="line"/>
      <point x="192.0" y="284.0" type="line"/>
      <point x="118.0" y="225.0" type="line"/>
      <point x="118.0" y="-80.0" type="line"/>
      <point x="44.0" y="-91.0" type="line"/>
    </contour>
  </outline>
</glyph>
<glyph name="asciitilde" format="2">
  <advance width="508.0"/>
  <unicode hex="007E"/>
  <outline>
    <contour>
      <point x="345.0" y="296.0" type="curve" smooth="yes"/>
      <point x="361.0" y="296.0"/>
      <point x="389.0" y="318.0"/>
      <point x="413.0" y="338.0" type="curve"/>
      <point x="402.0" y="353.0" type="line"/>
      <point x="384.0" y="340.0"/>
      <point x="361.0" y="324.0"/>
      <point x="342.0" y="324.0" type="curve" smooth="yes"/>
      <point x="301.0" y="324.0"/>
      <point x="214.0" y="361.0"/>
      <point x="163.0" y="361.0" type="curve" smooth="yes"/>
      <point x="147.0" y="361.0"/>
      <point x="119.0" y="339.0"/>
      <point x="95.0" y="319.0" type="curve"/>
      <point x="106.0" y="304.0" type="line"/>
      <point x="124.0" y="317.0"/>
      <point x="147.0" y="333.0"/>
      <point x="166.0" y="333.0" type="curve" smooth="yes"/>
      <point x="207.0" y="333.0"/>
      <point x="294.0" y="296.0"/>
    </contour>
  </outline>
</glyph>
<glyph name="exclamdown" format="2">
  <advance width="221.0"/>
  <unicode hex="00A1"/>
  <outline>
    <contour>
      <point x="104.0" y="-176.0" type="curve" smooth="yes"/>
      <point x="107.0" y="-176.0"/>
      <point x="117.0" y="-174.0"/>
      <point x="126.0" y="-172.0" type="curve"/>
      <point x="121.0" y="306.0" type="line" smooth="yes"/>
      <point x="121.0" y="307.0"/>
      <point x="117.0" y="311.0"/>
      <point x="116.0" y="311.0" type="curve" smooth="yes"/>
      <point x="113.0" y="311.0"/>
      <point x="108.0" y="310.0"/>
      <point x="103.0" y="309.0" type="curve"/>
      <point x="97.0" y="-169.0" type="line" smooth="yes"/>
      <point x="97.0" y="-170.0"/>
      <point x="103.0" y="-176.0"/>
    </contour>
    <contour>
      <point x="98.0" y="360.0" type="line"/>
      <point x="123.0" y="360.0" type="line"/>
      <point x="129.0" y="424.0" type="line" smooth="yes"/>
      <point x="129.0" y="426.0"/>
      <point x="123.0" y="435.0"/>
      <point x="120.0" y="435.0" type="curve" smooth="yes"/>
      <point x="110.0" y="435.0"/>
      <point x="101.0" y="433.0"/>
      <point x="92.0" y="431.0" type="curve"/>
    </contour>
  </outline>
</glyph>
<glyph name="cent" format="2">
  <advance width="347.0"/>
  <unicode hex="00A2"/>
  <anchor x="188.0" y="41.0" name="bottom"/>
  <anchor x="189.0" y="481.0" name="top"/>
  <outline>
    <contour>
      <point x="190.0" y="470.0" type="line"/>
      <point x="211.0" y="470.0" type="line"/>
      <point x="211.0" y="577.0" type="line"/>
      <point x="190.0" y="577.0" type="line"/>
    </contour>
    <contour>
      <point x="190.0" y="-52.0" type="line"/>
      <point x="211.0" y="-52.0" type="line"/>
      <point x="211.0" y="55.0" type="line"/>
      <point x="190.0" y="55.0" type="line"/>
    </contour>
    <component base="c" yOffset="41.0"/>
  </outline>
</glyph>
<glyph name="sterling" format="2">
  <advance width="472.0"/>
  <unicode hex="00A3"/>
  <outline>
    <contour>
      <point x="79.0" y="-6.0" type="line"/>
      <point x="106.0" y="-1.0"/>
      <point x="134.0" y="0.0"/>
      <point x="178.0" y="0.0" type="curve" smooth="yes"/>
      <point x="411.0" y="0.0" type="line"/>
      <point x="409.0" y="128.0" type="line"/>
      <point x="390.0" y="129.0" type="line"/>
      <point x="380.657" y="19.433" type="line"/>
      <point x="137.0" y="28.0" type="line"/>
      <point x="167.0" y="53.0"/>
      <point x="162.0" y="175.0"/>
      <point x="160.0" y="289.0" type="curve" smooth="yes"/>
      <point x="157.0" y="467.0"/>
      <point x="152.0" y="531.0"/>
      <point x="219.0" y="531.0" type="curve" smooth="yes"/>
      <point x="242.0" y="531.0"/>
      <point x="317.0" y="529.0"/>
      <point x="366.0" y="526.0" type="curve"/>
      <point x="371.0" y="412.0" type="line"/>
      <point x="389.0" y="412.0" type="line"/>
      <point x="395.0" y="545.0" type="line"/>
      <point x="342.0" y="549.0"/>
      <point x="280.0" y="552.0"/>
      <point x="246.0" y="552.0" type="curve" smooth="yes"/>
      <point x="116.0" y="552.0"/>
      <point x="131.0" y="484.0"/>
      <point x="132.0" y="288.0" type="curve" smooth="yes"/>
      <point x="133.0" y="79.0"/>
      <point x="143.0" y="35.0"/>
      <point x="71.0" y="16.0" type="curve"/>
    </contour>
    <contour>
      <point x="68.0" y="278.0" type="line"/>
      <point x="286.0" y="278.0" type="line"/>
      <point x="289.0" y="301.0" type="line"/>
      <point x="71.0" y="301.0" type="line"/>
    </contour>
  </outline>
</glyph>
<glyph name="currency" format="2">
  <advance width="617.0"/>
  <unicode hex="00A4"/>
  <outline>
    <contour>
      <point x="112.0" y="151.0" type="line"/>
      <point x="186.004" y="222.229" type="line"/>
      <point x="215.829" y="196.348"/>
      <point x="256.728" y="180.0"/>
      <point x="309.0" y="180.0" type="curve" smooth="yes"/>
      <point x="359.818" y="180.0"/>
      <point x="400.394" y="196.557"/>
      <point x="430.517" y="222.69" type="curve"/>
      <point x="505.0" y="151.0" type="line"/>
      <point x="522.0" y="171.0" type="line"/>
      <point x="448.506" y="240.819" type="line"/>
      <point x="479.379" y="276.893"/>
      <point x="495.0" y="324.694"/>
      <point x="495.0" y="372.0" type="curve" smooth="yes"/>
      <point x="495.0" y="415.311"/>
      <point x="482.262" y="458.197"/>
      <point x="456.396" y="491.856" type="curve"/>
      <point x="522.0" y="555.0" type="line"/>
      <point x="505.0" y="574.0" type="line"/>
      <point x="438.923" y="511.227" type="line"/>
      <point x="408.735" y="539.761"/>
      <point x="366.211" y="558.0"/>
      <point x="311.0" y="558.0" type="curve" smooth="yes"/>
      <point x="255.59" y="558.0"/>
      <point x="212.357" y="538.315"/>
      <point x="181.574" y="507.905" type="curve"/>
      <point x="112.0" y="574.0" type="line"/>
      <point x="95.0" y="555.0" type="line"/>
      <point x="164.412" y="488.191" type="line"/>
      <point x="138.234" y="453.207"/>
      <point x="125.0" y="408.999"/>
      <point x="125.0" y="365.0" type="curve" smooth="yes"/>
      <point x="125.0" y="319.745"/>
      <point x="139.208" y="274.726"/>
      <point x="168.084" y="240.43" type="curve"/>
      <point x="95.0" y="171.0" type="line"/>
    </contour>
    <contour>
      <point x="310.0" y="206.0" type="curve" smooth="yes"/>
      <point x="206.0" y="206.0"/>
      <point x="155.0" y="287.0"/>
      <point x="155.0" y="368.0" type="curve" smooth="yes"/>
      <point x="155.0" y="450.0"/>
      <point x="207.0" y="532.0"/>
      <point x="310.0" y="532.0" type="curve" smooth="yes"/>
      <point x="411.0" y="532.0"/>
      <point x="461.0" y="451.0"/>
      <point x="461.0" y="370.0" type="curve" smooth="yes"/>
      <point x="461.0" y="288.0"/>
      <point x="410.0" y="206.0"/>
    </contour>
  </outline>
</glyph>
<glyph name="yen" format="2">
  <advance width="542.0"/>
  <unicode hex="00A5"/>
  <outline>
    <contour>
      <point x="182.0" y="0.0" type="line"/>
      <point x="361.0" y="0.0" type="line"/>
      <point x="361.0" y="21.0" type="line"/>
      <point x="283.0" y="27.0" type="line"/>
      <point x="283.0" y="199.0" type="line"/>
      <point x="446.0" y="199.0" type="line"/>
      <point x="451.0" y="222.0" type="line"/>
      <point x="283.0" y="222.0" type="line"/>
      <point x="283.0" y="232.0" type="line"/>
      <point x="326.0" y="315.0" type="line"/>
      <point x="446.0" y="315.0" type="line"/>
      <point x="451.0" y="338.0" type="line"/>
      <point x="338.0" y="338.0" type="line"/>
      <point x="432.0" y="521.0" type="line"/>
      <point x="497.0" y="529.0" type="line"/>
      <point x="497.0" y="547.0" type="line"/>
      <point x="336.0" y="547.0" type="line"/>
      <point x="336.0" y="528.0" type="line"/>
      <point x="399.0" y="521.0" type="line"/>
      <point x="268.0" y="256.0" type="line"/>
      <point x="263.0" y="256.0" type="line"/>
      <point x="130.0" y="520.0" type="line"/>
      <point x="189.0" y="526.0" type="line"/>
      <point x="189.0" y="547.0" type="line"/>
      <point x="45.0" y="547.0" type="line"/>
      <point x="45.0" y="529.0" type="line"/>
      <point x="100.0" y="521.0" type="line"/>
      <point x="195.0" y="338.0" type="line"/>
      <point x="86.0" y="338.0" type="line"/>
      <point x="81.0" y="315.0" type="line"/>
      <point x="207.0" y="315.0" type="line"/>
      <point x="255.0" y="222.0" type="line"/>
      <point x="86.0" y="222.0" type="line"/>
      <point x="81.0" y="199.0" type="line"/>
      <point x="255.0" y="199.0" type="line"/>
      <point x="255.0" y="26.0" type="line"/>
      <point x="182.0" y="19.0" type="line"/>
    </contour>
  </outline>
</glyph>
<glyph name="brokenbar" format="2">
  <advance width="180.0"/>
  <unicode hex="00A6"/>
  <outline>
    <contour>
      <point x="80.0" y="308.0" type="line"/>
      <point x="100.0" y="308.0" type="line"/>
      <point x="100.0" y="668.0" type="line"/>
      <point x="80.0" y="668.0" type="line"/>
    </contour>
    <contour>
      <point x="80.0" y="-191.0" type="line"/>
      <point x="100.0" y="-191.0" type="line"/>
      <point x="100.0" y="184.0" type="line"/>
      <point x="80.0" y="184.0" type="line"/>
    </contour>
  </outline>
</glyph>
<glyph name="section" format="2">
  <advance width="438.0"/>
  <unicode hex="00A7"/>
  <outline>
    <contour>
      <point x="260.0" y="-74.0" type="curve" smooth="yes"/>
      <point x="288.0" y="-74.0"/>
      <point x="337.0" y="-26.0"/>
      <point x="351.0" y="9.0" type="curve" smooth="yes"/>
      <point x="354.0" y="16.0"/>
      <point x="356.0" y="27.0"/>
      <point x="356.0" y="36.0" type="curve" smooth="yes"/>
      <point x="356.0" y="74.159"/>
      <point x="332.409" y="105.393"/>
      <point x="300.748" y="132.94" type="curve"/>
      <point x="318.521" y="152.666"/>
      <point x="339.389" y="181.429"/>
      <point x="348.0" y="201.0" type="curve"/>
      <point x="352.0" y="212.0"/>
      <point x="354.0" y="227.0"/>
      <point x="354.0" y="241.0" type="curve" smooth="yes"/>
      <point x="354.0" y="304.0"/>
      <point x="294.0" y="346.0"/>
      <point x="237.0" y="384.0" type="curve" smooth="yes"/>
      <point x="185.0" y="417.0"/>
      <point x="136.0" y="448.0"/>
      <point x="136.0" y="486.0" type="curve" smooth="yes"/>
      <point x="136.0" y="526.0"/>
      <point x="220.0" y="576.0"/>
      <point x="232.0" y="576.0" type="curve" smooth="yes"/>
      <point x="247.66" y="576.0"/>
      <point x="293.0" y="569.0"/>
      <point x="326.0" y="563.0" type="curve"/>
      <point x="328.0" y="460.0" type="line"/>
      <point x="345.0" y="460.0" type="line"/>
      <point x="355.0" y="588.0" type="line"/>
      <point x="306.0" y="593.0"/>
      <point x="250.0" y="601.0"/>
      <point x="234.0" y="601.0" type="curve" smooth="yes"/>
      <point x="208.0" y="601.0"/>
      <point x="133.0" y="546.0"/>
      <point x="115.0" y="507.0" type="curve"/>
      <point x="113.0" y="501.0"/>
      <point x="112.0" y="494.0"/>
      <point x="112.0" y="487.0" type="curve" smooth="yes"/>
      <point x="112.0" y="443.95"/>
      <point x="151.011" y="412.301"/>
      <point x="196.103" y="381.902" type="curve"/>
      <point x="166.953" y="363.479"/>
      <point x="125.394" y="324.636"/>
      <point x="118.0" y="308.0" type="curve"/>
      <point x="116.0" y="301.0"/>
      <point x="114.0" y="291.0"/>
      <point x="114.0" y="284.0" type="curve" smooth="yes"/>
      <point x="114.0" y="239.0"/>
      <point x="158.0" y="204.0"/>
      <point x="206.0" y="171.0" type="curve" smooth="yes"/>
      <point x="266.0" y="129.0"/>
      <point x="333.0" y="89.0"/>
      <point x="333.0" y="36.0" type="curve" smooth="yes"/>
      <point x="333.0" y="-4.0"/>
      <point x="275.0" y="-54.0"/>
      <point x="254.0" y="-54.0" type="curve" smooth="yes"/>
      <point x="221.737" y="-54.0"/>
      <point x="172.0" y="-50.0"/>
      <point x="127.0" y="-44.0" type="curve"/>
      <point x="123.0" y="79.0" type="line"/>
      <point x="106.0" y="79.0" type="line"/>
      <point x="95.0" y="-65.0" type="line"/>
      <point x="150.0" y="-70.0"/>
      <point x="216.0" y="-74.0"/>
    </contour>
    <contour>
      <point x="285.722" y="145.324" type="curve"/>
      <point x="222.006" y="195.324"/>
      <point x="138.0" y="233.96"/>
      <point x="138.0" y="283.0" type="curve" smooth="yes"/>
      <point x="138.0" y="317.492"/>
      <point x="190.142" y="352.854"/>
      <point x="215.844" y="368.83" type="curve"/>
      <point x="272.413" y="331.761"/>
      <point x="331.0" y="294.378"/>
      <point x="331.0" y="238.0" type="curve" smooth="yes"/>
      <point x="331.0" y="205.854"/>
      <point x="307.601" y="169.935"/>
    </contour>
  </outline>
</glyph>
<glyph name="dieresis" format="2">
  <advance width="165.0"/>
  <unicode hex="00A8"/>
  <outline>
    <contour>
      <point x="132.0" y="535.0" type="line"/>
      <point x="157.0" y="535.0" type="line"/>
      <point x="165.0" y="596.0" type="line"/>
      <point x="155.0" y="607.0" type="line"/>
      <point x="126.0" y="604.0" type="line"/>
    </contour>
    <contour>
      <point x="6.0" y="535.0" type="line"/>
      <point x="31.0" y="535.0" type="line"/>
      <point x="39.0" y="596.0" type="line"/>
      <point x="29.0" y="607.0" type="line"/>
      <point x="0.0" y="604.0" type="line"/>
    </contour>
  </outline>
</glyph>
<glyph name="copyright" format="2">
  <advance width="771.0"/>
  <unicode hex="00A9"/>
  <outline>
    <contour>
      <point x="385.0" y="118.0" type="curve" smooth="yes"/>
      <point x="581.0" y="118.0"/>
      <point x="681.0" y="277.0"/>
      <point x="681.0" y="434.0" type="curve" smooth="yes"/>
      <point x="681.0" y="590.0"/>
      <point x="583.0" y="745.0"/>
      <point x="385.0" y="745.0" type="curve" smooth="yes"/>
      <point x="190.0" y="745.0"/>
      <point x="90.0" y="585.0"/>
      <point x="90.0" y="427.0" type="curve" smooth="yes"/>
      <point x="90.0" y="272.0"/>
      <point x="186.0" y="118.0"/>
    </contour>
    <contour>
      <point x="374.0" y="257.0" type="curve" smooth="yes"/>
      <point x="386.0" y="257.0"/>
      <point x="423.0" y="261.0"/>
      <point x="452.0" y="267.0" type="curve"/>
      <point x="452.0" y="285.0" type="line"/>
      <point x="376.0" y="281.0" type="line"/>
      <point x="302.0" y="281.0"/>
      <point x="283.0" y="373.0"/>
      <point x="283.0" y="461.0" type="curve" smooth="yes"/>
      <point x="283.0" y="558.0"/>
      <point x="345.0" y="599.0"/>
      <point x="364.0" y="599.0" type="curve" smooth="yes"/>
      <point x="380.0" y="599.0"/>
      <point x="412.0" y="594.0"/>
      <point x="433.0" y="590.0" type="curve"/>
      <point x="437.0" y="514.0" type="line"/>
      <point x="454.0" y="514.0" type="line"/>
      <point x="462.0" y="613.0" type="line"/>
      <point x="432.0" y="617.0"/>
      <point x="373.0" y="622.0"/>
      <point x="359.0" y="622.0" type="curve" smooth="yes"/>
      <point x="339.0" y="622.0"/>
      <point x="289.0" y="580.0"/>
      <point x="271.0" y="540.0" type="curve"/>
      <point x="261.0" y="513.0"/>
      <point x="256.0" y="482.0"/>
      <point x="256.0" y="451.0" type="curve" smooth="yes"/>
      <point x="256.0" y="348.0"/>
      <point x="287.0" y="257.0"/>
    </contour>
    <contour>
      <point x="385.0" y="139.0" type="curve" smooth="yes"/>
      <point x="203.0" y="139.0"/>
      <point x="113.0" y="283.0"/>
      <point x="113.0" y="428.0" type="curve" smooth="yes"/>
      <point x="113.0" y="575.0"/>
      <point x="206.0" y="724.0"/>
      <point x="385.0" y="724.0" type="curve" smooth="yes"/>
      <point x="567.0" y="724.0"/>
      <point x="657.0" y="579.0"/>
      <point x="657.0" y="434.0" type="curve" smooth="yes"/>
      <point x="657.0" y="287.0"/>
      <point x="565.0" y="139.0"/>
    </contour>
  </outline>
</glyph>
<glyph name="ordfeminine" format="2">
  <advance width="377.0"/>
  <unicode hex="00AA"/>
  <outline>
    <contour>
      <point x="175.0" y="320.0" type="curve" smooth="yes"/>
      <point x="181.0" y="320.0"/>
      <point x="227.0" y="359.0"/>
      <point x="257.0" y="383.0" type="curve"/>
      <point x="256.0" y="333.0" type="line" smooth="yes"/>
      <point x="256.0" y="330.0"/>
      <point x="269.0" y="320.0"/>
      <point x="272.0" y="320.0" type="curve" smooth="yes"/>
      <point x="279.0" y="320.0"/>
      <point x="331.0" y="329.0"/>
      <point x="331.0" y="329.0" type="curve"/>
      <point x="331.0" y="343.0" type="line"/>
      <point x="285.0" y="343.0" type="line"/>
      <point x="285.0" y="672.0" type="line"/>
      <point x="249.0" y="677.0"/>
      <point x="186.0" y="686.0"/>
      <point x="169.0" y="686.0" type="curve" smooth="yes"/>
      <point x="154.0" y="686.0"/>
      <point x="104.0" y="659.0"/>
      <point x="72.0" y="614.0" type="curve"/>
      <point x="57.0" y="587.0"/>
      <point x="46.0" y="540.0"/>
      <point x="46.0" y="485.0" type="curve" smooth="yes"/>
      <point x="46.0" y="404.0"/>
      <point x="72.0" y="320.0"/>
    </contour>
    <contour>
      <point x="173.0" y="346.0" type="curve" smooth="yes"/>
      <point x="127.0" y="346.0"/>
      <point x="75.0" y="367.0"/>
      <point x="75.0" y="491.0" type="curve" smooth="yes"/>
      <point x="75.0" y="638.0"/>
      <point x="157.0" y="660.0"/>
      <point x="177.0" y="660.0" type="curve" smooth="yes"/>
      <point x="193.0" y="660.0"/>
      <point x="227.0" y="654.0"/>
      <point x="256.0" y="648.0" type="curve"/>
      <point x="256.0" y="411.0" type="line"/>
      <point x="227.0" y="386.0"/>
      <point x="182.0" y="346.0"/>
    </contour>
  </outline>
</glyph>
<glyph name="guillemetleft" format="2">
  <advance width="407.0"/>
  <unicode hex="00AB"/>
  <outline>
    <contour>
      <point x="327.0" y="54.0" type="line"/>
      <point x="342.0" y="66.0" type="line"/>
      <point x="228.0" y="226.0" type="line"/>
      <point x="228.0" y="237.0" type="line"/>
      <point x="342.0" y="397.0" type="line"/>
      <point x="327.0" y="409.0" type="line"/>
      <point x="195.0" y="240.0" type="line"/>
      <point x="195.0" y="223.0" type="line"/>
    </contour>
    <contour>
      <point x="177.0" y="54.0" type="line"/>
      <point x="192.0" y="66.0" type="line"/>
      <point x="78.0" y="226.0" type="line"/>
      <point x="78.0" y="237.0" type="line"/>
      <point x="192.0" y="397.0" type="line"/>
      <point x="177.0" y="409.0" type="line"/>
      <point x="45.0" y="240.0" type="line"/>
      <point x="45.0" y="223.0" type="line"/>
    </contour>
  </outline>
</glyph>
<glyph name="logicalnot" format="2">
  <advance width="478.0"/>
  <unicode hex="00AC"/>
  <outline>
    <contour>
      <point x="30.0" y="291.0" type="line"/>
      <point x="438.0" y="291.0" type="line"/>
      <point x="438.0" y="314.0" type="line"/>
      <point x="30.0" y="314.0" type="line"/>
    </contour>
    <contour>
      <point x="415.0" y="159.0" type="line"/>
      <point x="438.0" y="159.0" type="line"/>
      <point x="438.0" y="314.0" type="line"/>
      <point x="415.0" y="314.0" type="line"/>
    </contour>
  </outline>
</glyph>
<glyph name="registered" format="2">
  <advance width="595.0"/>
  <unicode hex="00AE"/>
  <outline>
    <contour>
      <point x="298.0" y="283.0" type="curve" smooth="yes"/>
      <point x="406.0" y="283.0"/>
      <point x="515.0" y="365.0"/>
      <point x="515.0" y="509.0" type="curve" smooth="yes"/>
      <point x="515.0" y="646.0"/>
      <point x="430.0" y="744.0"/>
      <point x="297.0" y="744.0" type="curve" smooth="yes"/>
      <point x="189.0" y="744.0"/>
      <point x="80.0" y="660.0"/>
      <point x="80.0" y="517.0" type="curve" smooth="yes"/>
      <point x="80.0" y="379.0"/>
      <point x="165.0" y="283.0"/>
    </contour>
    <contour>
      <point x="297.0" y="305.0" type="curve" smooth="yes"/>
      <point x="180.0" y="305.0"/>
      <point x="104.0" y="390.0"/>
      <point x="104.0" y="515.0" type="curve" smooth="yes"/>
      <point x="104.0" y="646.0"/>
      <point x="201.0" y="722.0"/>
      <point x="298.0" y="722.0" type="curve" smooth="yes"/>
      <point x="416.0" y="722.0"/>
      <point x="491.0" y="637.0"/>
      <point x="491.0" y="510.0" type="curve" smooth="yes"/>
      <point x="491.0" y="378.0"/>
      <point x="394.0" y="305.0"/>
    </contour>
    <contour>
      <point x="212.0" y="383.0" type="line"/>
      <point x="286.0" y="383.0" type="line"/>
      <point x="286.0" y="395.0" type="line"/>
      <point x="259.0" y="398.0" type="line"/>
      <point x="259.0" y="501.0" type="line"/>
      <point x="299.0" y="501.0" type="line"/>
      <point x="359.0" y="383.0" type="line"/>
      <point x="402.0" y="383.0" type="line"/>
      <point x="402.0" y="395.0" type="line"/>
      <point x="373.0" y="399.0" type="line"/>
      <point x="321.0" y="501.0" type="line"/>
      <point x="321.0" y="505.0" type="line"/>
      <point x="352.0" y="516.0"/>
      <point x="369.0" y="552.0"/>
      <point x="369.0" y="589.0" type="curve" smooth="yes"/>
      <point x="369.0" y="636.0"/>
      <point x="350.0" y="658.0"/>
      <point x="305.0" y="658.0" type="curve" smooth="yes"/>
      <point x="210.0" y="658.0" type="line"/>
      <point x="210.0" y="645.0" type="line"/>
      <point x="237.0" y="641.0" type="line"/>
      <point x="237.0" y="398.0" type="line"/>
      <point x="212.0" y="394.0" type="line"/>
    </contour>
    <contour>
      <point x="259.0" y="519.0" type="line"/>
      <point x="259.0" y="639.0" type="line"/>
      <point x="314.0" y="641.0" type="line"/>
      <point x="342.0" y="641.0"/>
      <point x="347.0" y="618.0"/>
      <point x="347.0" y="585.0" type="curve" smooth="yes"/>
      <point x="347.0" y="548.0"/>
      <point x="334.0" y="519.0"/>
      <point x="304.0" y="519.0" type="curve" smooth="yes"/>
    </contour>
  </outline>
</glyph>
<glyph name="macron" format="2">
  <advance width="218.0"/>
  <unicode hex="00AF"/>
  <outline>
    <contour>
      <point x="0.0" y="547.0" type="line"/>
      <point x="218.0" y="547.0" type="line"/>
      <point x="218.0" y="569.0" type="line"/>
      <point x="0.0" y="569.0" type="line"/>
    </contour>
  </outline>
</glyph>
<glyph name="degree" format="2">
  <advance width="310.0"/>
  <unicode hex="00B0"/>
  <outline>
    <contour>
      <point x="153.0" y="389.0" type="curve" smooth="yes"/>
      <point x="224.0" y="389.0"/>
      <point x="260.0" y="444.0"/>
      <point x="260.0" y="498.0" type="curve" smooth="yes"/>
      <point x="260.0" y="550.0"/>
      <point x="226.0" y="602.0"/>
      <point x="157.0" y="602.0" type="curve" smooth="yes"/>
      <point x="86.0" y="602.0"/>
      <point x="50.0" y="547.0"/>
      <point x="50.0" y="493.0" type="curve" smooth="yes"/>
      <point x="50.0" y="441.0"/>
      <point x="84.0" y="389.0"/>
    </contour>
    <contour>
      <point x="155.0" y="407.0" type="curve" smooth="yes"/>
      <point x="100.0" y="407.0"/>
      <point x="72.0" y="451.0"/>
      <point x="72.0" y="496.0" type="curve" smooth="yes"/>
      <point x="72.0" y="540.0"/>
      <point x="100.0" y="584.0"/>
      <point x="155.0" y="584.0" type="curve" smooth="yes"/>
      <point x="210.0" y="584.0"/>
      <point x="237.0" y="540.0"/>
      <point x="237.0" y="496.0" type="curve" smooth="yes"/>
      <point x="237.0" y="451.0"/>
      <point x="210.0" y="407.0"/>
    </contour>
  </outline>
</glyph>
<glyph name="plusminus" format="2">
  <advance width="589.0"/>
  <unicode hex="00B1"/>
  <outline>
    <contour>
      <point x="277.0" y="114.0" type="line"/>
      <point x="303.0" y="114.0" type="line"/>
      <point x="303.0" y="515.0" type="line"/>
      <point x="277.0" y="515.0" type="line"/>
    </contour>
    <contour>
      <point x="102.0" y="13.0" type="line"/>
      <point x="494.0" y="13.0" type="line"/>
      <point x="494.0" y="37.0" type="line"/>
      <point x="102.0" y="37.0" type="line"/>
    </contour>
    <contour>
      <point x="95.0" y="303.0" type="line"/>
      <point x="487.0" y="303.0" type="line"/>
      <point x="487.0" y="327.0" type="line"/>
      <point x="95.0" y="327.0" type="line"/>
    </contour>
  </outline>
</glyph>
<glyph name="twosuperior" format="2">
  <advance width="361.0"/>
  <unicode hex="00B2"/>
  <outline>
    <contour>
      <point x="69.0" y="363.0" type="line"/>
      <point x="301.0" y="363.0" type="line"/>
      <point x="281.0" y="388.0" type="line"/>
      <point x="108.0" y="388.0" type="line"/>
      <point x="108.0" y="394.0" type="line"/>
      <point x="249.0" y="557.0" type="line" smooth="yes"/>
      <point x="273.0" y="585.0"/>
      <point x="284.0" y="614.0"/>
      <point x="284.0" y="637.0" type="curve" smooth="yes"/>
      <point x="284.0" y="685.0"/>
      <point x="258.0" y="711.0"/>
      <point x="208.0" y="711.0" type="curve" smooth="yes"/>
      <point x="183.0" y="711.0"/>
      <point x="130.0" y="703.0"/>
      <point x="81.0" y="696.0" type="curve"/>
      <point x="96.0" y="675.0" type="line"/>
      <point x="130.0" y="679.0"/>
      <point x="205.0" y="689.0"/>
      <point x="215.0" y="689.0" type="curve" smooth="yes"/>
      <point x="239.0" y="689.0"/>
      <point x="256.0" y="671.0"/>
      <point x="256.0" y="639.0" type="curve" smooth="yes"/>
      <point x="256.0" y="622.0"/>
      <point x="250.0" y="599.0"/>
      <point x="236.0" y="582.0" type="curve" smooth="yes"/>
      <point x="64.0" y="383.0" type="line"/>
    </contour>
    <contour>
      <point x="272.0" y="363.0" type="line"/>
      <point x="301.0" y="363.0" type="line"/>
      <point x="299.0" y="479.0" type="line"/>
      <point x="280.0" y="479.0" type="line"/>
    </contour>
    <contour>
      <point x="85.0" y="593.0" type="line"/>
      <point x="102.0" y="593.0" type="line"/>
      <point x="108.0" y="696.0" type="line"/>
      <point x="81.0" y="696.0" type="line"/>
    </contour>
  </outline>
</glyph>
<glyph name="threesuperior" format="2">
  <advance width="363.0"/>
  <unicode hex="00B3"/>
  <outline>
    <contour>
      <point x="175.0" y="355.0" type="curve" smooth="yes"/>
      <point x="225.0" y="355.0"/>
      <point x="284.0" y="420.0"/>
      <point x="284.0" y="479.0" type="curve" smooth="yes"/>
      <point x="284.0" y="520.0"/>
      <point x="256.0" y="549.0"/>
      <point x="210.0" y="552.0" type="curve"/>
      <point x="208.0" y="562.0" type="line"/>
      <point x="146.0" y="532.0" type="line"/>
      <point x="199.0" y="532.0" type="line" smooth="yes"/>
      <point x="246.0" y="532.0"/>
      <point x="254.0" y="510.0"/>
      <point x="258.0" y="483.0" type="curve" smooth="yes"/>
      <point x="263.0" y="450.0"/>
      <point x="235.0" y="404.0"/>
      <point x="200.0" y="383.0" type="curve" smooth="yes"/>
      <point x="184.0" y="374.0"/>
      <point x="133.0" y="381.0"/>
      <point x="95.0" y="383.0" type="curve"/>
      <point x="92.0" y="362.0" type="line"/>
      <point x="126.0" y="357.0"/>
      <point x="166.0" y="355.0"/>
    </contour>
    <contour>
      <point x="91.0" y="605.0" type="line"/>
      <point x="108.0" y="605.0" type="line"/>
      <point x="116.0" y="708.0" type="line"/>
      <point x="89.0" y="708.0" type="line"/>
    </contour>
    <contour>
      <point x="146.0" y="532.0" type="line"/>
      <point x="233.0" y="551.0"/>
      <point x="268.0" y="603.0"/>
      <point x="268.0" y="649.0" type="curve" smooth="yes"/>
      <point x="268.0" y="690.0"/>
      <point x="242.0" y="718.0"/>
      <point x="191.0" y="718.0" type="curve" smooth="yes"/>
      <point x="176.0" y="718.0"/>
      <point x="134.0" y="713.0"/>
      <point x="99.0" y="708.0" type="curve"/>
      <point x="112.0" y="687.0" type="line"/>
      <point x="128.0" y="690.0"/>
      <point x="182.0" y="697.0"/>
      <point x="192.0" y="697.0" type="curve" smooth="yes"/>
      <point x="226.0" y="697.0"/>
      <point x="241.0" y="678.0"/>
      <point x="241.0" y="646.0" type="curve" smooth="yes"/>
      <point x="241.0" y="605.0"/>
      <point x="207.0" y="567.0"/>
      <point x="147.0" y="552.0" type="curve"/>
    </contour>
  </outline>
</glyph>
<glyph name="acute" format="2">
  <advance width="137.0"/>
  <unicode hex="00B4"/>
  <outline>
    <contour>
      <point x="10.0" y="537.0" type="line"/>
      <point x="137.0" y="620.0" type="line"/>
      <point x="136.0" y="634.0" type="line"/>
      <point x="120.0" y="648.0" type="line"/>
      <point x="0.0" y="549.0" type="line"/>
    </contour>
  </outline>
</glyph>
<glyph name="paragraph" format="2">
  <advance width="592.0"/>
  <unicode hex="00B6"/>
  <outline>
    <contour>
      <point x="246.0" y="0.0" type="line"/>
      <point x="349.0" y="0.0" type="line"/>
      <point x="349.0" y="591.0" type="line"/>
      <point x="228.0" y="591.0" type="line" smooth="yes"/>
      <point x="118.0" y="591.0"/>
      <point x="66.0" y="530.0"/>
      <point x="66.0" y="432.0" type="curve" smooth="yes"/>
      <point x="66.0" y="293.0"/>
      <point x="122.0" y="224.0"/>
      <point x="251.0" y="223.0" type="curve" smooth="yes"/>
      <point x="321.0" y="222.186" type="line"/>
      <point x="321.0" y="27.0" type="line"/>
      <point x="246.0" y="21.0" type="line"/>
    </contour>
    <contour>
      <point x="411.0" y="0.0" type="line"/>
      <point x="498.0" y="0.0" type="line"/>
      <point x="498.0" y="20.0" type="line"/>
      <point x="439.0" y="25.0" type="line"/>
      <point x="439.0" y="559.74" type="line"/>
      <point x="498.0" y="572.0" type="line"/>
      <point x="498.0" y="591.0" type="line"/>
      <point x="411.0" y="591.0" type="line"/>
    </contour>
  </outline>
</glyph>
<glyph name="onesuperior" format="2">
  <advance width="357.0"/>
  <unicode hex="00B9"/>
  <outline>
    <contour>
      <point x="184.0" y="363.0" type="line"/>
      <point x="213.0" y="363.0" type="line"/>
      <point x="213.0" y="696.0" type="line"/>
      <point x="184.0" y="686.0" type="line"/>
    </contour>
    <contour>
      <point x="99.0" y="363.0" type="line"/>
      <point x="292.0" y="363.0" type="line"/>
      <point x="292.0" y="382.0" type="line"/>
      <point x="192.0" y="391.0" type="line"/>
      <point x="99.0" y="382.0" type="line"/>
    </contour>
    <contour>
      <point x="86.0" y="661.0" type="line"/>
      <point x="196.0" y="678.0" type="line"/>
      <point x="213.0" y="696.0" type="line"/>
      <point x="192.0" y="712.0" type="line"/>
      <point x="86.0" y="682.0" type="line"/>
    </contour>
  </outline>
</glyph>
<glyph name="ordmasculine" format="2">
  <advance width="366.0"/>
  <unicode hex="00BA"/>
  <outline>
    <contour>
      <point x="189.0" y="317.0" type="curve" smooth="yes"/>
      <point x="207.0" y="317.0"/>
      <point x="266.0" y="351.0"/>
      <point x="288.0" y="378.0" type="curve"/>
      <point x="307.0" y="404.0"/>
      <point x="320.0" y="462.0"/>
      <point x="320.0" y="515.0" type="curve" smooth="yes"/>
      <point x="320.0" y="631.0"/>
      <point x="266.0" y="686.0"/>
      <point x="172.0" y="686.0" type="curve" smooth="yes"/>
      <point x="157.0" y="686.0"/>
      <point x="103.0" y="659.0"/>
      <point x="72.0" y="615.0" type="curve"/>
      <point x="57.0" y="586.0"/>
      <point x="46.0" y="539.0"/>
      <point x="46.0" y="487.0" type="curve" smooth="yes"/>
      <point x="46.0" y="368.0"/>
      <point x="102.0" y="317.0"/>
    </contour>
    <contour>
      <point x="184.0" y="341.0" type="curve" smooth="yes"/>
      <point x="103.0" y="341.0"/>
      <point x="75.0" y="407.0"/>
      <point x="75.0" y="489.0" type="curve" smooth="yes"/>
      <point x="75.0" y="565.0"/>
      <point x="91.0" y="607.0"/>
      <point x="126.0" y="636.0" type="curve" smooth="yes"/>
      <point x="145.0" y="652.0"/>
      <point x="166.0" y="662.0"/>
      <point x="178.0" y="662.0" type="curve" smooth="yes"/>
      <point x="250.0" y="662.0"/>
      <point x="291.0" y="609.0"/>
      <point x="291.0" y="513.0" type="curve" smooth="yes"/>
      <point x="291.0" y="451.0"/>
      <point x="278.0" y="407.0"/>
      <point x="262.0" y="389.0" type="curve"/>
      <point x="246.0" y="370.0"/>
      <point x="205.0" y="341.0"/>
    </contour>
  </outline>
</glyph>
<glyph name="guillemetright" format="2">
  <advance width="407.0"/>
  <unicode hex="00BB"/>
  <outline>
    <contour>
      <point x="230.0" y="54.0" type="line"/>
      <point x="362.0" y="223.0" type="line"/>
      <point x="362.0" y="240.0" type="line"/>
      <point x="230.0" y="409.0" type="line"/>
      <point x="215.0" y="397.0" type="line"/>
      <point x="329.0" y="237.0" type="line"/>
      <point x="329.0" y="226.0" type="line"/>
      <point x="215.0" y="66.0" type="line"/>
    </contour>
    <contour>
      <point x="80.0" y="54.0" type="line"/>
      <point x="212.0" y="223.0" type="line"/>
      <point x="212.0" y="240.0" type="line"/>
      <point x="80.0" y="409.0" type="line"/>
      <point x="65.0" y="397.0" type="line"/>
      <point x="179.0" y="237.0" type="line"/>
      <point x="179.0" y="226.0" type="line"/>
      <point x="65.0" y="66.0" type="line"/>
    </contour>
  </outline>
</glyph>
<glyph name="questiondown" format="2">
  <advance width="394.0"/>
  <unicode hex="00BF"/>
  <outline>
    <contour>
      <point x="195.0" y="-174.0" type="curve" smooth="yes"/>
      <point x="233.0" y="-174.0"/>
      <point x="281.0" y="-169.0"/>
      <point x="337.0" y="-163.0" type="curve"/>
      <point x="314.0" y="-137.0" type="line"/>
      <point x="266.0" y="-142.0"/>
      <point x="205.0" y="-149.0"/>
      <point x="178.0" y="-149.0" type="curve" smooth="yes"/>
      <point x="124.0" y="-149.0"/>
      <point x="103.0" y="-109.0"/>
      <point x="103.0" y="-64.0" type="curve" smooth="yes"/>
      <point x="103.0" y="7.0"/>
      <point x="150.0" y="52.0"/>
      <point x="196.0" y="98.0" type="curve" smooth="yes"/>
      <point x="233.0" y="135.0"/>
      <point x="264.0" y="169.0"/>
      <point x="262.0" y="211.0" type="curve" smooth="yes"/>
      <point x="259.0" y="276.0" type="line" smooth="yes"/>
      <point x="259.0" y="277.0"/>
      <point x="255.0" y="281.0"/>
      <point x="254.0" y="281.0" type="curve" smooth="yes"/>
      <point x="252.0" y="281.0"/>
      <point x="246.0" y="280.0"/>
      <point x="241.0" y="279.0" type="curve"/>
      <point x="235.0" y="178.0"/>
      <point x="225.0" y="164.0"/>
      <point x="171.0" y="112.0" type="curve" smooth="yes"/>
      <point x="123.0" y="66.0"/>
      <point x="72.0" y="10.0"/>
      <point x="72.0" y="-62.0" type="curve" smooth="yes"/>
      <point x="72.0" y="-146.0"/>
      <point x="110.0" y="-174.0"/>
    </contour>
    <contour>
      <point x="305.0" y="-163.0" type="line"/>
      <point x="336.0" y="-163.0" type="line"/>
      <point x="323.0" y="-12.0" type="line"/>
      <point x="306.0" y="-12.0" type="line"/>
    </contour>
    <contour>
      <point x="239.0" y="357.0" type="line"/>
      <point x="261.0" y="357.0" type="line"/>
      <point x="271.0" y="423.0" type="line" smooth="yes"/>
      <point x="271.0" y="425.0"/>
      <point x="263.0" y="434.0"/>
      <point x="261.0" y="434.0" type="curve" smooth="yes"/>
      <point x="253.0" y="434.0"/>
      <point x="244.0" y="433.0"/>
      <point x="234.0" y="430.0" type="curve"/>
    </contour>
  </outline>
</glyph>
<glyph name="AE" format="2">
  <advance width="753.0"/>
  <unicode hex="00C6"/>
  <anchor x="525.0" y="591.0" name="top"/>
  <outline>
    <contour>
      <point x="25.0" y="0.0" type="line"/>
      <point x="173.0" y="0.0" type="line"/>
      <point x="173.0" y="17.0" type="line"/>
      <point x="114.0" y="27.0" type="line"/>
      <point x="215.0" y="212.0" type="line"/>
      <point x="426.0" y="212.0" type="line"/>
      <point x="426.0" y="25.0" type="line"/>
      <point x="369.0" y="17.0" type="line"/>
      <point x="369.0" y="0.0" type="line"/>
      <point x="714.0" y="0.0" type="line"/>
      <point x="711.0" y="122.0" type="line"/>
      <point x="692.0" y="122.0" type="line"/>
      <point x="682.0" y="27.0" type="line"/>
      <point x="456.0" y="27.0" type="line"/>
      <point x="456.0" y="292.0" type="line"/>
      <point x="643.0" y="292.0" type="line"/>
      <point x="643.0" y="319.0" type="line"/>
      <point x="456.0" y="319.0" type="line"/>
      <point x="456.0" y="564.0" type="line"/>
      <point x="674.0" y="564.0" type="line"/>
      <point x="681.0" y="469.0" type="line"/>
      <point x="700.0" y="469.0" type="line"/>
      <point x="706.0" y="591.0" type="line"/>
      <point x="343.0" y="591.0" type="line"/>
      <point x="343.0" y="571.0" type="line"/>
      <point x="388.624" y="564.057" type="line"/>
      <point x="81.0" y="25.0" type="line"/>
      <point x="25.0" y="17.0" type="line"/>
    </contour>
    <contour>
      <point x="230.0" y="239.0" type="line"/>
      <point x="415.0" y="564.0" type="line"/>
      <point x="426.0" y="564.0" type="line"/>
      <point x="426.0" y="239.0" type="line"/>
    </contour>
  </outline>
</glyph>
<glyph name="multiply" format="2">
  <advance width="499.0"/>
  <unicode hex="00D7"/>
  <outline>
    <contour>
      <point x="108.0" y="80.0" type="line"/>
      <point x="90.0" y="99.0" type="line"/>
      <point x="389.0" y="394.0" type="line"/>
      <point x="409.0" y="374.0" type="line"/>
    </contour>
    <contour>
      <point x="391.0" y="80.0" type="line"/>
      <point x="90.0" y="374.0" type="line"/>
      <point x="110.0" y="394.0" type="line"/>
      <point x="409.0" y="99.0" type="line"/>
    </contour>
  </outline>
</glyph>
<glyph name="Thorn" format="2">
  <advance width="420.0"/>
  <unicode hex="00DE"/>
  <outline>
    <contour>
      <point x="47.0" y="0.0" type="line"/>
      <point x="195.0" y="0.0" type="line"/>
      <point x="195.0" y="18.0" type="line"/>
      <point x="134.0" y="27.0" type="line"/>
      <point x="134.0" y="564.0" type="line"/>
      <point x="195.0" y="573.0" type="line"/>
      <point x="195.0" y="591.0" type="line"/>
      <point x="47.0" y="591.0" type="line"/>
      <point x="47.0" y="574.0" type="line"/>
      <point x="104.0" y="566.0" type="line"/>
      <point x="104.0" y="25.0" type="line"/>
      <point x="47.0" y="17.0" type="line"/>
    </contour>
    <contour>
      <point x="118.0" y="147.0" type="line"/>
      <point x="235.0" y="147.0" type="line" smooth="yes"/>
      <point x="339.0" y="147.0"/>
      <point x="390.0" y="224.0"/>
      <point x="390.0" y="316.0" type="curve" smooth="yes"/>
      <point x="390.0" y="451.0"/>
      <point x="319.0" y="466.0"/>
      <point x="238.0" y="466.0" type="curve"/>
      <point x="118.0" y="466.0" type="line"/>
      <point x="118.0" y="439.0" type="line"/>
      <point x="247.0" y="439.0" type="line" smooth="yes"/>
      <point x="324.0" y="439.0"/>
      <point x="360.0" y="414.0"/>
      <point x="360.0" y="315.0" type="curve" smooth="yes"/>
      <point x="360.0" y="180.0"/>
      <point x="272.0" y="174.0"/>
      <point x="245.0" y="174.0" type="curve" smooth="yes"/>
      <point x="118.0" y="174.0" type="line"/>
    </contour>
  </outline>
</glyph>
<glyph name="germandbls" format="2">
  <advance width="391.0"/>
  <unicode hex="00DF"/>
  <outline>
    <contour>
      <point x="51.0" y="-175.0" type="curve" smooth="yes"/>
      <point x="78.0" y="-175.0"/>
      <point x="114.0" y="-121.0"/>
      <point x="114.0" y="-59.0" type="curve" smooth="yes"/>
      <point x="114.0" y="547.0" type="line" smooth="yes"/>
      <point x="114.0" y="574.0"/>
      <point x="145.0" y="609.0"/>
      <point x="150.0" y="610.0" type="curve" smooth="yes"/>
      <point x="167.0" y="614.0"/>
      <point x="196.0" y="610.0"/>
      <point x="219.0" y="606.0" type="curve" smooth="yes"/>
      <point x="254.0" y="598.0"/>
      <point x="290.0" y="578.0"/>
      <point x="290.0" y="537.0" type="curve" smooth="yes"/>
      <point x="290.0" y="481.0"/>
      <point x="215.0" y="425.0"/>
      <point x="215.0" y="347.0" type="curve" smooth="yes"/>
      <point x="215.0" y="253.0"/>
      <point x="349.0" y="193.0"/>
      <point x="349.0" y="131.0" type="curve" smooth="yes"/>
      <point x="349.0" y="81.0"/>
      <point x="276.0" y="14.0"/>
      <point x="255.0" y="14.0" type="curve" smooth="yes"/>
      <point x="233.0" y="14.0"/>
      <point x="168.0" y="21.0"/>
      <point x="105.0" y="30.0" type="curve"/>
      <point x="106.0" y="4.0" type="line"/>
      <point x="171.0" y="-2.0"/>
      <point x="221.0" y="-9.0"/>
      <point x="259.0" y="-9.0" type="curve" smooth="yes"/>
      <point x="289.0" y="-9.0"/>
      <point x="353.0" y="58.0"/>
      <point x="369.0" y="95.0" type="curve"/>
      <point x="372.0" y="107.0"/>
      <point x="376.0" y="115.0"/>
      <point x="376.0" y="129.0" type="curve" smooth="yes"/>
      <point x="376.0" y="208.0"/>
      <point x="242.0" y="264.0"/>
      <point x="242.0" y="348.0" type="curve" smooth="yes"/>
      <point x="242.0" y="416.0"/>
      <point x="315.0" y="479.0"/>
      <point x="315.0" y="540.0" type="curve" smooth="yes"/>
      <point x="315.0" y="614.0"/>
      <point x="230.0" y="637.0"/>
      <point x="160.0" y="637.0" type="curve" smooth="yes"/>
      <point x="123.0" y="637.0"/>
      <point x="86.0" y="570.0"/>
      <point x="86.0" y="542.0" type="curve" smooth="yes"/>
      <point x="86.0" y="-45.0" type="line" smooth="yes"/>
      <point x="86.0" y="-92.0"/>
      <point x="71.0" y="-143.0"/>
      <point x="56.0" y="-147.0" type="curve" smooth="yes"/>
      <point x="47.0" y="-149.0"/>
      <point x="-3.0" y="-149.0"/>
      <point x="-25.0" y="-149.0" type="curve"/>
      <point x="-25.0" y="-164.0" type="line"/>
      <point x="1.0" y="-169.0"/>
      <point x="45.0" y="-175.0"/>
    </contour>
  </outline>
</glyph>
<glyph name="ae" format="2">
  <advance width="631.0"/>
  <unicode hex="00E6"/>
  <anchor x="340.0" y="440.0" name="top"/>
  <outline>
    <contour>
      <point x="216.0" y="-10.0" type="curve" smooth="yes"/>
      <point x="224.0" y="-10.0"/>
      <point x="293.0" y="50.0"/>
      <point x="331.0" y="81.0" type="curve"/>
      <point x="329.0" y="110.0" type="line"/>
      <point x="293.0" y="80.0"/>
      <point x="220.0" y="17.0"/>
      <point x="209.0" y="17.0" type="curve" smooth="yes"/>
      <point x="140.0" y="17.0"/>
      <point x="83.0" y="59.0"/>
      <point x="83.0" y="202.0" type="curve" smooth="yes"/>
      <point x="83.0" y="306.0"/>
      <point x="109.0" y="381.0"/>
      <point x="195.0" y="420.0" type="curve" smooth="yes"/>
      <point x="221.0" y="432.0"/>
      <point x="266.0" y="420.0"/>
      <point x="374.0" y="397.0" type="curve"/>
      <point x="404.0" y="420.0" type="line"/>
      <point x="359.0" y="427.0"/>
      <point x="230.0" y="450.0"/>
      <point x="209.0" y="450.0" type="curve" smooth="yes"/>
      <point x="190.0" y="450.0"/>
      <point x="127.0" y="417.0"/>
      <point x="87.0" y="360.0" type="curve"/>
      <point x="70.0" y="326.0"/>
      <point x="54.0" y="269.0"/>
      <point x="54.0" y="195.0" type="curve" smooth="yes"/>
      <point x="54.0" y="94.0"/>
      <point x="87.0" y="-10.0"/>
    </contour>
    <contour>
      <point x="460.0" y="-10.0" type="curve" smooth="yes"/>
      <point x="489.0" y="-10.0"/>
      <point x="543.0" y="1.0"/>
      <point x="580.0" y="8.0" type="curve"/>
      <point x="580.0" y="26.0" type="line"/>
      <point x="551.0" y="23.0"/>
      <point x="476.0" y="15.0"/>
      <point x="468.0" y="15.0" type="curve" smooth="yes"/>
      <point x="385.0" y="15.0"/>
      <point x="330.0" y="61.0"/>
      <point x="330.0" y="213.0" type="curve"/>
      <point x="597.0" y="238.0" type="line"/>
      <point x="595.0" y="394.0"/>
      <point x="547.0" y="450.0"/>
      <point x="456.0" y="450.0" type="curve" smooth="yes"/>
      <point x="437.0" y="450.0"/>
      <point x="372.0" y="417.0"/>
      <point x="333.0" y="360.0" type="curve"/>
      <point x="314.0" y="325.0"/>
      <point x="301.0" y="269.0"/>
      <point x="301.0" y="205.0" type="curve" smooth="yes"/>
      <point x="301.0" y="69.0"/>
      <point x="350.0" y="-10.0"/>
    </contour>
    <contour>
      <point x="331.0" y="238.0" type="line"/>
      <point x="335.0" y="323.0"/>
      <point x="360.0" y="363.0"/>
      <point x="395.0" y="392.0" type="curve" smooth="yes"/>
      <point x="419.0" y="412.0"/>
      <point x="445.0" y="425.0"/>
      <point x="460.0" y="425.0" type="curve" smooth="yes"/>
      <point x="536.0" y="425.0"/>
      <point x="564.0" y="358.0"/>
      <point x="567.0" y="260.0" type="curve"/>
    </contour>
  </outline>
</glyph>
<glyph name="eth" format="2">
  <advance width="393.0"/>
  <unicode hex="00F0"/>
  <outline>
    <contour>
      <point x="161.0" y="-9.0" type="curve" smooth="yes"/>
      <point x="282.0" y="-9.0"/>
      <point x="322.0" y="141.0"/>
      <point x="322.0" y="283.0" type="curve" smooth="yes"/>
      <point x="322.0" y="476.0"/>
      <point x="276.0" y="596.0"/>
      <point x="99.0" y="597.0" type="curve"/>
      <point x="106.0" y="578.0" type="line"/>
      <point x="250.0" y="573.0"/>
      <point x="293.0" y="476.0"/>
      <point x="293.0" y="284.0" type="curve" smooth="yes"/>
      <point x="293.0" y="166.0"/>
      <point x="268.0" y="15.0"/>
      <point x="168.0" y="15.0" type="curve" smooth="yes"/>
      <point x="112.0" y="15.0"/>
      <point x="81.0" y="102.0"/>
      <point x="81.0" y="174.0" type="curve" smooth="yes"/>
      <point x="81.0" y="251.0"/>
      <point x="110.0" y="335.0"/>
      <point x="188.0" y="335.0" type="curve" smooth="yes"/>
      <point x="206.0" y="335.0"/>
      <point x="272.0" y="313.0"/>
      <point x="299.0" y="300.0" type="curve"/>
      <point x="301.0" y="317.0" type="line"/>
      <point x="265.0" y="338.0"/>
      <point x="204.0" y="359.0"/>
      <point x="193.0" y="359.0" type="curve" smooth="yes"/>
      <point x="102.0" y="359.0"/>
      <point x="53.0" y="275.0"/>
      <point x="53.0" y="182.0" type="curve" smooth="yes"/>
      <point x="53.0" y="133.0"/>
      <point x="60.0" y="95.0"/>
      <point x="79.0" y="55.0" type="curve"/>
      <point x="99.0" y="21.0"/>
      <point x="149.0" y="-9.0"/>
    </contour>
    <contour>
      <point x="146.0" y="447.0" type="line"/>
      <point x="361.0" y="555.0" type="line"/>
      <point x="365.0" y="562.0" type="line"/>
      <point x="354.0" y="575.0" type="line"/>
      <point x="135.0" y="466.0" type="line"/>
      <point x="131.0" y="458.0" type="line"/>
    </contour>
  </outline>
</glyph>
<glyph name="thorn" format="2">
  <advance width="434.0"/>
  <unicode hex="00FE"/>
  <outline>
    <contour>
      <point x="107.0" y="-176.0" type="curve" smooth="yes"/>
      <point x="115.0" y="-176.0"/>
      <point x="163.0" y="-168.0"/>
      <point x="177.0" y="-164.0" type="curve"/>
      <point x="177.0" y="-147.0" type="line"/>
      <point x="119.0" y="-147.0" type="line"/>
      <point x="119.0" y="3.0" type="line"/>
      <point x="160.0" y="-3.0"/>
      <point x="208.0" y="-10.0"/>
      <point x="225.0" y="-10.0" type="curve" smooth="yes"/>
      <point x="244.0" y="-10.0"/>
      <point x="307.0" y="23.0"/>
      <point x="347.0" y="80.0" type="curve"/>
      <point x="364.0" y="114.0"/>
      <point x="380.0" y="171.0"/>
      <point x="380.0" y="245.0" type="curve" smooth="yes"/>
      <point x="380.0" y="346.0"/>
      <point x="347.0" y="450.0"/>
      <point x="218.0" y="450.0" type="curve" smooth="yes"/>
      <point x="210.0" y="450.0"/>
      <point x="156.0" y="403.0"/>
      <point x="118.0" y="371.0" type="curve"/>
      <point x="118.0" y="620.0" type="line"/>
      <point x="118.0" y="624.0"/>
      <point x="101.0" y="637.0"/>
      <point x="98.0" y="637.0" type="curve" smooth="yes"/>
      <point x="89.0" y="637.0"/>
      <point x="31.0" y="625.0"/>
      <point x="31.0" y="625.0" type="curve"/>
      <point x="31.0" y="608.0" type="line"/>
      <point x="89.0" y="608.0" type="line"/>
      <point x="90.0" y="11.0" type="line"/>
      <point x="87.0" y="-159.0" type="line" smooth="yes"/>
      <point x="87.0" y="-163.0"/>
      <point x="104.0" y="-176.0"/>
    </contour>
    <contour>
      <point x="239.0" y="20.0" type="curve" smooth="yes"/>
      <point x="213.0" y="8.0"/>
      <point x="154.0" y="23.0"/>
      <point x="119.0" y="31.0" type="curve"/>
      <point x="118.0" y="341.0" type="line"/>
      <point x="156.0" y="371.0"/>
      <point x="214.0" y="423.0"/>
      <point x="225.0" y="423.0" type="curve" smooth="yes"/>
      <point x="294.0" y="423.0"/>
      <point x="351.0" y="381.0"/>
      <point x="351.0" y="238.0" type="curve" smooth="yes"/>
      <point x="351.0" y="134.0"/>
      <point x="325.0" y="60.0"/>
    </contour>
  </outline>
</glyph>
<glyph name="idotless" format="2">
  <advance width="212.0"/>
  <unicode hex="0131"/>
  <anchor x="108.0" y="0.0" name="bottom"/>
  <anchor x="97.0" y="440.0" name="top"/>
  <outline>
    <contour>
      <point x="109.0" y="-10.0" type="curve" smooth="yes"/>
      <point x="118.0" y="-10.0"/>
      <point x="176.0" y="2.0"/>
      <point x="176.0" y="2.0" type="curve"/>
      <point x="176.0" y="19.0" type="line"/>
      <point x="118.0" y="19.0" type="line"/>
      <point x="118.0" y="433.0" type="line" smooth="yes"/>
      <point x="118.0" y="437.0"/>
      <point x="101.0" y="450.0"/>
      <point x="98.0" y="450.0" type="curve" smooth="yes"/>
      <point x="89.0" y="450.0"/>
      <point x="31.0" y="438.0"/>
      <point x="31.0" y="438.0" type="curve"/>
      <point x="31.0" y="421.0" type="line"/>
      <point x="89.0" y="421.0" type="line"/>
      <point x="89.0" y="7.0" type="line" smooth="yes"/>
      <point x="89.0" y="3.0"/>
      <point x="106.0" y="-10.0"/>
    </contour>
  </outline>
</glyph>
<glyph name="kgreenlandic" format="2">
  <advance width="446.0"/>
  <unicode hex="0138"/>
  <outline>
    <contour>
      <point x="358.0" y="-10.0" type="curve" smooth="yes"/>
      <point x="365.0" y="-10.0"/>
      <point x="416.0" y="2.0"/>
      <point x="416.0" y="2.0" type="curve"/>
      <point x="416.0" y="19.0" type="line"/>
      <point x="356.0" y="19.0" type="line"/>
      <point x="185.0" y="212.0" type="line"/>
      <point x="388.0" y="427.0" type="line"/>
      <point x="388.0" y="430.0"/>
      <point x="380.0" y="450.0"/>
      <point x="376.0" y="450.0" type="curve" smooth="yes"/>
      <point x="367.0" y="450.0"/>
      <point x="276.0" y="442.0"/>
      <point x="276.0" y="442.0" type="curve"/>
      <point x="276.0" y="422.0" type="line"/>
      <point x="348.0" y="422.0" type="line"/>
      <point x="157.0" y="213.0" type="line"/>
      <point x="157.0" y="206.0" type="line"/>
      <point x="329.0" y="7.0" type="line" smooth="yes"/>
      <point x="336.0" y="-1.0"/>
      <point x="352.0" y="-10.0"/>
    </contour>
    <contour>
      <point x="109.0" y="-10.0" type="curve" smooth="yes"/>
      <point x="118.0" y="-10.0"/>
      <point x="176.0" y="2.0"/>
      <point x="176.0" y="2.0" type="curve"/>
      <point x="176.0" y="19.0" type="line"/>
      <point x="118.0" y="19.0" type="line"/>
      <point x="118.0" y="433.0" type="line" smooth="yes"/>
      <point x="118.0" y="437.0"/>
      <point x="101.0" y="450.0"/>
      <point x="98.0" y="450.0" type="curve" smooth="yes"/>
      <point x="89.0" y="450.0"/>
      <point x="31.0" y="438.0"/>
      <point x="31.0" y="438.0" type="curve"/>
      <point x="31.0" y="421.0" type="line"/>
      <point x="89.0" y="421.0" type="line"/>
      <point x="89.0" y="7.0" type="line" smooth="yes"/>
      <point x="89.0" y="3.0"/>
      <point x="106.0" y="-10.0"/>
    </contour>
  </outline>
</glyph>
<glyph name="Eng" format="2">
  <advance width="532.0"/>
  <unicode hex="014A"/>
  <outline>
    <contour>
      <point x="408.0" y="-16.0" type="line"/>
      <point x="435.0" y="-5.0" type="line"/>
      <point x="435.0" y="566.0" type="line"/>
      <point x="492.0" y="574.0" type="line"/>
      <point x="492.0" y="591.0" type="line"/>
      <point x="344.0" y="591.0" type="line"/>
      <point x="344.0" y="573.0" type="line"/>
      <point x="405.0" y="564.0" type="line"/>
      <point x="405.0" y="544.0" type="line"/>
      <point x="408.0" y="58.0" type="line"/>
      <point x="402.0" y="58.0" type="line"/>
      <point x="402.0" y="58.0"/>
      <point x="386.0" y="100.0"/>
      <point x="367.0" y="138.0" type="curve" smooth="yes"/>
      <point x="143.0" y="591.0" type="line"/>
      <point x="47.0" y="591.0" type="line"/>
      <point x="47.0" y="574.0" type="line"/>
      <point x="104.0" y="566.0" type="line"/>
      <point x="104.0" y="25.0" type="line"/>
      <point x="47.0" y="17.0" type="line"/>
      <point x="47.0" y="0.0" type="line"/>
      <point x="195.0" y="0.0" type="line"/>
      <point x="195.0" y="18.0" type="line"/>
      <point x="134.0" y="27.0" type="line"/>
      <point x="134.0" y="46.0" type="line"/>
      <point x="131.0" y="542.0" type="line"/>
      <point x="137.0" y="542.0" type="line"/>
      <point x="137.0" y="542.0"/>
      <point x="169.0" y="481.0"/>
      <point x="185.0" y="448.0" type="curve" smooth="yes"/>
    </contour>
    <contour>
      <point x="351.0" y="-129.0" type="curve" smooth="yes"/>
      <point x="382.0" y="-129.0"/>
      <point x="435.0" y="-67.0"/>
      <point x="435.0" y="-5.0" type="curve"/>
      <point x="408.0" y="3.0" type="line"/>
      <point x="409.0" y="-67.0"/>
      <point x="358.0" y="-101.0"/>
      <point x="353.0" y="-101.0" type="curve" smooth="yes"/>
      <point x="343.0" y="-101.0"/>
      <point x="299.0" y="-101.0"/>
      <point x="285.0" y="-101.0" type="curve"/>
      <point x="285.0" y="-120.0" type="line"/>
      <point x="303.0" y="-123.0"/>
      <point x="340.0" y="-129.0"/>
    </contour>
  </outline>
</glyph>
<glyph name="eng" format="2">
  <advance width="422.0"/>
  <unicode hex="014B"/>
  <outline>
    <contour>
      <point x="299.0" y="-175.0" type="curve" smooth="yes"/>
      <point x="328.0" y="-175.0"/>
      <point x="368.0" y="-115.0"/>
      <point x="368.0" y="-53.0" type="curve" smooth="yes"/>
      <point x="368.0" y="276.0" type="line" smooth="yes"/>
      <point x="368.0" y="411.0"/>
      <point x="331.0" y="450.0"/>
      <point x="220.0" y="450.0" type="curve" smooth="yes"/>
      <point x="215.0" y="450.0"/>
      <point x="141.0" y="394.0"/>
      <point x="116.0" y="371.0" type="curve"/>
      <point x="118.0" y="433.0" type="line" smooth="yes"/>
      <point x="118.0" y="437.0"/>
      <point x="101.0" y="450.0"/>
      <point x="98.0" y="450.0" type="curve" smooth="yes"/>
      <point x="89.0" y="450.0"/>
      <point x="31.0" y="438.0"/>
      <point x="31.0" y="438.0" type="curve"/>
      <point x="31.0" y="421.0" type="line"/>
      <point x="89.0" y="421.0" type="line"/>
      <point x="89.0" y="7.0" type="line" smooth="yes"/>
      <point x="89.0" y="3.0"/>
      <point x="106.0" y="-10.0"/>
      <point x="109.0" y="-10.0" type="curve" smooth="yes"/>
      <point x="118.0" y="-10.0"/>
      <point x="176.0" y="2.0"/>
      <point x="176.0" y="2.0" type="curve"/>
      <point x="176.0" y="19.0" type="line"/>
      <point x="118.0" y="19.0" type="line"/>
      <point x="118.0" y="342.0" type="line"/>
      <point x="118.0" y="342.0"/>
      <point x="215.0" y="423.0"/>
      <point x="226.0" y="423.0" type="curve" smooth="yes"/>
      <point x="285.0" y="423.0"/>
      <point x="339.0" y="413.0"/>
      <point x="339.0" y="290.0" type="curve" smooth="yes"/>
      <point x="339.0" y="-53.0" type="line" smooth="yes"/>
      <point x="339.0" y="-116.0"/>
      <point x="310.0" y="-146.0"/>
      <point x="303.0" y="-147.0" type="curve" smooth="yes"/>
      <point x="280.0" y="-150.0"/>
      <point x="256.0" y="-149.0"/>
      <point x="233.0" y="-149.0" type="curve"/>
      <point x="233.0" y="-166.0" type="line"/>
      <point x="251.0" y="-169.0"/>
      <point x="288.0" y="-175.0"/>
    </contour>
  </outline>
</glyph>
<glyph name="OE" format="2">
  <advance width="722.0"/>
  <unicode hex="0152"/>
  <outline>
    <contour>
      <point x="275.0" y="0.0" type="curve" smooth="yes"/>
      <point x="422.0" y="0.0" type="line"/>
      <point x="407.0" y="33.0" type="line"/>
      <point x="367.0" y="27.0"/>
      <point x="348.0" y="25.0"/>
      <point x="294.0" y="25.0" type="curve" smooth="yes"/>
      <point x="181.0" y="25.0"/>
      <point x="85.0" y="66.0"/>
      <point x="85.0" y="307.0" type="curve" smooth="yes"/>
      <point x="85.0" y="424.0"/>
      <point x="121.0" y="473.0"/>
      <point x="160.0" y="508.0" type="curve" smooth="yes"/>
      <point x="202.0" y="546.0"/>
      <point x="236.0" y="562.0"/>
      <point x="254.0" y="562.0" type="curve" smooth="yes"/>
      <point x="308.0" y="562.0"/>
      <point x="351.0" y="561.0"/>
      <point x="399.0" y="555.0" type="curve"/>
      <point x="409.0" y="591.0" type="line"/>
      <point x="250.0" y="591.0" type="line" smooth="yes"/>
      <point x="221.0" y="591.0"/>
      <point x="136.0" y="537.0"/>
      <point x="90.0" y="465.0" type="curve"/>
      <point x="66.0" y="416.0"/>
      <point x="55.0" y="363.0"/>
      <point x="55.0" y="285.0" type="curve" smooth="yes"/>
      <point x="55.0" y="107.0"/>
      <point x="128.0" y="0.0"/>
    </contour>
    <contour>
      <point x="389.0" y="0.0" type="line"/>
      <point x="677.0" y="0.0" type="line"/>
      <point x="674.0" y="122.0" type="line"/>
      <point x="655.0" y="122.0" type="line"/>
      <point x="645.0" y="27.0" type="line"/>
      <point x="419.0" y="27.0" type="line"/>
      <point x="419.0" y="292.0" type="line"/>
      <point x="606.0" y="292.0" type="line"/>
      <point x="606.0" y="319.0" type="line"/>
      <point x="419.0" y="319.0" type="line"/>
      <point x="419.0" y="564.0" type="line"/>
      <point x="637.0" y="564.0" type="line"/>
      <point x="644.0" y="469.0" type="line"/>
      <point x="663.0" y="469.0" type="line"/>
      <point x="669.0" y="591.0" type="line"/>
      <point x="389.0" y="591.0" type="line"/>
    </contour>
  </outline>
</glyph>
<glyph name="longs" format="2">
  <advance width="209.0"/>
  <unicode hex="017F"/>
  <outline>
    <contour>
      <point x="102.0" y="-10.0" type="curve" smooth="yes"/>
      <point x="111.0" y="-10.0"/>
      <point x="169.0" y="2.0"/>
      <point x="169.0" y="2.0" type="curve"/>
      <point x="169.0" y="19.0" type="line"/>
      <point x="111.0" y="19.0" type="line"/>
      <point x="111.0" y="515.0" type="line" smooth="yes"/>
      <point x="111.0" y="586.0"/>
      <point x="141.0" y="611.0"/>
      <point x="145.0" y="611.0" type="curve" smooth="yes"/>
      <point x="169.0" y="611.0"/>
      <point x="249.0" y="600.0"/>
      <point x="249.0" y="600.0" type="curve"/>
      <point x="249.0" y="600.0"/>
      <point x="259.0" y="616.0"/>
      <point x="259.0" y="619.0" type="curve" smooth="yes"/>
      <point x="259.0" y="623.0"/>
      <point x="249.0" y="631.0"/>
      <point x="249.0" y="631.0" type="curve"/>
      <point x="249.0" y="631.0"/>
      <point x="184.0" y="637.0"/>
      <point x="151.0" y="637.0" type="curve" smooth="yes"/>
      <point x="112.0" y="637.0"/>
      <point x="82.0" y="580.0"/>
      <point x="82.0" y="513.0" type="curve" smooth="yes"/>
      <point x="82.0" y="442.0" type="line"/>
      <point x="35.0" y="433.0" type="line"/>
      <point x="35.0" y="415.0" type="line"/>
      <point x="82.0" y="415.0" type="line"/>
      <point x="82.0" y="7.0" type="line" smooth="yes"/>
      <point x="82.0" y="3.0"/>
      <point x="99.0" y="-10.0"/>
    </contour>
  </outline>
</glyph>
<glyph name="florin" format="2">
  <advance width="417.0"/>
  <unicode hex="0192"/>
  <outline>
    <contour>
      <point x="51.0" y="-175.0" type="curve" smooth="yes"/>
      <point x="73.0" y="-175.0"/>
      <point x="130.0" y="-108.0"/>
      <point x="135.0" y="-80.0" type="curve" smooth="yes"/>
      <point x="242.0" y="547.0" type="line" smooth="yes"/>
      <point x="247.0" y="574.0"/>
      <point x="284.0" y="610.0"/>
      <point x="289.0" y="610.0" type="curve" smooth="yes"/>
      <point x="304.0" y="610.0"/>
      <point x="370.0" y="599.0"/>
      <point x="390.0" y="593.0" type="curve"/>
      <point x="395.0" y="599.0"/>
      <point x="401.0" y="609.0"/>
      <point x="401.0" y="612.0" type="curve" smooth="yes"/>
      <point x="401.0" y="615.0"/>
      <point x="395.0" y="623.0"/>
      <point x="392.0" y="625.0" type="curve"/>
      <point x="369.0" y="631.0"/>
      <point x="305.0" y="637.0"/>
      <point x="296.0" y="637.0" type="curve" smooth="yes"/>
      <point x="274.0" y="637.0"/>
      <point x="217.0" y="570.0"/>
      <point x="212.0" y="542.0" type="curve" smooth="yes"/>
      <point x="105.0" y="-85.0" type="line" smooth="yes"/>
      <point x="100.0" y="-112.0"/>
      <point x="63.0" y="-148.0"/>
      <point x="58.0" y="-148.0" type="curve" smooth="yes"/>
      <point x="43.0" y="-148.0"/>
      <point x="-23.0" y="-137.0"/>
      <point x="-43.0" y="-131.0" type="curve"/>
      <point x="-48.0" y="-137.0"/>
      <point x="-54.0" y="-147.0"/>
      <point x="-54.0" y="-150.0" type="curve" smooth="yes"/>
      <point x="-54.0" y="-153.0"/>
      <point x="-48.0" y="-161.0"/>
      <point x="-45.0" y="-163.0" type="curve"/>
      <point x="-22.0" y="-169.0"/>
      <point x="42.0" y="-175.0"/>
    </contour>
    <contour>
      <point x="335.0" y="419.0" type="line"/>
      <point x="339.0" y="440.0" type="line"/>
      <point x="195.0" y="443.0" type="line"/>
      <point x="142.0" y="435.0" type="line"/>
      <point x="140.0" y="420.0" type="line"/>
    </contour>
  </outline>
</glyph>
<glyph name="Nhookleft" format="2">
  <advance width="532.0"/>
  <unicode hex="019D"/>
  <outline>
    <contour>
      <point x="51.0" y="-129.0" type="curve" smooth="yes"/>
      <point x="82.0" y="-129.0"/>
      <point x="134.0" y="-67.0"/>
      <point x="134.0" y="5.0" type="curve" smooth="yes"/>
      <point x="131.208" y="542.0" type="line"/>
      <point x="137.0" y="542.0" type="line"/>
      <point x="146.0" y="516.0"/>
      <point x="162.0" y="478.0"/>
      <point x="176.0" y="448.0" type="curve" smooth="yes"/>
      <point x="385.0" y="-2.0" type="line"/>
      <point x="399.0" y="-10.0" type="line"/>
      <point x="404.0" y="-10.0"/>
      <point x="424.0" y="-8.0"/>
      <point x="435.0" y="-5.0" type="curve"/>
      <point x="435.0" y="566.0" type="line"/>
      <point x="492.0" y="574.0" type="line"/>
      <point x="492.0" y="591.0" type="line"/>
      <point x="344.0" y="591.0" type="line"/>
      <point x="344.0" y="573.0" type="line"/>
      <point x="405.0" y="564.0" type="line"/>
      <point x="405.0" y="544.0" type="line"/>
      <point x="408.0" y="22.0" type="line"/>
      <point x="402.0" y="22.0" type="line"/>
      <point x="402.0" y="22.0"/>
      <point x="378.0" y="85.0"/>
      <point x="360.0" y="123.0" type="curve" smooth="yes"/>
      <point x="143.0" y="591.0" type="line"/>
      <point x="47.0" y="591.0" type="line"/>
      <point x="47.0" y="574.0" type="line"/>
      <point x="104.971" y="565.137" type="line"/>
      <point x="104.0" y="3.0" type="line" smooth="yes"/>
      <point x="104.0" y="-67.0"/>
      <point x="61.0" y="-97.0"/>
      <point x="54.0" y="-99.0" type="curve" smooth="yes"/>
      <point x="33.0" y="-104.0"/>
      <point x="7.0" y="-101.0"/>
      <point x="-15.0" y="-101.0" type="curve"/>
      <point x="-15.0" y="-120.0" type="line"/>
      <point x="3.0" y="-123.0"/>
      <point x="40.0" y="-129.0"/>
    </contour>
  </outline>
</glyph>
<glyph name="Uhorn" format="2">
  <advance width="528.0"/>
  <unicode hex="01AF"/>
  <anchor x="268.0" y="0.0" name="bottom"/>
  <anchor x="257.0" y="591.0" name="top"/>
  <outline>
    <contour>
      <point x="213.0" y="-10.0" type="curve" smooth="yes"/>
      <point x="248.0" y="-10.0"/>
      <point x="362.0" y="34.0"/>
      <point x="394.0" y="45.0" type="curve"/>
      <point x="402.0" y="0.0" type="line"/>
      <point x="481.0" y="0.0" type="line"/>
      <point x="481.0" y="20.0" type="line"/>
      <point x="424.0" y="25.0" type="line"/>
      <point x="424.0" y="591.0" type="line"/>
      <point x="333.0" y="591.0" type="line"/>
      <point x="333.0" y="571.0" type="line"/>
      <point x="394.0" y="564.0" type="line"/>
      <point x="394.0" y="71.0" type="line"/>
      <point x="336.0" y="50.0"/>
      <point x="253.0" y="19.0"/>
      <point x="206.0" y="19.0" type="curve" smooth="yes"/>
      <point x="154.0" y="19.0"/>
      <point x="127.0" y="50.0"/>
      <point x="127.0" y="128.0" type="curve" smooth="yes"/>
      <point x="127.0" y="564.0" type="line"/>
      <point x="188.0" y="571.0" type="line"/>
      <point x="188.0" y="591.0" type="line"/>
      <point x="40.0" y="591.0" type="line"/>
      <point x="40.0" y="571.0" type="line"/>
      <point x="97.0" y="566.0" type="line"/>
      <point x="97.0" y="136.0" type="line" smooth="yes"/>
      <point x="97.0" y="32.0"/>
      <point x="132.0" y="-10.0"/>
    </contour>
    <component base="horncomb.case" xOffset="421.0" yOffset="42.0"/>
  </outline>
</glyph>
<glyph name="schwa" format="2">
  <advance width="404.0"/>
  <unicode hex="0259"/>
  <outline>
    <contour>
      <point x="195.0" y="-10.0" type="curve" smooth="yes"/>
      <point x="214.0" y="-10.0"/>
      <point x="279.0" y="23.0"/>
      <point x="318.0" y="80.0" type="curve"/>
      <point x="337.0" y="115.0"/>
      <point x="350.0" y="171.0"/>
      <point x="350.0" y="235.0" type="curve" smooth="yes"/>
      <point x="350.0" y="371.0"/>
      <point x="301.0" y="450.0"/>
      <point x="191.0" y="450.0" type="curve" smooth="yes"/>
      <point x="162.0" y="450.0"/>
      <point x="108.0" y="439.0"/>
      <point x="71.0" y="432.0" type="curve"/>
      <point x="71.0" y="414.0" type="line"/>
      <point x="100.0" y="417.0"/>
      <point x="175.0" y="425.0"/>
      <point x="183.0" y="425.0" type="curve" smooth="yes"/>
      <point x="266.0" y="425.0"/>
      <point x="321.0" y="379.0"/>
      <point x="321.0" y="227.0" type="curve"/>
      <point x="54.0" y="202.0" type="line"/>
      <point x="56.0" y="46.0"/>
      <point x="104.0" y="-10.0"/>
    </contour>
    <contour>
      <point x="191.0" y="15.0" type="curve" smooth="yes"/>
      <point x="115.0" y="15.0"/>
      <point x="87.0" y="82.0"/>
      <point x="84.0" y="180.0" type="curve"/>
      <point x="320.0" y="202.0" type="line"/>
      <point x="316.0" y="117.0"/>
      <point x="291.0" y="77.0"/>
      <point x="256.0" y="48.0" type="curve" smooth="yes"/>
      <point x="232.0" y="28.0"/>
      <point x="206.0" y="15.0"/>
    </contour>
  </outline>
</glyph>
<glyph name="nhookleft" format="2">
  <advance width="444.0"/>
  <unicode hex="0272"/>
  <outline>
    <contour>
      <point x="39.0" y="-175.0" type="curve" smooth="yes"/>
      <point x="64.0" y="-175.0"/>
      <point x="108.0" y="-118.0"/>
      <point x="108.0" y="-61.0" type="curve" smooth="yes"/>
      <point x="108.0" y="342.0" type="line"/>
      <point x="108.0" y="342.0"/>
      <point x="205.0" y="423.0"/>
      <point x="216.0" y="423.0" type="curve" smooth="yes"/>
      <point x="275.0" y="423.0"/>
      <point x="329.0" y="413.0"/>
      <point x="329.0" y="290.0" type="curve" smooth="yes"/>
      <point x="329.0" y="7.0" type="line" smooth="yes"/>
      <point x="329.0" y="3.0"/>
      <point x="344.0" y="-10.0"/>
      <point x="349.0" y="-10.0" type="curve" smooth="yes"/>
      <point x="358.0" y="-10.0"/>
      <point x="416.0" y="2.0"/>
      <point x="416.0" y="2.0" type="curve"/>
      <point x="416.0" y="19.0" type="line"/>
      <point x="358.0" y="19.0" type="line"/>
      <point x="358.0" y="276.0" type="line" smooth="yes"/>
      <point x="358.0" y="411.0"/>
      <point x="321.0" y="450.0"/>
      <point x="210.0" y="450.0" type="curve" smooth="yes"/>
      <point x="205.0" y="450.0"/>
      <point x="131.0" y="394.0"/>
      <point x="106.0" y="371.0" type="curve"/>
      <point x="108.0" y="433.0" type="line" smooth="yes"/>
      <point x="108.0" y="437.0"/>
      <point x="91.0" y="450.0"/>
      <point x="88.0" y="450.0" type="curve" smooth="yes"/>
      <point x="79.0" y="450.0"/>
      <point x="21.0" y="438.0"/>
      <point x="21.0" y="438.0" type="curve"/>
      <point x="21.0" y="421.0" type="line"/>
      <point x="79.0" y="421.0" type="line"/>
      <point x="79.0" y="-53.0" type="line" smooth="yes"/>
      <point x="79.0" y="-116.0"/>
      <point x="50.0" y="-146.0"/>
      <point x="43.0" y="-147.0" type="curve" smooth="yes"/>
      <point x="20.0" y="-150.0"/>
      <point x="-4.0" y="-149.0"/>
      <point x="-27.0" y="-149.0" type="curve"/>
      <point x="-27.0" y="-166.0" type="line"/>
      <point x="-9.0" y="-169.0"/>
      <point x="28.0" y="-175.0"/>
    </contour>
  </outline>
</glyph>
<glyph name="primemod" format="2">
  <advance width="86.0"/>
  <unicode hex="02B9"/>
  <outline>
    <contour>
      <point x="21.0" y="495.0" type="line"/>
      <point x="44.0" y="552.0"/>
      <point x="68.0" y="618.0"/>
      <point x="86.0" y="671.0" type="curve" smooth="yes"/>
      <point x="87.0" y="674.0"/>
      <point x="80.0" y="687.0"/>
      <point x="77.0" y="687.0" type="curve" smooth="yes"/>
      <point x="67.0" y="687.0"/>
      <point x="56.0" y="686.0"/>
      <point x="45.0" y="682.0" type="curve"/>
      <point x="0.0" y="502.0" type="line"/>
    </contour>
  </outline>
</glyph>
<glyph name="doubleprimemod" format="2">
  <advance width="196.0"/>
  <unicode hex="02BA"/>
  <outline>
    <contour>
      <point x="131.0" y="495.0" type="line"/>
      <point x="154.0" y="552.0"/>
      <point x="178.0" y="618.0"/>
      <point x="196.0" y="671.0" type="curve" smooth="yes"/>
      <point x="197.0" y="674.0"/>
      <point x="190.0" y="687.0"/>
      <point x="187.0" y="687.0" type="curve" smooth="yes"/>
      <point x="177.0" y="687.0"/>
      <point x="166.0" y="686.0"/>
      <point x="155.0" y="682.0" type="curve"/>
      <point x="110.0" y="502.0" type="line"/>
    </contour>
    <contour>
      <point x="21.0" y="495.0" type="line"/>
      <point x="44.0" y="552.0"/>
      <point x="68.0" y="618.0"/>
      <point x="86.0" y="671.0" type="curve" smooth="yes"/>
      <point x="87.0" y="674.0"/>
      <point x="80.0" y="687.0"/>
      <point x="77.0" y="687.0" type="curve" smooth="yes"/>
      <point x="67.0" y="687.0"/>
      <point x="56.0" y="686.0"/>
      <point x="45.0" y="682.0" type="curve"/>
      <point x="0.0" y="502.0" type="line"/>
    </contour>
  </outline>
</glyph>
<glyph name="circumflex" format="2">
  <advance width="204.0"/>
  <unicode hex="02C6"/>
  <outline>
    <contour>
      <point x="12.0" y="519.0" type="line"/>
      <point x="98.0" y="613.0" type="line"/>
      <point x="106.0" y="613.0" type="line"/>
      <point x="192.0" y="519.0" type="line"/>
      <point x="204.0" y="529.0" type="line"/>
      <point x="121.0" y="644.0" type="line"/>
      <point x="83.0" y="644.0" type="line"/>
      <point x="0.0" y="529.0" type="line"/>
    </contour>
  </outline>
</glyph>
<glyph name="caron" format="2">
  <advance width="204.0"/>
  <unicode hex="02C7"/>
  <outline>
    <contour>
      <point x="83.0" y="519.0" type="line"/>
      <point x="121.0" y="519.0" type="line"/>
      <point x="204.0" y="634.0" type="line"/>
      <point x="192.0" y="644.0" type="line"/>
      <point x="106.0" y="550.0" type="line"/>
      <point x="98.0" y="550.0" type="line"/>
      <point x="12.0" y="644.0" type="line"/>
      <point x="0.0" y="634.0" type="line"/>
    </contour>
  </outline>
</glyph>
<glyph name="breve" format="2">
  <advance width="240.0"/>
  <unicode hex="02D8"/>
  <guideline x="117.0" y="582.0" angle="0.0"/>
  <outline>
    <contour>
      <point x="121.0" y="547.0" type="curve" smooth="yes"/>
      <point x="168.0" y="547.0"/>
      <point x="214.0" y="577.0"/>
      <point x="240.0" y="632.0" type="curve"/>
      <point x="228.0" y="640.0" type="line"/>
      <point x="200.0" y="596.0"/>
      <point x="161.0" y="574.0"/>
      <point x="121.0" y="574.0" type="curve" smooth="yes"/>
      <point x="80.0" y="574.0"/>
      <point x="39.0" y="596.0"/>
      <point x="12.0" y="640.0" type="curve"/>
      <point x="0.0" y="632.0" type="line"/>
      <point x="26.0" y="577.0"/>
      <point x="72.0" y="547.0"/>
    </contour>
  </outline>
</glyph>
<glyph name="dotaccent" format="2">
  <advance width="39.0"/>
  <unicode hex="02D9"/>
  <outline>
    <contour>
      <point x="6.0" y="535.0" type="line"/>
      <point x="31.0" y="535.0" type="line"/>
      <point x="39.0" y="596.0" type="line"/>
      <point x="29.0" y="607.0" type="line"/>
      <point x="0.0" y="604.0" type="line"/>
    </contour>
  </outline>
</glyph>
<glyph name="ring" format="2">
  <advance width="168.0"/>
  <unicode hex="02DA"/>
  <outline>
    <contour>
      <point x="84.0" y="531.0" type="curve" smooth="yes"/>
      <point x="139.0" y="531.0"/>
      <point x="168.0" y="570.0"/>
      <point x="168.0" y="622.0" type="curve" smooth="yes"/>
      <point x="168.0" y="679.0"/>
      <point x="133.0" y="704.0"/>
      <point x="84.0" y="704.0" type="curve" smooth="yes"/>
      <point x="29.0" y="704.0"/>
      <point x="0.0" y="665.0"/>
      <point x="0.0" y="613.0" type="curve" smooth="yes"/>
      <point x="0.0" y="556.0"/>
      <point x="35.0" y="531.0"/>
    </contour>
    <contour>
      <point x="83.0" y="550.0" type="curve" smooth="yes"/>
      <point x="48.0" y="550.0"/>
      <point x="22.0" y="561.0"/>
      <point x="22.0" y="617.0" type="curve" smooth="yes"/>
      <point x="22.0" y="641.0"/>
      <point x="28.0" y="661.0"/>
      <point x="40.0" y="673.0" type="curve"/>
      <point x="52.0" y="682.0"/>
      <point x="66.0" y="685.0"/>
      <point x="85.0" y="685.0" type="curve" smooth="yes"/>
      <point x="120.0" y="685.0"/>
      <point x="146.0" y="674.0"/>
      <point x="146.0" y="618.0" type="curve" smooth="yes"/>
      <point x="146.0" y="594.0"/>
      <point x="140.0" y="574.0"/>
      <point x="128.0" y="562.0" type="curve"/>
      <point x="116.0" y="553.0"/>
      <point x="102.0" y="550.0"/>
    </contour>
  </outline>
</glyph>
<glyph name="tilde" format="2">
  <advance width="252.0"/>
  <unicode hex="02DC"/>
  <anchor x="124.0" y="440.0" name="_top"/>
  <outline>
    <contour>
      <point x="196.0" y="566.0" type="curve" smooth="yes"/>
      <point x="210.0" y="566.0"/>
      <point x="236.0" y="588.0"/>
      <point x="252.0" y="605.0" type="curve"/>
      <point x="241.0" y="617.0" type="line"/>
      <point x="223.0" y="602.0"/>
      <point x="211.0" y="593.0"/>
      <point x="192.0" y="593.0" type="curve" smooth="yes"/>
      <point x="159.0" y="593.0"/>
      <point x="99.0" y="619.0"/>
      <point x="56.0" y="619.0" type="curve" smooth="yes"/>
      <point x="42.0" y="619.0"/>
      <point x="16.0" y="598.0"/>
      <point x="0.0" y="580.0" type="curve"/>
      <point x="11.0" y="568.0" type="line"/>
      <point x="29.0" y="583.0"/>
      <point x="41.0" y="592.0"/>
      <point x="60.0" y="592.0" type="curve" smooth="yes"/>
      <point x="93.0" y="592.0"/>
      <point x="153.0" y="566.0"/>
    </contour>
  </outline>
</glyph>
<glyph name="hungarumlaut" format="2">
  <advance width="248.0"/>
  <unicode hex="02DD"/>
  <outline>
    <contour>
      <point x="10.0" y="536.0" type="line"/>
      <point x="129.0" y="620.0" type="line"/>
      <point x="128.0" y="634.0" type="line"/>
      <point x="111.0" y="648.0" type="line"/>
      <point x="0.0" y="548.0" type="line"/>
    </contour>
    <contour>
      <point x="129.0" y="536.0" type="line"/>
      <point x="248.0" y="620.0" type="line"/>
      <point x="247.0" y="634.0" type="line"/>
      <point x="230.0" y="648.0" type="line"/>
      <point x="119.0" y="548.0" type="line"/>
    </contour>
  </outline>
</glyph>
<glyph name="hookabovecomb" format="2">
  <unicode hex="0309"/>
  <anchor x="56.0" y="440.0" name="_top"/>
  <anchor x="56.0" y="678.0" name="top"/>
  <outline>
    <contour>
      <point x="34.0" y="520.0" type="line"/>
      <point x="97.0" y="553.0"/>
      <point x="108.0" y="593.0"/>
      <point x="111.0" y="603.0" type="curve"/>
      <point x="112.0" y="607.0"/>
      <point x="113.0" y="615.0"/>
      <point x="113.0" y="619.0" type="curve" smooth="yes"/>
      <point x="113.0" y="658.0"/>
      <point x="83.0" y="678.0"/>
      <point x="44.0" y="678.0" type="curve" smooth="yes"/>
      <point x="30.0" y="678.0"/>
      <point x="16.0" y="676.0"/>
      <point x="0.0" y="671.0" type="curve"/>
      <point x="5.0" y="651.0" type="line"/>
      <point x="15.0" y="654.0"/>
      <point x="25.0" y="656.0"/>
      <point x="35.0" y="656.0" type="curve" smooth="yes"/>
      <point x="62.0" y="656.0"/>
      <point x="86.0" y="644.0"/>
      <point x="86.0" y="614.0" type="curve" smooth="yes"/>
      <point x="86.0" y="589.0"/>
      <point x="66.0" y="559.0"/>
      <point x="25.0" y="535.0" type="curve"/>
    </contour>
  </outline>
</glyph>
<glyph name="dblgravecomb" format="2">
  <unicode hex="030F"/>
  <anchor x="158.0" y="440.0" name="_top"/>
  <anchor x="158.0" y="650.0" name="top"/>
  <outline>
    <contour>
      <point x="238.0" y="538.0" type="line"/>
      <point x="248.0" y="550.0" type="line"/>
      <point x="137.0" y="650.0" type="line"/>
      <point x="120.0" y="636.0" type="line"/>
      <point x="119.0" y="622.0" type="line"/>
    </contour>
    <contour>
      <point x="119.0" y="538.0" type="line"/>
      <point x="129.0" y="550.0" type="line"/>
      <point x="18.0" y="650.0" type="line"/>
      <point x="1.0" y="636.0" type="line"/>
      <point x="0.0" y="622.0" type="line"/>
    </contour>
  </outline>
</glyph>
<glyph name="breveinvertedcomb" format="2">
  <unicode hex="0311"/>
  <anchor x="121.0" y="440.0" name="_top"/>
  <anchor x="120.0" y="620.0" name="top"/>
  <outline>
    <contour>
      <point x="12.0" y="547.0" type="line"/>
      <point x="40.0" y="591.0"/>
      <point x="78.0" y="613.0"/>
      <point x="119.0" y="613.0" type="curve" smooth="yes"/>
      <point x="156.0" y="613.0"/>
      <point x="197.0" y="591.0"/>
      <point x="228.0" y="547.0" type="curve"/>
      <point x="240.0" y="555.0" type="line"/>
      <point x="214.0" y="610.0"/>
      <point x="168.0" y="640.0"/>
      <point x="119.0" y="640.0" type="curve" smooth="yes"/>
      <point x="72.0" y="640.0"/>
      <point x="26.0" y="610.0"/>
      <point x="0.0" y="555.0" type="curve"/>
    </contour>
  </outline>
</glyph>
<glyph name="commaturnedabovecomb" format="2">
  <unicode hex="0312"/>
  <anchor x="22.0" y="440.0" name="_top"/>
  <anchor x="24.0" y="671.0" name="top"/>
  <outline>
    <contour>
      <point x="12.0" y="524.0" type="curve" smooth="yes"/>
      <point x="17.0" y="524.0"/>
      <point x="31.0" y="526.0"/>
      <point x="38.0" y="529.0" type="curve"/>
      <point x="40.0" y="586.0" type="line" smooth="yes"/>
      <point x="40.0" y="590.0"/>
      <point x="31.0" y="595.0"/>
      <point x="28.0" y="598.0" type="curve"/>
      <point x="32.0" y="620.0"/>
      <point x="41.0" y="645.0"/>
      <point x="48.0" y="663.0" type="curve"/>
      <point x="34.0" y="671.0" type="line"/>
      <point x="14.0" y="636.0"/>
      <point x="0.0" y="592.0"/>
      <point x="0.0" y="564.0" type="curve" smooth="yes"/>
      <point x="0.0" y="535.0" type="line"/>
      <point x="0.0" y="531.0"/>
      <point x="9.0" y="524.0"/>
    </contour>
  </outline>
</glyph>
<glyph name="commaabovecomb" format="2">
  <unicode hex="0313"/>
  <anchor x="24.0" y="440.0" name="_top"/>
  <anchor x="24.0" y="671.0" name="top"/>
  <outline>
    <contour>
      <point x="14.0" y="524.0" type="line"/>
      <point x="34.0" y="559.0"/>
      <point x="48.0" y="603.0"/>
      <point x="48.0" y="631.0" type="curve" smooth="yes"/>
      <point x="48.0" y="660.0" type="line"/>
      <point x="48.0" y="664.0"/>
      <point x="39.0" y="671.0"/>
      <point x="36.0" y="671.0" type="curve" smooth="yes"/>
      <point x="31.0" y="671.0"/>
      <point x="17.0" y="669.0"/>
      <point x="10.0" y="666.0" type="curve"/>
      <point x="8.0" y="609.0" type="line" smooth="yes"/>
      <point x="8.0" y="605.0"/>
      <point x="17.0" y="600.0"/>
      <point x="20.0" y="597.0" type="curve"/>
      <point x="16.0" y="575.0"/>
      <point x="7.0" y="550.0"/>
      <point x="0.0" y="532.0" type="curve"/>
    </contour>
  </outline>
</glyph>
<glyph name="horncomb" format="2">
  <unicode hex="031B"/>
  <anchor x="0.0" y="421.0" name="_topright"/>
  <outline>
    <contour>
      <point x="2.0" y="406.0" type="line"/>
      <point x="49.0" y="406.0"/>
      <point x="108.0" y="441.0"/>
      <point x="120.0" y="510.0" type="curve"/>
      <point x="99.0" y="518.0" type="line"/>
      <point x="89.0" y="456.0"/>
      <point x="40.0" y="421.0"/>
      <point x="0.0" y="421.0" type="curve"/>
    </contour>
  </outline>
</glyph>
<glyph name="ogonekcomb" format="2">
  <unicode hex="0328"/>
  <anchor x="114.0" y="0.0" name="_ogonek"/>
  <outline>
    <contour>
      <point x="56.0" y="-213.0" type="curve" smooth="yes"/>
      <point x="64.0" y="-213.0"/>
      <point x="104.0" y="-208.0"/>
      <point x="134.0" y="-204.0" type="curve"/>
      <point x="134.0" y="-189.0" type="line"/>
      <point x="60.0" y="-190.0" type="line" smooth="yes"/>
      <point x="37.0" y="-190.0"/>
      <point x="25.0" y="-148.0"/>
      <point x="29.0" y="-110.0" type="curve" smooth="yes"/>
      <point x="30.0" y="-101.0"/>
      <point x="94.0" y="-40.0"/>
      <point x="135.0" y="0.0" type="curve"/>
      <point x="126.0" y="10.0" type="line"/>
      <point x="90.0" y="-18.0"/>
      <point x="35.0" y="-62.0"/>
      <point x="5.0" y="-90.0" type="curve"/>
      <point x="2.0" y="-101.0"/>
      <point x="0.0" y="-113.0"/>
      <point x="0.0" y="-125.0" type="curve" smooth="yes"/>
      <point x="0.0" y="-168.0"/>
      <point x="21.0" y="-213.0"/>
    </contour>
  </outline>
</glyph>
<glyph name="brevebelowcomb" format="2">
  <unicode hex="032E"/>
  <anchor x="120.0" y="0.0" name="_bottom"/>
  <anchor x="120.0" y="-164.0" name="bottom"/>
  <outline>
    <contour>
      <point x="121.0" y="-164.0" type="curve" smooth="yes"/>
      <point x="168.0" y="-164.0"/>
      <point x="214.0" y="-134.0"/>
      <point x="240.0" y="-79.0" type="curve"/>
      <point x="228.0" y="-71.0" type="line"/>
      <point x="200.0" y="-115.0"/>
      <point x="162.0" y="-137.0"/>
      <point x="121.0" y="-137.0" type="curve" smooth="yes"/>
      <point x="84.0" y="-137.0"/>
      <point x="43.0" y="-115.0"/>
      <point x="12.0" y="-71.0" type="curve"/>
      <point x="0.0" y="-79.0" type="line"/>
      <point x="26.0" y="-134.0"/>
      <point x="72.0" y="-164.0"/>
    </contour>
  </outline>
</glyph>
